Atlas-Chirani-Regular.ufo
<glyph name="parenleft" format="2">
	<advance width="239"/>
	<unicode hex="0028"/>
	<outline>
		<contour>
			<point x="40" y="245" type="curve" smooth="yes"/>
			<point x="40" y="382"/>
			<point x="77" y="507"/>
			<point x="181" y="662" type="curve"/>
			<point x="209" y="645" type="line"/>
			<point x="116" y="514"/>
			<point x="69" y="388"/>
			<point x="69" y="245" type="curve" smooth="yes"/>
			<point x="69" y="95"/>
			<point x="116" y="-34"/>
			<point x="209" y="-155" type="curve"/>
			<point x="181" y="-172" type="line"/>
			<point x="77" y="-27"/>
			<point x="40" y="95"/>
		</contour>
	</outline>
</glyph>
<glyph name="parenright" format="2">
	<advance width="259"/>
	<unicode hex="0029"/>
	<outline>
		<contour>
			<point x="219" y="245" type="curve" smooth="yes"/>
			<point x="219" y="95"/>
			<point x="182" y="-27"/>
			<point x="78" y="-172" type="curve"/>
			<point x="50" y="-155" type="line"/>
			<point x="143" y="-34"/>
			<point x="190" y="95"/>
			<point x="190" y="245" type="curve" smooth="yes"/>
			<point x="190" y="388"/>
			<point x="143" y="514"/>
			<point x="50" y="645" type="curve"/>
			<point x="78" y="662" type="line"/>
			<point x="182" y="507"/>
			<point x="219" y="382"/>
		</contour>
	</outline>
</glyph>
<glyph name="comma" format="2">
	<advance width="256"/>
	<unicode hex="002C"/>
	<outline>
		<contour>
			<point x="79" y="-96" type="curve"/>
			<point x="72" y="-71" type="line"/>
			<point x="160" y="-62"/>
			<point x="190" y="-11"/>
			<point x="190" y="47" type="curve" smooth="yes"/>
			<point x="190" y="95"/>
			<point x="162" y="119"/>
			<point x="126" y="119" type="curve" smooth="yes"/>
			<point x="98" y="119"/>
			<point x="66" y="105"/>
			<point x="66" y="67" type="curve" smooth="yes"/>
			<point x="66" y="46"/>
			<point x="77" y="25"/>
			<point x="113" y="25" type="curve" smooth="yes"/>
			<point x="136" y="25"/>
			<point x="145" y="40"/>
			<point x="145" y="52" type="curve" smooth="yes"/>
			<point x="145" y="70"/>
			<point x="134" y="74"/>
			<point x="128" y="74" type="curve" smooth="yes"/>
			<point x="117" y="74"/>
			<point x="110" y="63"/>
			<point x="111" y="52" type="curve"/>
			<point x="85" y="52" type="line"/>
			<point x="82" y="80"/>
			<point x="99" y="99"/>
			<point x="127" y="99" type="curve" smooth="yes"/>
			<point x="145" y="99"/>
			<point x="171" y="88"/>
			<point x="171" y="54" type="curve" smooth="yes"/>
			<point x="171" y="29"/>
			<point x="151" y="0"/>
			<point x="109" y="0" type="curve" smooth="yes"/>
			<point x="64" y="0"/>
			<point x="40" y="35"/>
			<point x="40" y="67" type="curve" smooth="yes"/>
			<point x="40" y="110"/>
			<point x="75" y="144"/>
			<point x="126" y="144" type="curve" smooth="yes"/>
			<point x="167" y="144"/>
			<point x="216" y="117"/>
			<point x="216" y="47" type="curve" smooth="yes"/>
			<point x="216" y="-45"/>
			<point x="147" y="-91"/>
		</contour>
	</outline>
</glyph>
<glyph name="period" format="2">
	<advance width="250"/>
	<unicode hex="002E"/>
	<outline>
		<contour>
			<point x="187" y="-6" type="curve"/>
			<point x="164" y="7" type="line"/>
			<point x="176" y="21"/>
			<point x="184" y="40"/>
			<point x="184" y="59" type="curve" smooth="yes"/>
			<point x="184" y="93"/>
			<point x="157" y="119"/>
			<point x="122" y="119" type="curve" smooth="yes"/>
			<point x="96" y="119"/>
			<point x="66" y="105"/>
			<point x="66" y="67" type="curve" smooth="yes"/>
			<point x="66" y="44"/>
			<point x="82" y="25"/>
			<point x="108" y="25" type="curve" smooth="yes"/>
			<point x="131" y="25"/>
			<point x="140" y="40"/>
			<point x="140" y="52" type="curve" smooth="yes"/>
			<point x="140" y="70"/>
			<point x="129" y="74"/>
			<point x="123" y="74" type="curve" smooth="yes"/>
			<point x="112" y="74"/>
			<point x="107" y="65"/>
			<point x="110" y="52" type="curve"/>
			<point x="86" y="52" type="line"/>
			<point x="78" y="76"/>
			<point x="94" y="99"/>
			<point x="122" y="99" type="curve" smooth="yes"/>
			<point x="140" y="99"/>
			<point x="166" y="88"/>
			<point x="166" y="54" type="curve" smooth="yes"/>
			<point x="166" y="29"/>
			<point x="146" y="0"/>
			<point x="108" y="0" type="curve" smooth="yes"/>
			<point x="61" y="0"/>
			<point x="40" y="33"/>
			<point x="40" y="67" type="curve" smooth="yes"/>
			<point x="40" y="110"/>
			<point x="73" y="144"/>
			<point x="122" y="144" type="curve" smooth="yes"/>
			<point x="164" y="144"/>
			<point x="210" y="116"/>
			<point x="210" y="59" type="curve" smooth="yes"/>
			<point x="210" y="30"/>
			<point x="198" y="7"/>
		</contour>
	</outline>
</glyph>
<glyph name="slash" format="2">
	<advance width="360"/>
	<unicode hex="002F"/>
	<outline>
		<contour>
			<point x="310" y="689" type="line"/>
			<point x="280" y="689" type="line"/>
			<point x="50" y="-96" type="line"/>
			<point x="80" y="-96" type="line"/>
		</contour>
	</outline>
</glyph>
<glyph name="zero" format="2">
	<advance width="622"/>
	<unicode hex="0030"/>
	<outline>
		<contour>
			<point x="352" y="533" type="curve" smooth="yes"/>
			<point x="208" y="533"/>
			<point x="96" y="394"/>
			<point x="96" y="241" type="curve" smooth="yes"/>
			<point x="96" y="101"/>
			<point x="187" y="27"/>
			<point x="295" y="27" type="curve" smooth="yes"/>
			<point x="396" y="27"/>
			<point x="471" y="94"/>
			<point x="489" y="201" type="curve"/>
			<point x="489" y="202"/>
			<point x="492" y="220"/>
			<point x="492" y="228" type="curve" smooth="yes"/>
			<point x="492" y="307"/>
			<point x="433" y="378"/>
			<point x="341" y="378" type="curve" smooth="yes"/>
			<point x="251" y="378"/>
			<point x="194" y="330"/>
			<point x="194" y="250" type="curve" smooth="yes"/>
			<point x="194" y="190"/>
			<point x="234" y="144"/>
			<point x="290" y="140" type="curve" smooth="yes"/>
			<point x="343" y="137"/>
			<point x="384" y="162"/>
			<point x="388" y="214" type="curve" smooth="yes"/>
			<point x="391" y="257"/>
			<point x="368" y="290"/>
			<point x="324" y="290" type="curve" smooth="yes"/>
			<point x="299" y="290"/>
			<point x="284" y="270"/>
			<point x="280" y="257" type="curve"/>
			<point x="255" y="266" type="line"/>
			<point x="263" y="290"/>
			<point x="288" y="315"/>
			<point x="324" y="315" type="curve" smooth="yes"/>
			<point x="384" y="315"/>
			<point x="417" y="274"/>
			<point x="414" y="213" type="curve" smooth="yes"/>
			<point x="410" y="145"/>
			<point x="356" y="109"/>
			<point x="288" y="114" type="curve" smooth="yes"/>
			<point x="218" y="119"/>
			<point x="168" y="176"/>
			<point x="168" y="250" type="curve" smooth="yes"/>
			<point x="168" y="344"/>
			<point x="236" y="405"/>
			<point x="341" y="405" type="curve" smooth="yes"/>
			<point x="422" y="405"/>
			<point x="490" y="354"/>
			<point x="511" y="277" type="curve"/>
			<point x="517" y="294"/>
			<point x="522" y="310"/>
			<point x="524" y="331" type="curve" smooth="yes"/>
			<point x="534" y="447"/>
			<point x="461" y="535"/>
		</contour>
		<contour>
			<point x="295" y="0" type="curve" smooth="yes"/>
			<point x="178" y="0"/>
			<point x="70" y="82"/>
			<point x="70" y="243" type="curve" smooth="yes"/>
			<point x="70" y="422"/>
			<point x="203" y="559"/>
			<point x="352" y="559" type="curve" smooth="yes"/>
			<point x="478" y="559"/>
			<point x="552" y="472"/>
			<point x="552" y="348" type="curve" smooth="yes"/>
			<point x="552" y="315"/>
			<point x="546" y="296"/>
			<point x="532" y="259" type="curve"/>
			<point x="527" y="242"/>
			<point x="520" y="222"/>
			<point x="516" y="199" type="curve"/>
			<point x="516" y="198"/>
			<point x="515" y="198"/>
			<point x="515" y="197" type="curve"/>
			<point x="496" y="75"/>
			<point x="411" y="0"/>
		</contour>
	</outline>
</glyph>
<glyph name="one" format="2">
	<advance width="481"/>
	<unicode hex="0031"/>
	<outline>
		<contour>
			<point x="371" y="534" type="curve"/>
			<point x="349" y="522"/>
			<point x="326" y="511"/>
			<point x="303" y="499" type="curve" smooth="yes"/>
			<point x="219" y="459"/>
			<point x="140" y="420"/>
			<point x="136" y="358" type="curve" smooth="yes"/>
			<point x="132" y="312"/>
			<point x="161" y="277"/>
			<point x="211" y="277" type="curve" smooth="yes"/>
			<point x="256" y="277"/>
			<point x="280" y="308"/>
			<point x="284" y="338" type="curve" smooth="yes"/>
			<point x="287" y="359"/>
			<point x="268" y="391"/>
			<point x="235" y="391" type="curve" smooth="yes"/>
			<point x="212" y="390"/>
			<point x="189" y="375"/>
			<point x="189" y="352" type="curve" smooth="yes"/>
			<point x="189" y="339"/>
			<point x="198" y="324"/>
			<point x="211" y="324" type="curve" smooth="yes"/>
			<point x="231" y="324"/>
			<point x="231" y="334"/>
			<point x="231" y="339" type="curve" smooth="yes"/>
			<point x="231" y="352"/>
			<point x="218" y="354"/>
			<point x="216" y="355" type="curve"/>
			<point x="220" y="380" type="line"/>
			<point x="232" y="378"/>
			<point x="256" y="367"/>
			<point x="256" y="339" type="curve" smooth="yes"/>
			<point x="256" y="314"/>
			<point x="239" y="297"/>
			<point x="211" y="297" type="curve" smooth="yes"/>
			<point x="192" y="297"/>
			<point x="163" y="318"/>
			<point x="163" y="353" type="curve" smooth="yes"/>
			<point x="164" y="392"/>
			<point x="203" y="416"/>
			<point x="237" y="416" type="curve" smooth="yes"/>
			<point x="271" y="416"/>
			<point x="296" y="394"/>
			<point x="307" y="364" type="curve"/>
			<point x="329" y="428"/>
			<point x="352" y="489"/>
		</contour>
		<contour>
			<point x="109" y="349" type="curve" smooth="yes"/>
			<point x="109" y="432"/>
			<point x="197" y="476"/>
			<point x="292" y="522" type="curve" smooth="yes"/>
			<point x="326" y="539"/>
			<point x="362" y="557"/>
			<point x="393" y="576" type="curve"/>
			<point x="411" y="559" type="line"/>
			<point x="352" y="447"/>
			<point x="212" y="8"/>
			<point x="211" y="3" type="curve"/>
			<point x="186" y="11" type="line"/>
			<point x="188" y="19"/>
			<point x="240" y="164"/>
			<point x="277" y="273" type="curve"/>
			<point x="259" y="259"/>
			<point x="238" y="250"/>
			<point x="211" y="250" type="curve" smooth="yes"/>
			<point x="156" y="250"/>
			<point x="109" y="288"/>
		</contour>
		<contour>
			<point x="32" y="27" type="line"/>
			<point x="382" y="27" type="line"/>
			<point x="380" y="0" type="line"/>
			<point x="30" y="0" type="line"/>
		</contour>
	</outline>
</glyph>
<glyph name="two" format="2">
	<advance width="771"/>
	<unicode hex="0032"/>
	<outline>
		<contour>
			<point x="321" y="413" type="curve"/>
			<point x="297" y="407"/>
			<point x="285" y="387"/>
			<point x="283" y="368" type="curve"/>
			<point x="282" y="357"/>
			<point x="284" y="348"/>
			<point x="291" y="342" type="curve"/>
			<point x="297" y="334"/>
			<point x="306" y="332"/>
			<point x="312" y="332" type="curve"/>
			<point x="319" y="332"/>
			<point x="342" y="334"/>
			<point x="345" y="367" type="curve"/>
			<point x="347" y="380"/>
			<point x="340" y="395"/>
			<point x="326" y="409" type="curve"/>
			<point x="325" y="411"/>
			<point x="322" y="412"/>
		</contour>
		<contour>
			<point x="193" y="444" type="curve"/>
			<point x="188" y="430"/>
			<point x="184" y="413"/>
			<point x="184" y="396" type="curve"/>
			<point x="184" y="335"/>
			<point x="226" y="273"/>
			<point x="305" y="273" type="curve"/>
			<point x="356" y="273"/>
			<point x="393" y="312"/>
			<point x="395" y="349" type="curve"/>
			<point x="396" y="367"/>
			<point x="391" y="385"/>
			<point x="379" y="398" type="curve"/>
			<point x="373" y="405"/>
			<point x="365" y="409"/>
			<point x="357" y="412" type="curve"/>
			<point x="369" y="396"/>
			<point x="373" y="380"/>
			<point x="372" y="363" type="curve"/>
			<point x="368" y="323"/>
			<point x="339" y="305"/>
			<point x="312" y="305" type="curve"/>
			<point x="297" y="305"/>
			<point x="281" y="312"/>
			<point x="271" y="324" type="curve"/>
			<point x="264" y="332"/>
			<point x="255" y="347"/>
			<point x="257" y="371" type="curve"/>
			<point x="259" y="395"/>
			<point x="272" y="418"/>
			<point x="296" y="432" type="curve"/>
			<point x="276" y="443"/>
			<point x="253" y="449"/>
			<point x="231" y="449" type="curve" smooth="yes"/>
			<point x="226" y="449"/>
			<point x="222" y="449"/>
			<point x="217" y="448" type="curve"/>
			<point x="209" y="448"/>
			<point x="202" y="446"/>
		</contour>
		<contour>
			<point x="98" y="-43" type="curve"/>
			<point x="70" y="-42" type="line"/>
			<point x="71" y="-35"/>
			<point x="86" y="88"/>
			<point x="171" y="134" type="curve" smooth="yes"/>
			<point x="269" y="188"/>
			<point x="484" y="248"/>
			<point x="484" y="392" type="curve" smooth="yes"/>
			<point x="484" y="483"/>
			<point x="417" y="534"/>
			<point x="338" y="534" type="curve" smooth="yes"/>
			<point x="290" y="534"/>
			<point x="241" y="511"/>
			<point x="212" y="474" type="curve"/>
			<point x="213" y="474"/>
			<point x="214" y="474"/>
			<point x="215" y="474" type="curve"/>
			<point x="262" y="479"/>
			<point x="302" y="463"/>
			<point x="329" y="443" type="curve"/>
			<point x="332" y="443"/>
			<point x="337" y="443"/>
			<point x="340" y="443" type="curve"/>
			<point x="361" y="443"/>
			<point x="382" y="433"/>
			<point x="398" y="416" type="curve"/>
			<point x="416" y="398"/>
			<point x="424" y="373"/>
			<point x="421" y="347" type="curve"/>
			<point x="418" y="298"/>
			<point x="372" y="246"/>
			<point x="305" y="246" type="curve"/>
			<point x="231" y="246"/>
			<point x="157" y="298"/>
			<point x="157" y="396" type="curve"/>
			<point x="157" y="409"/>
			<point x="159" y="421"/>
			<point x="162" y="434" type="curve"/>
			<point x="127" y="418"/>
			<point x="98" y="389"/>
			<point x="98" y="345" type="curve"/>
			<point x="98" y="308"/>
			<point x="123" y="292"/>
			<point x="123" y="290" type="curve"/>
			<point x="109" y="269" type="line"/>
			<point x="108" y="269"/>
			<point x="70" y="292"/>
			<point x="70" y="345" type="curve"/>
			<point x="70" y="412"/>
			<point x="124" y="451"/>
			<point x="175" y="466" type="curve"/>
			<point x="204" y="522"/>
			<point x="269" y="560"/>
			<point x="338" y="560" type="curve" smooth="yes"/>
			<point x="431" y="560"/>
			<point x="511" y="497"/>
			<point x="511" y="392" type="curve" smooth="yes"/>
			<point x="511" y="251"/>
			<point x="321" y="169"/>
			<point x="237" y="143" type="curve"/>
			<point x="312" y="131"/>
			<point x="428" y="-13"/>
			<point x="540" y="-13" type="curve" smooth="yes"/>
			<point x="603" y="-13"/>
			<point x="673" y="34"/>
			<point x="673" y="101" type="curve" smooth="yes"/>
			<point x="673" y="165"/>
			<point x="638" y="204"/>
			<point x="575" y="204" type="curve" smooth="yes"/>
			<point x="528" y="204"/>
			<point x="481" y="179"/>
			<point x="481" y="124" type="curve" smooth="yes"/>
			<point x="481" y="87"/>
			<point x="512" y="64"/>
			<point x="533" y="64" type="curve" smooth="yes"/>
			<point x="555" y="64"/>
			<point x="567" y="71"/>
			<point x="572" y="89" type="curve"/>
			<point x="597" y="80" type="line"/>
			<point x="588" y="51"/>
			<point x="567" y="38"/>
			<point x="533" y="38" type="curve" smooth="yes"/>
			<point x="496" y="38"/>
			<point x="454" y="73"/>
			<point x="454" y="124" type="curve" smooth="yes"/>
			<point x="454" y="187"/>
			<point x="504" y="231"/>
			<point x="575" y="231" type="curve" smooth="yes"/>
			<point x="652" y="231"/>
			<point x="701" y="180"/>
			<point x="701" y="101" type="curve" smooth="yes"/>
			<point x="701" y="33"/>
			<point x="638" y="-40"/>
			<point x="540" y="-40" type="curve" smooth="yes"/>
			<point x="416" y="-40"/>
			<point x="290" y="117"/>
			<point x="216" y="117" type="curve" smooth="yes"/>
			<point x="141" y="117"/>
			<point x="98" y="-4"/>
		</contour>
	</outline>
</glyph>
<glyph name="three" format="2">
	<advance width="686"/>
	<unicode hex="0033"/>
	<outline>
		<contour>
			<point x="414" y="539" type="curve" smooth="yes"/>
			<point x="345" y="539"/>
			<point x="299" y="492"/>
			<point x="299" y="449" type="curve" smooth="yes"/>
			<point x="299" y="398"/>
			<point x="336" y="365"/>
			<point x="381" y="365" type="curve" smooth="yes"/>
			<point x="426" y="365"/>
			<point x="455" y="388"/>
			<point x="455" y="428" type="curve" smooth="yes"/>
			<point x="455" y="450"/>
			<point x="439" y="485"/>
			<point x="405" y="485" type="curve" smooth="yes"/>
			<point x="376" y="485"/>
			<point x="350" y="467"/>
			<point x="350" y="434" type="curve" smooth="yes"/>
			<point x="350" y="422"/>
			<point x="361" y="407"/>
			<point x="377" y="407" type="curve" smooth="yes"/>
			<point x="390" y="407"/>
			<point x="402" y="414"/>
			<point x="402" y="433" type="curve" smooth="yes"/>
			<point x="402" y="466"/>
			<point x="376" y="487"/>
			<point x="336" y="487" type="curve" smooth="yes"/>
			<point x="290" y="487"/>
			<point x="228" y="446"/>
			<point x="206" y="403" type="curve"/>
			<point x="188" y="418" type="line"/>
			<point x="217" y="464"/>
			<point x="274" y="509"/>
			<point x="340" y="509" type="curve" smooth="yes"/>
			<point x="395" y="509"/>
			<point x="428" y="475"/>
			<point x="428" y="433" type="curve" smooth="yes"/>
			<point x="428" y="402"/>
			<point x="407" y="381"/>
			<point x="377" y="381" type="curve" smooth="yes"/>
			<point x="347" y="381"/>
			<point x="324" y="406"/>
			<point x="324" y="433" type="curve" smooth="yes"/>
			<point x="324" y="489"/>
			<point x="375" y="507"/>
			<point x="405" y="507" type="curve" smooth="yes"/>
			<point x="456" y="507"/>
			<point x="481" y="465"/>
			<point x="481" y="428" type="curve" smooth="yes"/>
			<point x="481" y="375"/>
			<point x="441" y="340"/>
			<point x="381" y="340" type="curve" smooth="yes"/>
			<point x="320" y="340"/>
			<point x="271" y="384"/>
			<point x="271" y="447" type="curve" smooth="yes"/>
			<point x="271" y="513"/>
			<point x="331" y="566"/>
			<point x="414" y="566" type="curve" smooth="yes"/>
			<point x="496" y="566"/>
			<point x="553" y="502"/>
			<point x="553" y="434" type="curve" smooth="yes"/>
			<point x="553" y="372"/>
			<point x="520" y="337"/>
			<point x="485" y="308" type="curve"/>
			<point x="502" y="308" type="line" smooth="yes"/>
			<point x="528" y="308"/>
			<point x="622" y="287"/>
			<point x="616" y="166" type="curve" smooth="yes"/>
			<point x="612" y="85"/>
			<point x="513" y="0"/>
			<point x="378" y="0" type="curve" smooth="yes"/>
			<point x="279" y="0"/>
			<point x="145" y="39"/>
			<point x="145" y="151" type="curve" smooth="yes"/>
			<point x="145" y="224"/>
			<point x="195" y="282"/>
			<point x="284" y="282" type="curve" smooth="yes"/>
			<point x="360" y="282"/>
			<point x="406" y="224"/>
			<point x="406" y="166" type="curve" smooth="yes"/>
			<point x="406" y="134"/>
			<point x="370" y="82"/>
			<point x="328" y="82" type="curve" smooth="yes"/>
			<point x="287" y="82"/>
			<point x="240" y="107"/>
			<point x="240" y="149" type="curve" smooth="yes"/>
			<point x="240" y="182"/>
			<point x="256" y="208"/>
			<point x="290" y="208" type="curve" smooth="yes"/>
			<point x="335" y="208"/>
			<point x="361" y="180"/>
			<point x="356" y="142" type="curve" smooth="yes"/>
			<point x="337" y="-3"/>
			<point x="127" y="-49"/>
			<point x="10" y="-49" type="curve" smooth="yes"/>
			<point x="0" y="-49" type="line"/>
			<point x="0" y="-22" type="line"/>
			<point x="111" y="-29"/>
			<point x="331" y="42"/>
			<point x="331" y="142" type="curve" smooth="yes"/>
			<point x="331" y="161"/>
			<point x="318" y="182"/>
			<point x="295" y="182" type="curve" smooth="yes"/>
			<point x="276" y="180"/>
			<point x="266" y="168"/>
			<point x="266" y="149" type="curve" smooth="yes"/>
			<point x="266" y="121"/>
			<point x="313" y="112"/>
			<point x="341" y="112" type="curve" smooth="yes"/>
			<point x="360" y="112"/>
			<point x="380" y="150"/>
			<point x="380" y="166" type="curve" smooth="yes"/>
			<point x="380" y="218"/>
			<point x="331" y="255"/>
			<point x="284" y="255" type="curve" smooth="yes"/>
			<point x="244" y="255"/>
			<point x="172" y="226"/>
			<point x="172" y="148" type="curve" smooth="yes"/>
			<point x="172" y="59"/>
			<point x="290" y="27"/>
			<point x="378" y="27" type="curve" smooth="yes"/>
			<point x="498" y="27"/>
			<point x="584" y="98"/>
			<point x="589" y="168" type="curve" smooth="yes"/>
			<point x="595" y="262"/>
			<point x="526" y="279"/>
			<point x="498" y="284" type="curve" smooth="yes"/>
			<point x="469" y="287"/>
			<point x="437" y="274"/>
			<point x="406" y="253" type="curve"/>
			<point x="389" y="273" type="line"/>
			<point x="450" y="303"/>
			<point x="526" y="355"/>
			<point x="526" y="434" type="curve" smooth="yes"/>
			<point x="526" y="486"/>
			<point x="480" y="539"/>
		</contour>
	</outline>
</glyph>
<glyph name="four" format="2">
	<advance width="900"/>
	<unicode hex="0034"/>
	<outline>
		<contour>
			<point x="349" y="-298" type="curve"/>
			<point x="324" y="-290" type="line"/>
			<point x="358" y="-190"/>
			<point x="642" y="568"/>
			<point x="644" y="576" type="curve"/>
			<point x="669" y="567" type="line"/>
			<point x="666" y="558"/>
			<point x="383" y="-199"/>
		</contour>
		<contour>
			<point x="269" y="170" type="curve"/>
			<point x="229" y="189"/>
			<point x="191" y="202"/>
			<point x="159" y="202" type="curve" smooth="yes"/>
			<point x="120" y="202"/>
			<point x="96" y="175"/>
			<point x="96" y="143" type="curve" smooth="yes"/>
			<point x="96" y="122"/>
			<point x="110" y="93"/>
			<point x="149" y="93" type="curve" smooth="yes"/>
			<point x="190" y="93"/>
			<point x="231" y="125"/>
		</contour>
		<contour>
			<point x="830" y="157" type="curve" smooth="yes"/>
			<point x="830" y="120"/>
			<point x="806" y="0"/>
			<point x="651" y="0" type="curve" smooth="yes"/>
			<point x="563" y="0"/>
			<point x="482" y="48"/>
			<point x="398" y="98" type="curve" smooth="yes"/>
			<point x="363" y="119"/>
			<point x="328" y="140"/>
			<point x="294" y="157" type="curve"/>
			<point x="250" y="105"/>
			<point x="201" y="67"/>
			<point x="149" y="67" type="curve" smooth="yes"/>
			<point x="95" y="67"/>
			<point x="70" y="107"/>
			<point x="70" y="142" type="curve" smooth="yes"/>
			<point x="70" y="192"/>
			<point x="109" y="229"/>
			<point x="159" y="229" type="curve" smooth="yes"/>
			<point x="197" y="229"/>
			<point x="241" y="213"/>
			<point x="287" y="191" type="curve"/>
			<point x="327" y="242"/>
			<point x="364" y="302"/>
			<point x="389" y="346" type="curve" smooth="yes"/>
			<point x="411" y="383"/>
			<point x="463" y="480"/>
			<point x="535" y="480" type="curve" smooth="yes"/>
			<point x="583" y="480"/>
			<point x="615" y="439"/>
			<point x="617" y="438" type="curve"/>
			<point x="596" y="422" type="line"/>
			<point x="596" y="422"/>
			<point x="570" y="453"/>
			<point x="535" y="453" type="curve" smooth="yes"/>
			<point x="473" y="453"/>
			<point x="428" y="366"/>
			<point x="410" y="334" type="curve" smooth="yes"/>
			<point x="384" y="289"/>
			<point x="351" y="229"/>
			<point x="311" y="178" type="curve"/>
			<point x="345" y="161"/>
			<point x="378" y="141"/>
			<point x="411" y="121" type="curve" smooth="yes"/>
			<point x="489" y="74"/>
			<point x="569" y="27"/>
			<point x="651" y="27" type="curve" smooth="yes"/>
			<point x="780" y="27"/>
			<point x="802" y="117"/>
			<point x="802" y="157" type="curve" smooth="yes"/>
			<point x="802" y="213"/>
			<point x="762" y="260"/>
			<point x="708" y="260" type="curve" smooth="yes"/>
			<point x="662" y="260"/>
			<point x="629" y="225"/>
			<point x="629" y="182" type="curve" smooth="yes"/>
			<point x="629" y="145"/>
			<point x="650" y="126"/>
			<point x="667" y="115" type="curve"/>
			<point x="651" y="93" type="line"/>
			<point x="620" y="111"/>
			<point x="601" y="140"/>
			<point x="601" y="182" type="curve" smooth="yes"/>
			<point x="601" y="245"/>
			<point x="649" y="286"/>
			<point x="708" y="286" type="curve" smooth="yes"/>
			<point x="764" y="286"/>
			<point x="830" y="245"/>
		</contour>
	</outline>
</glyph>
<glyph name="five" format="2">
	<advance width="922"/>
	<unicode hex="0035"/>
	<outline>
		<contour>
			<point x="834" y="417" type="curve"/>
			<point x="817" y="438" type="line"/>
			<point x="833" y="452"/>
			<point x="856" y="486"/>
			<point x="856" y="520" type="curve" smooth="yes"/>
			<point x="856" y="568"/>
			<point x="815" y="596"/>
			<point x="768" y="596" type="curve" smooth="yes"/>
			<point x="678" y="596"/>
			<point x="541" y="495"/>
			<point x="440" y="495" type="curve" smooth="yes"/>
			<point x="360" y="495"/>
			<point x="342" y="536"/>
			<point x="342" y="569" type="curve" smooth="yes"/>
			<point x="342" y="603"/>
			<point x="366" y="629"/>
			<point x="386" y="641" type="curve"/>
			<point x="400" y="618" type="line"/>
			<point x="386" y="610"/>
			<point x="369" y="591"/>
			<point x="369" y="569" type="curve" smooth="yes"/>
			<point x="369" y="536"/>
			<point x="396" y="522"/>
			<point x="441" y="522" type="curve" smooth="yes"/>
			<point x="543" y="522"/>
			<point x="670" y="623"/>
			<point x="768" y="623" type="curve" smooth="yes"/>
			<point x="847" y="623"/>
			<point x="882" y="570"/>
			<point x="882" y="520" type="curve" smooth="yes"/>
			<point x="882" y="475"/>
			<point x="853" y="434"/>
		</contour>
		<contour>
			<point x="430" y="149" type="curve" smooth="yes"/>
			<point x="430" y="61"/>
			<point x="342" y="6"/>
			<point x="245" y="6" type="curve" smooth="yes"/>
			<point x="148" y="6"/>
			<point x="69" y="59"/>
			<point x="69" y="151" type="curve" smooth="yes"/>
			<point x="69" y="187"/>
			<point x="79" y="217"/>
			<point x="94" y="244" type="curve"/>
			<point x="117" y="230" type="line"/>
			<point x="104" y="208"/>
			<point x="96" y="176"/>
			<point x="96" y="153" type="curve" smooth="yes"/>
			<point x="96" y="74"/>
			<point x="172" y="31"/>
			<point x="245" y="31" type="curve" smooth="yes"/>
			<point x="329" y="31"/>
			<point x="403" y="74"/>
			<point x="403" y="147" type="curve" smooth="yes"/>
			<point x="403" y="161"/>
			<point x="397" y="184"/>
			<point x="368" y="184" type="curve" smooth="yes"/>
			<point x="361" y="184"/>
			<point x="331" y="182"/>
			<point x="331" y="149" type="curve" smooth="yes"/>
			<point x="331" y="131"/>
			<point x="343" y="115"/>
			<point x="374" y="115" type="curve" smooth="yes"/>
			<point x="412" y="115"/>
			<point x="449" y="142"/>
			<point x="449" y="183" type="curve" smooth="yes"/>
			<point x="449" y="223"/>
			<point x="425" y="260"/>
			<point x="357" y="260" type="curve" smooth="yes"/>
			<point x="289" y="260"/>
			<point x="233" y="216"/>
			<point x="233" y="152" type="curve" smooth="yes"/>
			<point x="233" y="51"/>
			<point x="353" y="27"/>
			<point x="444" y="27" type="curve" smooth="yes"/>
			<point x="596" y="27"/>
			<point x="696" y="111"/>
			<point x="704" y="224" type="curve" smooth="yes"/>
			<point x="709" y="291"/>
			<point x="672" y="390"/>
			<point x="554" y="390" type="curve" smooth="yes"/>
			<point x="466" y="390"/>
			<point x="404" y="320"/>
			<point x="403" y="319" type="curve"/>
			<point x="380" y="333" type="line"/>
			<point x="495" y="627" type="line"/>
			<point x="519" y="619" type="line"/>
			<point x="431" y="382" type="line"/>
			<point x="460" y="406"/>
			<point x="509" y="416"/>
			<point x="558" y="416" type="curve" smooth="yes"/>
			<point x="664" y="416"/>
			<point x="739" y="332"/>
			<point x="731" y="222" type="curve" smooth="yes"/>
			<point x="722" y="95"/>
			<point x="612" y="0"/>
			<point x="444" y="0" type="curve" smooth="yes"/>
			<point x="313" y="0"/>
			<point x="206" y="40"/>
			<point x="206" y="151" type="curve" smooth="yes"/>
			<point x="206" y="228"/>
			<point x="270" y="287"/>
			<point x="357" y="287" type="curve" smooth="yes"/>
			<point x="443" y="287"/>
			<point x="476" y="235"/>
			<point x="476" y="180" type="curve" smooth="yes"/>
			<point x="476" y="134"/>
			<point x="431" y="91"/>
			<point x="371" y="91" type="curve" smooth="yes"/>
			<point x="337" y="91"/>
			<point x="305" y="110"/>
			<point x="305" y="149" type="curve" smooth="yes"/>
			<point x="305" y="195"/>
			<point x="341" y="211"/>
			<point x="371" y="210" type="curve" smooth="yes"/>
			<point x="405" y="209"/>
			<point x="430" y="185"/>
		</contour>
	</outline>
</glyph>
<glyph name="six" format="2">
	<advance width="692"/>
	<unicode hex="0036"/>
	<outline>
		<contour>
			<point x="321" y="1" type="curve"/>
			<point x="148" y="1"/>
			<point x="70" y="121"/>
			<point x="70" y="233" type="curve"/>
			<point x="70" y="332"/>
			<point x="110" y="421"/>
			<point x="184" y="483" type="curve"/>
			<point x="254" y="543"/>
			<point x="349" y="576"/>
			<point x="450" y="576" type="curve"/>
			<point x="451" y="576" type="line"/>
			<point x="513" y="576"/>
			<point x="566" y="570"/>
			<point x="622" y="538" type="curve"/>
			<point x="609" y="515" type="line"/>
			<point x="558" y="543"/>
			<point x="509" y="550"/>
			<point x="451" y="550" type="curve"/>
			<point x="450" y="550" type="line"/>
			<point x="354" y="550"/>
			<point x="267" y="518"/>
			<point x="202" y="463" type="curve"/>
			<point x="133" y="404"/>
			<point x="98" y="325"/>
			<point x="98" y="233" type="curve"/>
			<point x="98" y="93"/>
			<point x="213" y="28"/>
			<point x="321" y="28" type="curve"/>
			<point x="377" y="28"/>
			<point x="433" y="52"/>
			<point x="476" y="95" type="curve"/>
			<point x="513" y="132"/>
			<point x="533" y="182"/>
			<point x="532" y="231" type="curve"/>
			<point x="532" y="288"/>
			<point x="511" y="338"/>
			<point x="473" y="374" type="curve"/>
			<point x="433" y="410"/>
			<point x="383" y="430"/>
			<point x="329" y="428" type="curve"/>
			<point x="198" y="422"/>
			<point x="132" y="335"/>
			<point x="132" y="252" type="curve"/>
			<point x="132" y="152"/>
			<point x="209" y="107"/>
			<point x="282" y="107" type="curve"/>
			<point x="362" y="107"/>
			<point x="399" y="173"/>
			<point x="399" y="233" type="curve"/>
			<point x="399" y="291"/>
			<point x="357" y="318"/>
			<point x="317" y="318" type="curve"/>
			<point x="259" y="318"/>
			<point x="232" y="278"/>
			<point x="232" y="240" type="curve"/>
			<point x="232" y="196"/>
			<point x="273" y="181"/>
			<point x="287" y="179" type="curve"/>
			<point x="285" y="152" type="line"/>
			<point x="253" y="155"/>
			<point x="205" y="185"/>
			<point x="205" y="240" type="curve"/>
			<point x="205" y="290"/>
			<point x="240" y="345"/>
			<point x="317" y="345" type="curve"/>
			<point x="371" y="345"/>
			<point x="426" y="308"/>
			<point x="426" y="233" type="curve"/>
			<point x="426" y="156"/>
			<point x="377" y="79"/>
			<point x="282" y="79" type="curve"/>
			<point x="194" y="79"/>
			<point x="104" y="140"/>
			<point x="104" y="252" type="curve"/>
			<point x="104" y="349"/>
			<point x="181" y="448"/>
			<point x="327" y="454" type="curve"/>
			<point x="389" y="457"/>
			<point x="447" y="435"/>
			<point x="491" y="394" type="curve"/>
			<point x="534" y="353"/>
			<point x="558" y="295"/>
			<point x="559" y="231" type="curve"/>
			<point x="560" y="174"/>
			<point x="537" y="118"/>
			<point x="495" y="76" type="curve"/>
			<point x="449" y="29"/>
			<point x="383" y="1"/>
		</contour>
	</outline>
</glyph>
<glyph name="seven" format="2">
	<advance width="631"/>
	<unicode hex="0037"/>
	<outline>
		<contour>
			<point x="268" y="489" type="curve" smooth="yes"/>
			<point x="480" y="516" type="line" smooth="yes"/>
			<point x="556" y="526"/>
			<point x="563" y="554"/>
			<point x="563" y="563" type="curve" smooth="yes"/>
			<point x="563" y="567"/>
			<point x="565" y="582"/>
			<point x="531" y="582" type="curve" smooth="yes"/>
			<point x="452" y="582"/>
			<point x="396" y="492"/>
			<point x="379" y="459" type="curve" smooth="yes"/>
			<point x="358" y="418"/>
			<point x="327" y="350"/>
			<point x="295" y="277" type="curve" smooth="yes"/>
			<point x="246" y="173"/>
			<point x="197" y="64"/>
			<point x="171" y="18" type="curve" smooth="yes"/>
			<point x="145" y="-28"/>
			<point x="101" y="-41"/>
			<point x="64" y="-41" type="curve" smooth="yes"/>
			<point x="40" y="-41"/>
			<point x="18" y="-35"/>
			<point x="0" y="-29" type="curve"/>
			<point x="14" y="-3" type="line"/>
			<point x="16" y="-4"/>
			<point x="38" y="-14"/>
			<point x="65" y="-14" type="curve" smooth="yes"/>
			<point x="93" y="-14"/>
			<point x="126" y="-4"/>
			<point x="148" y="32" type="curve" smooth="yes"/>
			<point x="173" y="78"/>
			<point x="225" y="190"/>
			<point x="270" y="288" type="curve" smooth="yes"/>
			<point x="302" y="362"/>
			<point x="338" y="441"/>
			<point x="367" y="492" type="curve" smooth="yes"/>
			<point x="401" y="551"/>
			<point x="452" y="609"/>
			<point x="535" y="609" type="curve" smooth="yes"/>
			<point x="575" y="609"/>
			<point x="591" y="587"/>
			<point x="591" y="568" type="curve" smooth="yes"/>
			<point x="591" y="539"/>
			<point x="577" y="503"/>
			<point x="490" y="491" type="curve" smooth="yes"/>
			<point x="295" y="465" type="line" smooth="yes"/>
			<point x="172" y="449"/>
			<point x="123" y="432"/>
			<point x="123" y="383" type="curve" smooth="yes"/>
			<point x="123" y="357"/>
			<point x="150" y="349"/>
			<point x="153" y="348" type="curve"/>
			<point x="145" y="322" type="line"/>
			<point x="125" y="329"/>
			<point x="95" y="348"/>
			<point x="95" y="382" type="curve" smooth="yes"/>
			<point x="95" y="467"/>
			<point x="206" y="481"/>
		</contour>
		<contour>
			<point x="456" y="208" type="line"/>
			<point x="93" y="194" type="line"/>
			<point x="91" y="222" type="line"/>
			<point x="454" y="236" type="line"/>
		</contour>
	</outline>
</glyph>
<glyph name="eight" format="2">
	<advance width="645"/>
	<unicode hex="0038"/>
	<outline>
		<contour>
			<point x="326" y="563" type="curve" smooth="yes"/>
			<point x="254" y="563"/>
			<point x="194" y="527"/>
			<point x="194" y="467" type="curve" smooth="yes"/>
			<point x="194" y="418"/>
			<point x="223" y="393"/>
			<point x="251" y="380" type="curve"/>
			<point x="264" y="384"/>
			<point x="276" y="387"/>
			<point x="289" y="389" type="curve" smooth="yes"/>
			<point x="317" y="395"/>
			<point x="343" y="401"/>
			<point x="366" y="408" type="curve" smooth="yes"/>
			<point x="391" y="416"/>
			<point x="425" y="437"/>
			<point x="425" y="495" type="curve" smooth="yes"/>
			<point x="425" y="540"/>
			<point x="370" y="563"/>
		</contour>
		<contour>
			<point x="280" y="116" type="curve"/>
			<point x="288" y="115"/>
			<point x="294" y="115"/>
			<point x="300" y="115" type="curve" smooth="yes"/>
			<point x="369" y="117"/>
			<point x="410" y="148"/>
			<point x="410" y="197" type="curve" smooth="yes"/>
			<point x="410" y="237"/>
			<point x="386" y="267"/>
			<point x="341" y="267" type="curve" smooth="yes"/>
			<point x="302" y="267"/>
			<point x="265" y="249"/>
			<point x="265" y="184" type="curve" smooth="yes"/>
			<point x="265" y="160"/>
			<point x="270" y="137"/>
		</contour>
		<contour>
			<point x="301" y="88" type="curve" smooth="yes"/>
			<point x="297" y="88" type="line"/>
			<point x="303" y="79"/>
			<point x="311" y="70"/>
			<point x="318" y="64" type="curve" smooth="yes"/>
			<point x="330" y="52"/>
			<point x="342" y="43"/>
			<point x="357" y="34" type="curve"/>
			<point x="444" y="52"/>
			<point x="504" y="112"/>
			<point x="504" y="204" type="curve" smooth="yes"/>
			<point x="504" y="342"/>
			<point x="385" y="361"/>
			<point x="315" y="361" type="curve" smooth="yes"/>
			<point x="308" y="361"/>
			<point x="301" y="361"/>
			<point x="294" y="360" type="curve" smooth="yes"/>
			<point x="293" y="360"/>
			<point x="291" y="360"/>
			<point x="290" y="359" type="curve"/>
			<point x="279" y="358"/>
			<point x="267" y="356"/>
			<point x="257" y="353" type="curve" smooth="yes"/>
			<point x="229" y="344"/>
			<point x="204" y="328"/>
			<point x="186" y="308" type="curve" smooth="yes"/>
			<point x="164" y="284"/>
			<point x="153" y="254"/>
			<point x="156" y="224" type="curve" smooth="yes"/>
			<point x="163" y="157"/>
			<point x="207" y="130"/>
			<point x="248" y="121" type="curve"/>
			<point x="241" y="141"/>
			<point x="237" y="161"/>
			<point x="237" y="183" type="curve" smooth="yes"/>
			<point x="237" y="253"/>
			<point x="277" y="296"/>
			<point x="342" y="296" type="curve" smooth="yes"/>
			<point x="399" y="296"/>
			<point x="438" y="253"/>
			<point x="438" y="196" type="curve" smooth="yes"/>
			<point x="438" y="133"/>
			<point x="384" y="88"/>
		</contour>
		<contour>
			<point x="164" y="324" type="curve"/>
			<point x="107" y="300"/>
			<point x="66" y="260"/>
			<point x="69" y="181" type="curve" smooth="yes"/>
			<point x="71" y="64"/>
			<point x="215" y="25"/>
			<point x="282" y="25" type="curve" smooth="yes"/>
			<point x="294" y="25"/>
			<point x="306" y="25"/>
			<point x="317" y="27" type="curve"/>
			<point x="300" y="43" type="line" smooth="yes"/>
			<point x="285" y="58"/>
			<point x="272" y="73"/>
			<point x="263" y="90" type="curve"/>
			<point x="185" y="100"/>
			<point x="135" y="147"/>
			<point x="128" y="221" type="curve" smooth="yes"/>
			<point x="125" y="258"/>
			<point x="137" y="295"/>
		</contour>
		<contour>
			<point x="604" y="-57" type="curve" smooth="yes"/>
			<point x="506" y="-57"/>
			<point x="417" y="-35"/>
			<point x="351" y="4" type="curve"/>
			<point x="329" y="0"/>
			<point x="306" y="-2"/>
			<point x="282" y="-2" type="curve" smooth="yes"/>
			<point x="184" y="-2"/>
			<point x="44" y="55"/>
			<point x="40" y="180" type="curve" smooth="yes"/>
			<point x="36" y="302"/>
			<point x="122" y="346"/>
			<point x="213" y="370" type="curve"/>
			<point x="182" y="393"/>
			<point x="166" y="425"/>
			<point x="166" y="464" type="curve" smooth="yes"/>
			<point x="166" y="545"/>
			<point x="241" y="592"/>
			<point x="326" y="592" type="curve" smooth="yes"/>
			<point x="388" y="592"/>
			<point x="454" y="554"/>
			<point x="454" y="483" type="curve" smooth="yes"/>
			<point x="454" y="437"/>
			<point x="427" y="401"/>
			<point x="382" y="383" type="curve"/>
			<point x="478" y="363"/>
			<point x="531" y="301"/>
			<point x="531" y="202" type="curve" smooth="yes"/>
			<point x="531" y="106"/>
			<point x="470" y="40"/>
			<point x="390" y="15" type="curve"/>
			<point x="451" y="-15"/>
			<point x="528" y="-30"/>
			<point x="613" y="-30" type="curve" smooth="yes"/>
			<point x="623" y="-30"/>
			<point x="633" y="-29"/>
			<point x="643" y="-29" type="curve"/>
			<point x="645" y="-56" type="line"/>
			<point x="631" y="-56"/>
			<point x="617" y="-57"/>
		</contour>
	</outline>
</glyph>
<glyph name="nine" format="2">
	<advance width="795"/>
	<unicode hex="0039"/>
	<outline>
		<contour>
			<point x="487" y="419" type="curve"/>
			<point x="476" y="419" type="line"/>
			<point x="424" y="419"/>
			<point x="387" y="386"/>
			<point x="387" y="338" type="curve" smooth="yes"/>
			<point x="387" y="300"/>
			<point x="417" y="280"/>
			<point x="446" y="280" type="curve" smooth="yes"/>
			<point x="479" y="280"/>
			<point x="500" y="305"/>
			<point x="502" y="348" type="curve" smooth="yes"/>
			<point x="505" y="373"/>
			<point x="499" y="397"/>
		</contour>
		<contour>
			<point x="343" y="508" type="curve"/>
			<point x="302" y="474"/>
			<point x="276" y="419"/>
			<point x="276" y="355" type="curve" smooth="yes"/>
			<point x="276" y="258"/>
			<point x="341" y="190"/>
			<point x="438" y="190" type="curve" smooth="yes"/>
			<point x="565" y="190"/>
			<point x="575" y="299"/>
			<point x="575" y="321" type="curve" smooth="yes"/>
			<point x="575" y="361"/>
			<point x="552" y="393"/>
			<point x="521" y="409" type="curve"/>
			<point x="528" y="389"/>
			<point x="530" y="368"/>
			<point x="530" y="345" type="curve" smooth="yes"/>
			<point x="530" y="276"/>
			<point x="483" y="252"/>
			<point x="446" y="252" type="curve" smooth="yes"/>
			<point x="404" y="252"/>
			<point x="361" y="284"/>
			<point x="361" y="338" type="curve" smooth="yes"/>
			<point x="361" y="399"/>
			<point x="404" y="442"/>
			<point x="469" y="445" type="curve"/>
			<point x="438" y="478"/>
			<point x="397" y="500"/>
		</contour>
		<contour>
			<point x="104" y="-173" type="curve" smooth="yes"/>
			<point x="73" y="-173"/>
			<point x="42" y="-172"/>
			<point x="10" y="-170" type="curve"/>
			<point x="12" y="-142" type="line"/>
			<point x="46" y="-144"/>
			<point x="79" y="-145"/>
			<point x="110" y="-145" type="curve" smooth="yes"/>
			<point x="253" y="-145"/>
			<point x="367" y="-124"/>
			<point x="448" y="-83" type="curve" smooth="yes"/>
			<point x="586" y="-11"/>
			<point x="699" y="138"/>
			<point x="699" y="304" type="curve" smooth="yes"/>
			<point x="699" y="404"/>
			<point x="642" y="552"/>
			<point x="488" y="552" type="curve" smooth="yes"/>
			<point x="444" y="552"/>
			<point x="404" y="544"/>
			<point x="372" y="527" type="curve"/>
			<point x="432" y="513"/>
			<point x="476" y="482"/>
			<point x="505" y="443" type="curve"/>
			<point x="560" y="430"/>
			<point x="603" y="386"/>
			<point x="603" y="321" type="curve" smooth="yes"/>
			<point x="603" y="249"/>
			<point x="556" y="164"/>
			<point x="438" y="164" type="curve" smooth="yes"/>
			<point x="327" y="164"/>
			<point x="249" y="244"/>
			<point x="249" y="355" type="curve" smooth="yes"/>
			<point x="249" y="417"/>
			<point x="269" y="470"/>
			<point x="306" y="509" type="curve"/>
			<point x="288" y="509" type="line" smooth="yes"/>
			<point x="211" y="509"/>
			<point x="104" y="472"/>
			<point x="104" y="393" type="curve" smooth="yes"/>
			<point x="104" y="343"/>
			<point x="128" y="319"/>
			<point x="128" y="318" type="curve"/>
			<point x="110" y="299" type="line"/>
			<point x="108" y="300"/>
			<point x="77" y="332"/>
			<point x="77" y="393" type="curve" smooth="yes"/>
			<point x="77" y="462"/>
			<point x="151" y="535"/>
			<point x="288" y="535" type="curve" smooth="yes"/>
			<point x="303" y="535"/>
			<point x="318" y="534"/>
			<point x="333" y="533" type="curve"/>
			<point x="373" y="563"/>
			<point x="426" y="580"/>
			<point x="488" y="580" type="curve" smooth="yes"/>
			<point x="645" y="580"/>
			<point x="725" y="442"/>
			<point x="725" y="302" type="curve" smooth="yes"/>
			<point x="725" y="129"/>
			<point x="606" y="-31"/>
			<point x="460" y="-107" type="curve" smooth="yes"/>
			<point x="375" y="-150"/>
			<point x="256" y="-173"/>
		</contour>
	</outline>
</glyph>
<glyph name="colon" format="2">
	<advance width="250"/>
	<unicode hex="003A"/>
	<outline>
		<contour>
			<point x="187" y="-6" type="curve"/>
			<point x="164" y="7" type="line"/>
			<point x="176" y="21"/>
			<point x="184" y="40"/>
			<point x="184" y="59" type="curve" smooth="yes"/>
			<point x="184" y="93"/>
			<point x="157" y="119"/>
			<point x="122" y="119" type="curve" smooth="yes"/>
			<point x="96" y="119"/>
			<point x="66" y="105"/>
			<point x="66" y="67" type="curve" smooth="yes"/>
			<point x="66" y="44"/>
			<point x="82" y="25"/>
			<point x="108" y="25" type="curve" smooth="yes"/>
			<point x="131" y="25"/>
			<point x="140" y="40"/>
			<point x="140" y="52" type="curve" smooth="yes"/>
			<point x="140" y="70"/>
			<point x="129" y="74"/>
			<point x="123" y="74" type="curve" smooth="yes"/>
			<point x="112" y="74"/>
			<point x="107" y="65"/>
			<point x="110" y="52" type="curve"/>
			<point x="86" y="52" type="line"/>
			<point x="78" y="76"/>
			<point x="94" y="99"/>
			<point x="122" y="99" type="curve" smooth="yes"/>
			<point x="140" y="99"/>
			<point x="166" y="88"/>
			<point x="166" y="54" type="curve" smooth="yes"/>
			<point x="166" y="29"/>
			<point x="146" y="0"/>
			<point x="108" y="0" type="curve" smooth="yes"/>
			<point x="61" y="0"/>
			<point x="40" y="33"/>
			<point x="40" y="67" type="curve" smooth="yes"/>
			<point x="40" y="110"/>
			<point x="73" y="144"/>
			<point x="122" y="144" type="curve" smooth="yes"/>
			<point x="164" y="144"/>
			<point x="210" y="116"/>
			<point x="210" y="59" type="curve" smooth="yes"/>
			<point x="210" y="30"/>
			<point x="198" y="7"/>
		</contour>
		<contour>
			<point x="187" y="344" type="curve"/>
			<point x="164" y="357" type="line"/>
			<point x="176" y="371"/>
			<point x="184" y="390"/>
			<point x="184" y="409" type="curve" smooth="yes"/>
			<point x="184" y="443"/>
			<point x="157" y="469"/>
			<point x="122" y="469" type="curve" smooth="yes"/>
			<point x="96" y="469"/>
			<point x="66" y="455"/>
			<point x="66" y="417" type="curve" smooth="yes"/>
			<point x="66" y="394"/>
			<point x="82" y="375"/>
			<point x="108" y="375" type="curve" smooth="yes"/>
			<point x="131" y="375"/>
			<point x="140" y="390"/>
			<point x="140" y="402" type="curve" smooth="yes"/>
			<point x="140" y="420"/>
			<point x="129" y="424"/>
			<point x="123" y="424" type="curve" smooth="yes"/>
			<point x="112" y="424"/>
			<point x="107" y="415"/>
			<point x="110" y="402" type="curve"/>
			<point x="86" y="402" type="line"/>
			<point x="78" y="426"/>
			<point x="94" y="449"/>
			<point x="122" y="449" type="curve" smooth="yes"/>
			<point x="140" y="449"/>
			<point x="166" y="438"/>
			<point x="166" y="404" type="curve" smooth="yes"/>
			<point x="166" y="379"/>
			<point x="146" y="350"/>
			<point x="108" y="350" type="curve" smooth="yes"/>
			<point x="61" y="350"/>
			<point x="40" y="383"/>
			<point x="40" y="417" type="curve" smooth="yes"/>
			<point x="40" y="460"/>
			<point x="73" y="494"/>
			<point x="122" y="494" type="curve" smooth="yes"/>
			<point x="164" y="494"/>
			<point x="210" y="466"/>
			<point x="210" y="409" type="curve" smooth="yes"/>
			<point x="210" y="380"/>
			<point x="198" y="357"/>
		</contour>
	</outline>
</glyph>
<glyph name="semicolon" format="2">
	<advance width="256"/>
	<unicode hex="003B"/>
	<outline>
		<contour>
			<point x="196" y="344" type="curve"/>
			<point x="173" y="357" type="line"/>
			<point x="185" y="371"/>
			<point x="193" y="390"/>
			<point x="193" y="409" type="curve" smooth="yes"/>
			<point x="193" y="443"/>
			<point x="166" y="469"/>
			<point x="131" y="469" type="curve" smooth="yes"/>
			<point x="105" y="469"/>
			<point x="75" y="455"/>
			<point x="75" y="417" type="curve" smooth="yes"/>
			<point x="75" y="394"/>
			<point x="91" y="375"/>
			<point x="117" y="375" type="curve" smooth="yes"/>
			<point x="140" y="375"/>
			<point x="149" y="390"/>
			<point x="149" y="402" type="curve" smooth="yes"/>
			<point x="149" y="420"/>
			<point x="138" y="424"/>
			<point x="132" y="424" type="curve" smooth="yes"/>
			<point x="121" y="424"/>
			<point x="116" y="415"/>
			<point x="119" y="402" type="curve"/>
			<point x="95" y="402" type="line"/>
			<point x="87" y="426"/>
			<point x="103" y="449"/>
			<point x="131" y="449" type="curve" smooth="yes"/>
			<point x="149" y="449"/>
			<point x="175" y="438"/>
			<point x="175" y="404" type="curve" smooth="yes"/>
			<point x="175" y="379"/>
			<point x="155" y="350"/>
			<point x="117" y="350" type="curve" smooth="yes"/>
			<point x="70" y="350"/>
			<point x="49" y="383"/>
			<point x="49" y="417" type="curve" smooth="yes"/>
			<point x="49" y="460"/>
			<point x="82" y="494"/>
			<point x="131" y="494" type="curve" smooth="yes"/>
			<point x="173" y="494"/>
			<point x="219" y="466"/>
			<point x="219" y="409" type="curve" smooth="yes"/>
			<point x="219" y="380"/>
			<point x="207" y="357"/>
		</contour>
		<contour>
			<point x="79" y="-96" type="curve"/>
			<point x="72" y="-71" type="line"/>
			<point x="160" y="-62"/>
			<point x="190" y="-11"/>
			<point x="190" y="47" type="curve" smooth="yes"/>
			<point x="190" y="95"/>
			<point x="162" y="119"/>
			<point x="126" y="119" type="curve" smooth="yes"/>
			<point x="98" y="119"/>
			<point x="66" y="105"/>
			<point x="66" y="67" type="curve" smooth="yes"/>
			<point x="66" y="46"/>
			<point x="77" y="25"/>
			<point x="113" y="25" type="curve" smooth="yes"/>
			<point x="136" y="25"/>
			<point x="145" y="40"/>
			<point x="145" y="52" type="curve" smooth="yes"/>
			<point x="145" y="70"/>
			<point x="134" y="74"/>
			<point x="128" y="74" type="curve" smooth="yes"/>
			<point x="117" y="74"/>
			<point x="110" y="63"/>
			<point x="111" y="52" type="curve"/>
			<point x="85" y="52" type="line"/>
			<point x="82" y="80"/>
			<point x="99" y="99"/>
			<point x="127" y="99" type="curve" smooth="yes"/>
			<point x="145" y="99"/>
			<point x="171" y="88"/>
			<point x="171" y="54" type="curve" smooth="yes"/>
			<point x="171" y="29"/>
			<point x="151" y="0"/>
			<point x="109" y="0" type="curve" smooth="yes"/>
			<point x="64" y="0"/>
			<point x="40" y="35"/>
			<point x="40" y="67" type="curve" smooth="yes"/>
			<point x="40" y="110"/>
			<point x="75" y="144"/>
			<point x="126" y="144" type="curve" smooth="yes"/>
			<point x="167" y="144"/>
			<point x="216" y="117"/>
			<point x="216" y="47" type="curve" smooth="yes"/>
			<point x="216" y="-45"/>
			<point x="147" y="-91"/>
		</contour>
	</outline>
</glyph>
<glyph name="question" format="2">
	<advance width="387"/>
	<unicode hex="003F"/>
	<outline>
		<contour>
			<point x="203" y="205" type="curve" smooth="yes"/>
			<point x="162" y="205"/>
			<point x="127" y="231"/>
			<point x="127" y="277" type="curve" smooth="yes"/>
			<point x="127" y="382"/>
			<point x="309" y="398"/>
			<point x="309" y="545" type="curve" smooth="yes"/>
			<point x="309" y="655"/>
			<point x="227" y="689"/>
			<point x="176" y="689" type="curve" smooth="yes"/>
			<point x="108" y="689"/>
			<point x="56" y="641"/>
			<point x="56" y="580" type="curve" smooth="yes"/>
			<point x="56" y="512"/>
			<point x="100" y="486"/>
			<point x="145" y="486" type="curve" smooth="yes"/>
			<point x="189" y="486"/>
			<point x="209" y="513"/>
			<point x="209" y="545" type="curve" smooth="yes"/>
			<point x="209" y="592"/>
			<point x="161" y="596"/>
			<point x="135" y="581" type="curve"/>
			<point x="125" y="605" type="line"/>
			<point x="159" y="630"/>
			<point x="237" y="616"/>
			<point x="237" y="545" type="curve" smooth="yes"/>
			<point x="237" y="496"/>
			<point x="198" y="459"/>
			<point x="145" y="459" type="curve" smooth="yes"/>
			<point x="103" y="459"/>
			<point x="28" y="486"/>
			<point x="28" y="580" type="curve" smooth="yes"/>
			<point x="28" y="636"/>
			<point x="73" y="716"/>
			<point x="176" y="716" type="curve" smooth="yes"/>
			<point x="285" y="716"/>
			<point x="337" y="638"/>
			<point x="337" y="545" type="curve" smooth="yes"/>
			<point x="337" y="383"/>
			<point x="155" y="363"/>
			<point x="155" y="277" type="curve" smooth="yes"/>
			<point x="155" y="255"/>
			<point x="169" y="232"/>
			<point x="200" y="232" type="curve" smooth="yes"/>
			<point x="234" y="232"/>
			<point x="245" y="262"/>
			<point x="250" y="278" type="curve"/>
			<point x="274" y="270" type="line"/>
			<point x="267" y="239"/>
			<point x="244" y="205"/>
		</contour>
		<component base="period" xOffset="66"/>
	</outline>
</glyph>
<glyph name="backslash" format="2">
	<advance width="360"/>
	<unicode hex="005C"/>
	<outline>
		<contour>
			<point x="50" y="689" type="line"/>
			<point x="280" y="-96" type="line"/>
			<point x="310" y="-96" type="line"/>
			<point x="80" y="689" type="line"/>
		</contour>
	</outline>
</glyph>
<glyph name="uni0D82" format="2">
	<advance width="415"/>
	<unicode hex="0D82"/>
	<outline>
		<contour>
			<point x="208" y="95" type="curve" smooth="yes"/>
			<point x="308" y="95"/>
			<point x="375" y="168"/>
			<point x="375" y="261" type="curve" smooth="yes"/>
			<point x="375" y="351"/>
			<point x="308" y="425"/>
			<point x="208" y="425" type="curve" smooth="yes"/>
			<point x="107" y="425"/>
			<point x="40" y="351"/>
			<point x="40" y="261" type="curve" smooth="yes"/>
			<point x="40" y="168"/>
			<point x="107" y="95"/>
		</contour>
		<contour>
			<point x="208" y="122" type="curve" smooth="yes"/>
			<point x="122" y="122"/>
			<point x="68" y="180"/>
			<point x="68" y="261" type="curve" smooth="yes"/>
			<point x="68" y="340"/>
			<point x="122" y="398"/>
			<point x="208" y="398" type="curve" smooth="yes"/>
			<point x="293" y="398"/>
			<point x="347" y="340"/>
			<point x="347" y="261" type="curve" smooth="yes"/>
			<point x="347" y="180"/>
			<point x="293" y="122"/>
		</contour>
	</outline>
</glyph>
<glyph name="uni0D83" format="2">
	<advance width="331"/>
	<unicode hex="0D83"/>
	<outline>
		<contour>
			<point x="165" y="0" type="curve" smooth="yes"/>
			<point x="222" y="0"/>
			<point x="266" y="43"/>
			<point x="266" y="97" type="curve" smooth="yes"/>
			<point x="266" y="158"/>
			<point x="225" y="200"/>
			<point x="165" y="200" type="curve" smooth="yes"/>
			<point x="110" y="200"/>
			<point x="65" y="153"/>
			<point x="65" y="97" type="curve" smooth="yes"/>
			<point x="65" y="44"/>
			<point x="110" y="0"/>
		</contour>
		<contour>
			<point x="165" y="27" type="curve" smooth="yes"/>
			<point x="124" y="27"/>
			<point x="93" y="57"/>
			<point x="93" y="97" type="curve" smooth="yes"/>
			<point x="93" y="141"/>
			<point x="124" y="173"/>
			<point x="165" y="173" type="curve" smooth="yes"/>
			<point x="208" y="173"/>
			<point x="238" y="142"/>
			<point x="238" y="97" type="curve" smooth="yes"/>
			<point x="238" y="58"/>
			<point x="205" y="27"/>
		</contour>
		<contour>
			<point x="165" y="317" type="curve" smooth="yes"/>
			<point x="222" y="317"/>
			<point x="266" y="360"/>
			<point x="266" y="414" type="curve" smooth="yes"/>
			<point x="266" y="475"/>
			<point x="225" y="517"/>
			<point x="165" y="517" type="curve" smooth="yes"/>
			<point x="110" y="517"/>
			<point x="65" y="470"/>
			<point x="65" y="414" type="curve" smooth="yes"/>
			<point x="65" y="361"/>
			<point x="110" y="317"/>
		</contour>
		<contour>
			<point x="165" y="344" type="curve" smooth="yes"/>
			<point x="124" y="344"/>
			<point x="93" y="374"/>
			<point x="93" y="414" type="curve" smooth="yes"/>
			<point x="93" y="458"/>
			<point x="124" y="490"/>
			<point x="165" y="490" type="curve" smooth="yes"/>
			<point x="208" y="490"/>
			<point x="238" y="459"/>
			<point x="238" y="414" type="curve" smooth="yes"/>
			<point x="238" y="375"/>
			<point x="205" y="344"/>
		</contour>
	</outline>
</glyph>
<glyph name="uni0D85" format="2">
	<advance width="749"/>
	<unicode hex="0D85"/>
	<outline>
		<contour>
			<point x="635" y="456" type="curve" smooth="yes"/>
			<point x="625" y="456"/>
			<point x="604" y="447"/>
			<point x="604" y="424" type="curve" smooth="yes"/>
			<point x="604" y="407"/>
			<point x="617" y="394"/>
			<point x="635" y="394" type="curve" smooth="yes"/>
			<point x="647" y="394"/>
			<point x="664" y="404"/>
			<point x="664" y="424" type="curve" smooth="yes"/>
			<point x="664" y="448"/>
			<point x="647" y="456"/>
		</contour>
		<contour>
			<point x="635" y="368" type="curve" smooth="yes"/>
			<point x="601" y="368"/>
			<point x="577" y="395"/>
			<point x="577" y="424" type="curve" smooth="yes"/>
			<point x="577" y="455"/>
			<point x="604" y="481"/>
			<point x="635" y="481" type="curve" smooth="yes"/>
			<point x="668" y="481"/>
			<point x="690" y="459"/>
			<point x="690" y="424" type="curve" smooth="yes"/>
			<point x="690" y="388"/>
			<point x="661" y="368"/>
		</contour>
		<contour>
			<point x="177" y="124" type="curve" smooth="yes"/>
			<point x="177" y="264"/>
			<point x="425" y="305"/>
			<point x="425" y="402" type="curve" smooth="yes"/>
			<point x="425" y="445"/>
			<point x="385" y="471"/>
			<point x="358" y="471" type="curve" smooth="yes"/>
			<point x="326" y="471"/>
			<point x="295" y="454"/>
			<point x="274" y="441" type="curve"/>
			<point x="297" y="420"/>
			<point x="309" y="389"/>
			<point x="308" y="353" type="curve" smooth="yes"/>
			<point x="307" y="337"/>
			<point x="290" y="280"/>
			<point x="248" y="280" type="curve" smooth="yes"/>
			<point x="206" y="280"/>
			<point x="185" y="309"/>
			<point x="188" y="353" type="curve" smooth="yes"/>
			<point x="190" y="381"/>
			<point x="204" y="408"/>
			<point x="225" y="431" type="curve"/>
			<point x="139" y="431"/>
			<point x="51" y="353"/>
			<point x="48" y="295" type="curve"/>
			<point x="20" y="297" type="line"/>
			<point x="24" y="363"/>
			<point x="121" y="458"/>
			<point x="218" y="458" type="curve" smooth="yes"/>
			<point x="230" y="458"/>
			<point x="240" y="457"/>
			<point x="248" y="454" type="curve"/>
			<point x="273" y="475"/>
			<point x="317" y="498"/>
			<point x="359" y="498" type="curve" smooth="yes"/>
			<point x="412" y="498"/>
			<point x="452" y="454"/>
			<point x="452" y="400" type="curve" smooth="yes"/>
			<point x="452" y="290"/>
			<point x="205" y="248"/>
			<point x="205" y="124" type="curve" smooth="yes"/>
			<point x="205" y="68"/>
			<point x="271" y="27"/>
			<point x="372" y="27" type="curve" smooth="yes"/>
			<point x="503" y="27"/>
			<point x="626" y="83"/>
			<point x="693" y="149" type="curve"/>
			<point x="709" y="129" type="line"/>
			<point x="626" y="48"/>
			<point x="501" y="0"/>
			<point x="372" y="0" type="curve" smooth="yes"/>
			<point x="259" y="0"/>
			<point x="177" y="41"/>
		</contour>
		<contour>
			<point x="253" y="422" type="curve"/>
			<point x="231" y="401"/>
			<point x="217" y="375"/>
			<point x="215" y="351" type="curve" smooth="yes"/>
			<point x="213" y="324"/>
			<point x="220" y="303"/>
			<point x="245" y="303" type="curve" smooth="yes"/>
			<point x="269" y="303"/>
			<point x="281" y="328"/>
			<point x="281" y="353" type="curve" smooth="yes"/>
			<point x="281" y="383"/>
			<point x="273" y="406"/>
			<point x="256" y="419" type="curve"/>
			<point x="255" y="420"/>
			<point x="254" y="420"/>
		</contour>
		<contour>
			<point x="475" y="377" type="curve" smooth="yes"/>
			<point x="475" y="507"/>
			<point x="530" y="586"/>
			<point x="662" y="586" type="curve"/>
			<point x="661" y="558" type="line"/>
			<point x="530" y="558"/>
			<point x="503" y="464"/>
			<point x="503" y="385" type="curve" smooth="yes"/>
			<point x="503" y="280"/>
			<point x="540" y="18"/>
			<point x="540" y="-60" type="curve" smooth="yes"/>
			<point x="540" y="-286"/>
			<point x="465" y="-380"/>
			<point x="287" y="-417" type="curve"/>
			<point x="286" y="-389" type="line"/>
			<point x="453" y="-356"/>
			<point x="514" y="-250"/>
			<point x="514" y="-62" type="curve" smooth="yes"/>
			<point x="514" y="2"/>
			<point x="475" y="308"/>
		</contour>
	</outline>
</glyph>
<glyph name="uni0D89" format="2">
	<advance width="762"/>
	<unicode hex="0D89"/>
	<outline>
		<contour>
			<point x="385" y="-316" type="curve" smooth="yes"/>
			<point x="215" y="-316"/>
			<point x="91" y="-222"/>
			<point x="91" y="-91" type="curve" smooth="yes"/>
			<point x="91" y="-27"/>
			<point x="127" y="10"/>
			<point x="129" y="12" type="curve"/>
			<point x="149" y="-6" type="line"/>
			<point x="149" y="-6"/>
			<point x="120" y="-40"/>
			<point x="120" y="-91" type="curve" smooth="yes"/>
			<point x="120" y="-205"/>
			<point x="231" y="-288"/>
			<point x="385" y="-288" type="curve" smooth="yes"/>
			<point x="482" y="-288"/>
			<point x="592" y="-236"/>
			<point x="592" y="-160" type="curve" smooth="yes"/>
			<point x="592" y="-108"/>
			<point x="542" y="-76"/>
			<point x="455" y="-74" type="curve"/>
			<point x="456" y="-45" type="line"/>
			<point x="560" y="-48"/>
			<point x="621" y="-91"/>
			<point x="621" y="-160" type="curve" smooth="yes"/>
			<point x="621" y="-253"/>
			<point x="499" y="-316"/>
		</contour>
		<contour>
			<point x="45" y="193" type="curve"/>
			<point x="20" y="206" type="line"/>
			<point x="66" y="294"/>
			<point x="174" y="365"/>
			<point x="267" y="370" type="curve" smooth="yes"/>
			<point x="405" y="378"/>
			<point x="481" y="298"/>
			<point x="481" y="216" type="curve" smooth="yes"/>
			<point x="481" y="172"/>
			<point x="453" y="133"/>
			<point x="403" y="133" type="curve" smooth="yes"/>
			<point x="360" y="133"/>
			<point x="323" y="163"/>
			<point x="323" y="216" type="curve" smooth="yes"/>
			<point x="323" y="305"/>
			<point x="400" y="354"/>
			<point x="454" y="354" type="curve" smooth="yes"/>
			<point x="551" y="354"/>
			<point x="604" y="284"/>
			<point x="604" y="200" type="curve" smooth="yes"/>
			<point x="604" y="122"/>
			<point x="551" y="13"/>
			<point x="395" y="13" type="curve" smooth="yes"/>
			<point x="296" y="13"/>
			<point x="166" y="94"/>
			<point x="166" y="252" type="curve" smooth="yes"/>
			<point x="166" y="383"/>
			<point x="287" y="507"/>
			<point x="444" y="507" type="curve" smooth="yes"/>
			<point x="610" y="507"/>
			<point x="722" y="387"/>
			<point x="722" y="208" type="curve" smooth="yes"/>
			<point x="722" y="11"/>
			<point x="546" y="-77"/>
			<point x="421" y="-77" type="curve" smooth="yes"/>
			<point x="303" y="-77"/>
			<point x="236" y="-14"/>
			<point x="233" y="-11" type="curve"/>
			<point x="252" y="10" type="line"/>
			<point x="252" y="9"/>
			<point x="315" y="-48"/>
			<point x="421" y="-48" type="curve" smooth="yes"/>
			<point x="534" y="-48"/>
			<point x="694" y="30"/>
			<point x="694" y="208" type="curve" smooth="yes"/>
			<point x="694" y="370"/>
			<point x="594" y="480"/>
			<point x="444" y="480" type="curve" smooth="yes"/>
			<point x="303" y="480"/>
			<point x="194" y="376"/>
			<point x="194" y="252" type="curve" smooth="yes"/>
			<point x="194" y="105"/>
			<point x="316" y="40"/>
			<point x="395" y="40" type="curve" smooth="yes"/>
			<point x="530" y="40"/>
			<point x="576" y="136"/>
			<point x="576" y="200" type="curve" smooth="yes"/>
			<point x="576" y="272"/>
			<point x="522" y="326"/>
			<point x="456" y="326" type="curve" smooth="yes"/>
			<point x="387" y="326"/>
			<point x="349" y="257"/>
			<point x="351" y="218" type="curve" smooth="yes"/>
			<point x="353" y="175"/>
			<point x="379" y="161"/>
			<point x="404" y="161" type="curve" smooth="yes"/>
			<point x="431" y="161"/>
			<point x="453" y="183"/>
			<point x="453" y="215" type="curve" smooth="yes"/>
			<point x="454" y="293"/>
			<point x="372" y="349"/>
			<point x="267" y="343" type="curve" smooth="yes"/>
			<point x="184" y="338"/>
			<point x="83" y="269"/>
		</contour>
	</outline>
</glyph>
<glyph name="uni0D8A" format="2">
	<advance width="680"/>
	<unicode hex="0D8A"/>
	<outline>
		<contour>
			<point x="465" y="706" type="curve" smooth="yes"/>
			<point x="455" y="706"/>
			<point x="434" y="697"/>
			<point x="434" y="674" type="curve" smooth="yes"/>
			<point x="434" y="657"/>
			<point x="447" y="644"/>
			<point x="465" y="644" type="curve" smooth="yes"/>
			<point x="477" y="644"/>
			<point x="494" y="654"/>
			<point x="494" y="674" type="curve" smooth="yes"/>
			<point x="494" y="698"/>
			<point x="477" y="706"/>
		</contour>
		<contour>
			<point x="465" y="618" type="curve" smooth="yes"/>
			<point x="431" y="618"/>
			<point x="407" y="645"/>
			<point x="407" y="674" type="curve" smooth="yes"/>
			<point x="407" y="705"/>
			<point x="434" y="731"/>
			<point x="465" y="731" type="curve" smooth="yes"/>
			<point x="498" y="731"/>
			<point x="520" y="709"/>
			<point x="520" y="674" type="curve" smooth="yes"/>
			<point x="520" y="638"/>
			<point x="491" y="618"/>
		</contour>
		<contour>
			<point x="185" y="820" type="curve" smooth="yes"/>
			<point x="175" y="820"/>
			<point x="154" y="811"/>
			<point x="154" y="788" type="curve" smooth="yes"/>
			<point x="154" y="771"/>
			<point x="167" y="758"/>
			<point x="185" y="758" type="curve" smooth="yes"/>
			<point x="197" y="758"/>
			<point x="214" y="768"/>
			<point x="214" y="788" type="curve" smooth="yes"/>
			<point x="214" y="812"/>
			<point x="197" y="820"/>
		</contour>
		<contour>
			<point x="185" y="732" type="curve" smooth="yes"/>
			<point x="151" y="732"/>
			<point x="127" y="759"/>
			<point x="127" y="788" type="curve" smooth="yes"/>
			<point x="127" y="819"/>
			<point x="154" y="845"/>
			<point x="185" y="845" type="curve" smooth="yes"/>
			<point x="218" y="845"/>
			<point x="240" y="823"/>
			<point x="240" y="788" type="curve" smooth="yes"/>
			<point x="240" y="752"/>
			<point x="211" y="732"/>
		</contour>
		<component base="uni0DBB"/>
	</outline>
</glyph>
<glyph name="uni0D8B" format="2">
	<advance width="781"/>
	<unicode hex="0D8B"/>
	<outline>
		<contour>
			<point x="282" y="445" type="curve"/>
			<point x="257" y="419"/>
			<point x="244" y="389"/>
			<point x="244" y="363" type="curve" smooth="yes"/>
			<point x="244" y="340"/>
			<point x="251" y="320"/>
			<point x="273" y="320" type="curve" smooth="yes"/>
			<point x="300" y="320"/>
			<point x="313" y="346"/>
			<point x="313" y="373" type="curve" smooth="yes"/>
			<point x="313" y="404"/>
			<point x="304" y="430"/>
			<point x="286" y="443" type="curve"/>
			<point x="285" y="443"/>
			<point x="284" y="445"/>
		</contour>
		<contour>
			<point x="349" y="-296" type="curve" smooth="yes"/>
			<point x="195" y="-296"/>
			<point x="42" y="-220"/>
			<point x="42" y="-44" type="curve" smooth="yes"/>
			<point x="42" y="130"/>
			<point x="202" y="217"/>
			<point x="336" y="278" type="curve" smooth="yes"/>
			<point x="424" y="319"/>
			<point x="499" y="352"/>
			<point x="499" y="417" type="curve" smooth="yes"/>
			<point x="499" y="466"/>
			<point x="459" y="498"/>
			<point x="401" y="498" type="curve" smooth="yes"/>
			<point x="365" y="498"/>
			<point x="330" y="482"/>
			<point x="306" y="463" type="curve"/>
			<point x="329" y="445"/>
			<point x="342" y="411"/>
			<point x="342" y="373" type="curve" smooth="yes"/>
			<point x="342" y="330"/>
			<point x="316" y="294"/>
			<point x="273" y="294" type="curve" smooth="yes"/>
			<point x="232" y="294"/>
			<point x="218" y="322"/>
			<point x="218" y="361" type="curve" smooth="yes"/>
			<point x="218" y="391"/>
			<point x="230" y="426"/>
			<point x="254" y="456" type="curve"/>
			<point x="161" y="456"/>
			<point x="73" y="368"/>
			<point x="68" y="314" type="curve"/>
			<point x="40" y="316" type="line"/>
			<point x="44" y="370"/>
			<point x="134" y="483"/>
			<point x="247" y="483" type="curve" smooth="yes"/>
			<point x="259" y="483"/>
			<point x="269" y="482"/>
			<point x="278" y="479" type="curve"/>
			<point x="313" y="506"/>
			<point x="354" y="527"/>
			<point x="400" y="527" type="curve" smooth="yes"/>
			<point x="476" y="526"/>
			<point x="529" y="489"/>
			<point x="529" y="417" type="curve" smooth="yes"/>
			<point x="529" y="329"/>
			<point x="447" y="296"/>
			<point x="347" y="251" type="curve" smooth="yes"/>
			<point x="217" y="192"/>
			<point x="71" y="112"/>
			<point x="71" y="-43" type="curve" smooth="yes"/>
			<point x="71" y="-203"/>
			<point x="210" y="-269"/>
			<point x="349" y="-269" type="curve" smooth="yes"/>
			<point x="567" y="-269"/>
			<point x="713" y="-99"/>
			<point x="713" y="87" type="curve" smooth="yes"/>
			<point x="713" y="130"/>
			<point x="705" y="175"/>
			<point x="688" y="218" type="curve"/>
			<point x="713" y="230" type="line"/>
			<point x="732" y="183"/>
			<point x="741" y="134"/>
			<point x="741" y="86" type="curve" smooth="yes"/>
			<point x="741" y="-112"/>
			<point x="589" y="-296"/>
		</contour>
	</outline>
</glyph>
<glyph name="uni0D8C" format="2">
	<advance width="965"/>
	<unicode hex="0D8C"/>
	<outline>
		<contour>
			<point x="282" y="445" type="curve"/>
			<point x="257" y="419"/>
			<point x="244" y="389"/>
			<point x="244" y="363" type="curve" smooth="yes"/>
			<point x="244" y="340"/>
			<point x="251" y="320"/>
			<point x="273" y="320" type="curve" smooth="yes"/>
			<point x="300" y="320"/>
			<point x="313" y="346"/>
			<point x="313" y="373" type="curve" smooth="yes"/>
			<point x="313" y="404"/>
			<point x="304" y="430"/>
			<point x="286" y="443" type="curve"/>
			<point x="285" y="443"/>
			<point x="284" y="445"/>
		</contour>
		<contour>
			<point x="705" y="-91" type="curve"/>
			<point x="732" y="-102" type="line"/>
			<point x="669" y="-220"/>
			<point x="520" y="-296"/>
			<point x="391" y="-296" type="curve" smooth="yes"/>
			<point x="215" y="-296"/>
			<point x="42" y="-220"/>
			<point x="42" y="-44" type="curve" smooth="yes"/>
			<point x="42" y="130"/>
			<point x="202" y="217"/>
			<point x="336" y="278" type="curve" smooth="yes"/>
			<point x="424" y="319"/>
			<point x="499" y="352"/>
			<point x="499" y="417" type="curve" smooth="yes"/>
			<point x="499" y="466"/>
			<point x="459" y="498"/>
			<point x="401" y="498" type="curve" smooth="yes"/>
			<point x="365" y="498"/>
			<point x="330" y="482"/>
			<point x="306" y="463" type="curve"/>
			<point x="329" y="445"/>
			<point x="342" y="411"/>
			<point x="342" y="373" type="curve" smooth="yes"/>
			<point x="342" y="330"/>
			<point x="316" y="294"/>
			<point x="273" y="294" type="curve" smooth="yes"/>
			<point x="232" y="294"/>
			<point x="218" y="322"/>
			<point x="218" y="361" type="curve" smooth="yes"/>
			<point x="218" y="391"/>
			<point x="230" y="426"/>
			<point x="254" y="456" type="curve"/>
			<point x="161" y="456"/>
			<point x="73" y="368"/>
			<point x="68" y="314" type="curve"/>
			<point x="40" y="316" type="line"/>
			<point x="44" y="370"/>
			<point x="134" y="483"/>
			<point x="247" y="483" type="curve" smooth="yes"/>
			<point x="259" y="483"/>
			<point x="269" y="482"/>
			<point x="278" y="479" type="curve"/>
			<point x="313" y="506"/>
			<point x="354" y="527"/>
			<point x="400" y="527" type="curve" smooth="yes"/>
			<point x="476" y="526"/>
			<point x="529" y="489"/>
			<point x="529" y="417" type="curve" smooth="yes"/>
			<point x="529" y="329"/>
			<point x="447" y="296"/>
			<point x="347" y="251" type="curve" smooth="yes"/>
			<point x="217" y="192"/>
			<point x="71" y="112"/>
			<point x="71" y="-43" type="curve" smooth="yes"/>
			<point x="71" y="-203"/>
			<point x="230" y="-269"/>
			<point x="390" y="-269" type="curve" smooth="yes"/>
			<point x="507" y="-269"/>
			<point x="646" y="-200"/>
		</contour>
		<contour>
			<point x="924" y="149" type="curve" smooth="yes"/>
			<point x="924" y="3"/>
			<point x="797" y="-41"/>
			<point x="737" y="-41" type="curve" smooth="yes"/>
			<point x="664" y="-41"/>
			<point x="593" y="1"/>
			<point x="564" y="62" type="curve"/>
			<point x="586" y="73" type="line"/>
			<point x="612" y="21"/>
			<point x="674" y="-15"/>
			<point x="739" y="-15" type="curve" smooth="yes"/>
			<point x="802" y="-15"/>
			<point x="898" y="27"/>
			<point x="898" y="150" type="curve" smooth="yes"/>
			<point x="898" y="233"/>
			<point x="840" y="300"/>
			<point x="840" y="376" type="curve" smooth="yes"/>
			<point x="840" y="452"/>
			<point x="875" y="484"/>
			<point x="919" y="500" type="curve"/>
			<point x="925" y="481" type="line"/>
			<point x="888" y="465"/>
			<point x="864" y="431"/>
			<point x="864" y="378" type="curve" smooth="yes"/>
			<point x="864" y="314"/>
			<point x="924" y="225"/>
		</contour>
		<contour>
			<point x="744" y="355" type="curve" smooth="yes"/>
			<point x="730" y="355"/>
			<point x="717" y="348"/>
			<point x="708" y="340" type="curve"/>
			<point x="689" y="347" type="line"/>
			<point x="704" y="428"/>
			<point x="740" y="507"/>
			<point x="887" y="507" type="curve" smooth="yes"/>
			<point x="906" y="507"/>
			<point x="911" y="507"/>
			<point x="921" y="507" type="curve"/>
			<point x="925" y="481" type="line"/>
			<point x="914" y="481"/>
			<point x="896" y="482"/>
			<point x="886" y="482" type="curve" smooth="yes"/>
			<point x="769" y="482"/>
			<point x="737" y="429"/>
			<point x="721" y="376" type="curve"/>
			<point x="729" y="379"/>
			<point x="737" y="381"/>
			<point x="747" y="381" type="curve" smooth="yes"/>
			<point x="783" y="381"/>
			<point x="815" y="358"/>
			<point x="815" y="314" type="curve" smooth="yes"/>
			<point x="815" y="273"/>
			<point x="772" y="229"/>
			<point x="709" y="229" type="curve" smooth="yes"/>
			<point x="637" y="229"/>
			<point x="589" y="283"/>
			<point x="589" y="358" type="curve" smooth="yes"/>
			<point x="589" y="451"/>
			<point x="699" y="504"/>
			<point x="703" y="506" type="curve"/>
			<point x="714" y="482" type="line"/>
			<point x="713" y="482"/>
			<point x="615" y="434"/>
			<point x="615" y="358" type="curve" smooth="yes"/>
			<point x="615" y="288"/>
			<point x="661" y="256"/>
			<point x="709" y="256" type="curve" smooth="yes"/>
			<point x="759" y="256"/>
			<point x="788" y="291"/>
			<point x="788" y="314" type="curve" smooth="yes"/>
			<point x="788" y="342"/>
			<point x="769" y="355"/>
		</contour>
	</outline>
</glyph>
<glyph name="uni0D8D" format="2">
	<advance width="1257"/>
	<unicode hex="0D8D"/>
	<outline>
		<contour>
			<point x="290" y="295" type="curve" smooth="yes"/>
			<point x="348" y="334"/>
			<point x="417" y="366"/>
			<point x="417" y="412" type="curve" smooth="yes"/>
			<point x="417" y="465"/>
			<point x="374" y="480"/>
			<point x="335" y="480" type="curve" smooth="yes"/>
			<point x="289" y="480"/>
			<point x="222" y="452"/>
			<point x="222" y="374" type="curve" smooth="yes"/>
			<point x="222" y="357"/>
			<point x="233" y="330"/>
			<point x="260" y="330" type="curve" smooth="yes"/>
			<point x="280" y="330"/>
			<point x="287" y="351"/>
			<point x="287" y="373" type="curve" smooth="yes"/>
			<point x="287" y="420"/>
			<point x="212" y="449"/>
			<point x="170" y="449" type="curve" smooth="yes"/>
			<point x="94" y="449"/>
			<point x="44" y="396"/>
			<point x="44" y="342" type="curve" smooth="yes"/>
			<point x="44" y="334"/>
			<point x="46" y="330"/>
			<point x="46" y="329" type="curve"/>
			<point x="18" y="319" type="line"/>
			<point x="17" y="320"/>
			<point x="15" y="327"/>
			<point x="15" y="339" type="curve" smooth="yes"/>
			<point x="15" y="415"/>
			<point x="81" y="477"/>
			<point x="170" y="477" type="curve" smooth="yes"/>
			<point x="223" y="477"/>
			<point x="315" y="446"/>
			<point x="315" y="367" type="curve" smooth="yes"/>
			<point x="315" y="327"/>
			<point x="287" y="303"/>
			<point x="260" y="303" type="curve" smooth="yes"/>
			<point x="210" y="303"/>
			<point x="194" y="345"/>
			<point x="194" y="377" type="curve" smooth="yes"/>
			<point x="194" y="450"/>
			<point x="256" y="507"/>
			<point x="334" y="507" type="curve" smooth="yes"/>
			<point x="391" y="507"/>
			<point x="443" y="483"/>
			<point x="443" y="412" type="curve" smooth="yes"/>
			<point x="443" y="351"/>
			<point x="388" y="330"/>
			<point x="305" y="273" type="curve" smooth="yes"/>
			<point x="247" y="233"/>
			<point x="201" y="193"/>
			<point x="201" y="130" type="curve" smooth="yes"/>
			<point x="201" y="71"/>
			<point x="241" y="29"/>
			<point x="309" y="29" type="curve" smooth="yes"/>
			<point x="405" y="29"/>
			<point x="428" y="119"/>
			<point x="428" y="208" type="curve" smooth="yes"/>
			<point x="428" y="219" type="line"/>
			<point x="457" y="221" type="line"/>
			<point x="457" y="219" type="line" smooth="yes"/>
			<point x="457" y="95"/>
			<point x="527" y="27"/>
			<point x="607" y="27" type="curve" smooth="yes"/>
			<point x="678" y="27"/>
			<point x="724" y="65"/>
			<point x="724" y="136" type="curve" smooth="yes"/>
			<point x="724" y="208"/>
			<point x="656" y="234"/>
			<point x="582" y="279" type="curve"/>
			<point x="511" y="322"/>
			<point x="426" y="338"/>
			<point x="425" y="433" type="curve" smooth="yes"/>
			<point x="424" y="508"/>
			<point x="486" y="568"/>
			<point x="587" y="568" type="curve" smooth="yes"/>
			<point x="683" y="568"/>
			<point x="786" y="497"/>
			<point x="786" y="399" type="curve" smooth="yes"/>
			<point x="786" y="306"/>
			<point x="723" y="286"/>
			<point x="695" y="286" type="curve" smooth="yes"/>
			<point x="633" y="286"/>
			<point x="592" y="338"/>
			<point x="592" y="395" type="curve" smooth="yes"/>
			<point x="592" y="550"/>
			<point x="784" y="595"/>
			<point x="915" y="595" type="curve" smooth="yes"/>
			<point x="962" y="595"/>
			<point x="995" y="590"/>
			<point x="997" y="590" type="curve"/>
			<point x="994" y="564" type="line"/>
			<point x="993" y="564"/>
			<point x="965" y="568"/>
			<point x="914" y="568" type="curve" smooth="yes"/>
			<point x="800" y="568"/>
			<point x="620" y="529"/>
			<point x="620" y="396" type="curve" smooth="yes"/>
			<point x="620" y="350"/>
			<point x="648" y="314"/>
			<point x="695" y="314" type="curve" smooth="yes"/>
			<point x="744" y="314"/>
			<point x="760" y="366"/>
			<point x="760" y="391" type="curve" smooth="yes"/>
			<point x="760" y="482"/>
			<point x="659" y="541"/>
			<point x="590" y="541" type="curve" smooth="yes"/>
			<point x="529" y="541"/>
			<point x="454" y="507"/>
			<point x="454" y="433" type="curve" smooth="yes"/>
			<point x="454" y="354"/>
			<point x="530" y="343"/>
			<point x="597" y="302" type="curve"/>
			<point x="673" y="256"/>
			<point x="752" y="223"/>
			<point x="752" y="136" type="curve" smooth="yes"/>
			<point x="752" y="54"/>
			<point x="696" y="0"/>
			<point x="607" y="0" type="curve" smooth="yes"/>
			<point x="518" y="0"/>
			<point x="464" y="60"/>
			<point x="446" y="120" type="curve"/>
			<point x="432" y="48"/>
			<point x="387" y="0"/>
			<point x="309" y="0" type="curve" smooth="yes"/>
			<point x="231" y="0"/>
			<point x="173" y="51"/>
			<point x="173" y="129" type="curve" smooth="yes"/>
			<point x="173" y="202"/>
			<point x="223" y="250"/>
		</contour>
		<component base="uni0DD8" xOffset="783"/>
	</outline>
</glyph>
<glyph name="uni0D8F" format="2">
	<advance width="1035"/>
	<unicode hex="0D8F"/>
	<outline>
		<contour>
			<point x="272" y="490" type="curve"/>
			<point x="277" y="464" type="line"/>
			<point x="119" y="464"/>
			<point x="-27" y="227"/>
			<point x="156" y="20" type="curve"/>
			<point x="130" y="1" type="line"/>
			<point x="-65" y="230"/>
			<point x="91" y="490"/>
		</contour>
		<contour>
			<point x="967" y="262" type="curve" smooth="yes"/>
			<point x="967" y="416"/>
			<point x="900" y="516"/>
			<point x="802" y="516" type="curve" smooth="yes"/>
			<point x="770" y="516"/>
			<point x="714" y="485"/>
			<point x="714" y="431" type="curve" smooth="yes"/>
			<point x="714" y="412"/>
			<point x="732" y="387"/>
			<point x="763" y="387" type="curve" smooth="yes"/>
			<point x="786" y="387"/>
			<point x="811" y="409"/>
			<point x="811" y="442" type="curve" smooth="yes"/>
			<point x="811" y="505"/>
			<point x="751" y="543"/>
			<point x="675" y="543" type="curve" smooth="yes"/>
			<point x="635" y="543"/>
			<point x="566" y="517"/>
			<point x="566" y="457" type="curve" smooth="yes"/>
			<point x="566" y="407"/>
			<point x="613" y="377"/>
			<point x="675" y="354" type="curve" smooth="yes"/>
			<point x="751" y="325"/>
			<point x="829" y="313"/>
			<point x="829" y="215" type="curve" smooth="yes"/>
			<point x="829" y="58"/>
			<point x="671" y="0"/>
			<point x="536" y="0" type="curve" smooth="yes"/>
			<point x="371" y="0"/>
			<point x="264" y="71"/>
			<point x="264" y="162" type="curve" smooth="yes"/>
			<point x="264" y="245"/>
			<point x="328" y="283"/>
			<point x="394" y="314" type="curve"/>
			<point x="453" y="342"/>
			<point x="491" y="372"/>
			<point x="491" y="412" type="curve" smooth="yes"/>
			<point x="491" y="452"/>
			<point x="447" y="481"/>
			<point x="405" y="481" type="curve" smooth="yes"/>
			<point x="354" y="481"/>
			<point x="301" y="450"/>
			<point x="301" y="391" type="curve" smooth="yes"/>
			<point x="301" y="368"/>
			<point x="314" y="352"/>
			<point x="334" y="352" type="curve" smooth="yes"/>
			<point x="360" y="352"/>
			<point x="369" y="377"/>
			<point x="369" y="394" type="curve" smooth="yes"/>
			<point x="369" y="453"/>
			<point x="304" y="463"/>
			<point x="275" y="463" type="curve" smooth="yes"/>
			<point x="199" y="463"/>
			<point x="168" y="413"/>
			<point x="168" y="369" type="curve" smooth="yes"/>
			<point x="168" y="349"/>
			<point x="178" y="330"/>
			<point x="178" y="330" type="curve"/>
			<point x="153" y="318" type="line"/>
			<point x="152" y="319"/>
			<point x="141" y="340"/>
			<point x="141" y="369" type="curve" smooth="yes"/>
			<point x="141" y="424"/>
			<point x="178" y="490"/>
			<point x="275" y="490" type="curve" smooth="yes"/>
			<point x="325" y="490"/>
			<point x="398" y="469"/>
			<point x="398" y="399" type="curve" smooth="yes"/>
			<point x="398" y="358"/>
			<point x="378" y="324"/>
			<point x="334" y="324" type="curve" smooth="yes"/>
			<point x="308" y="324"/>
			<point x="274" y="344"/>
			<point x="274" y="390" type="curve" smooth="yes"/>
			<point x="274" y="462"/>
			<point x="331" y="508"/>
			<point x="401" y="508" type="curve" smooth="yes"/>
			<point x="459" y="508"/>
			<point x="519" y="472"/>
			<point x="519" y="417" type="curve" smooth="yes"/>
			<point x="519" y="356"/>
			<point x="466" y="319"/>
			<point x="406" y="290" type="curve"/>
			<point x="341" y="257"/>
			<point x="291" y="230"/>
			<point x="291" y="164" type="curve" smooth="yes"/>
			<point x="291" y="90"/>
			<point x="389" y="27"/>
			<point x="535" y="27" type="curve" smooth="yes"/>
			<point x="646" y="27"/>
			<point x="801" y="78"/>
			<point x="801" y="213" type="curve" smooth="yes"/>
			<point x="801" y="281"/>
			<point x="759" y="291"/>
			<point x="667" y="327" type="curve" smooth="yes"/>
			<point x="627" y="342"/>
			<point x="538" y="375"/>
			<point x="538" y="456" type="curve" smooth="yes"/>
			<point x="538" y="537"/>
			<point x="620" y="571"/>
			<point x="680" y="571" type="curve" smooth="yes"/>
			<point x="752" y="571"/>
			<point x="839" y="525"/>
			<point x="839" y="442" type="curve" smooth="yes"/>
			<point x="839" y="404"/>
			<point x="804" y="360"/>
			<point x="762" y="360" type="curve" smooth="yes"/>
			<point x="714" y="360"/>
			<point x="686" y="399"/>
			<point x="686" y="427" type="curve" smooth="yes"/>
			<point x="686" y="503"/>
			<point x="755" y="543"/>
			<point x="807" y="543" type="curve" smooth="yes"/>
			<point x="913" y="543"/>
			<point x="995" y="435"/>
			<point x="995" y="267" type="curve" smooth="yes"/>
			<point x="995" y="153"/>
			<point x="945" y="53"/>
			<point x="906" y="0" type="curve"/>
			<point x="880" y="15" type="line"/>
			<point x="916" y="62"/>
			<point x="967" y="160"/>
		</contour>
	</outline>
</glyph>
<glyph name="uni0D91" format="2">
	<advance width="840"/>
	<unicode hex="0D91"/>
	<outline>
		<contour>
			<point x="640" y="410" type="curve" smooth="yes"/>
			<point x="573" y="410"/>
			<point x="484" y="452"/>
			<point x="484" y="551" type="curve" smooth="yes"/>
			<point x="484" y="650"/>
			<point x="560" y="705"/>
			<point x="618" y="763" type="curve"/>
			<point x="637" y="744" type="line"/>
			<point x="576" y="683"/>
			<point x="510" y="636"/>
			<point x="510" y="551" type="curve" smooth="yes"/>
			<point x="510" y="482"/>
			<point x="572" y="436"/>
			<point x="641" y="436" type="curve" smooth="yes"/>
			<point x="713" y="436"/>
			<point x="755" y="476"/>
			<point x="783" y="507" type="curve"/>
			<point x="800" y="488" type="line"/>
			<point x="769" y="458"/>
			<point x="726" y="410"/>
		</contour>
		<contour>
			<point x="496" y="27" type="curve" smooth="yes"/>
			<point x="652" y="27"/>
			<point x="759" y="148"/>
			<point x="759" y="270" type="curve" smooth="yes"/>
			<point x="759" y="430"/>
			<point x="670" y="520"/>
			<point x="609" y="588" type="curve" smooth="yes"/>
			<point x="559" y="644"/>
			<point x="493" y="696"/>
			<point x="493" y="757" type="curve" smooth="yes"/>
			<point x="493" y="786"/>
			<point x="505" y="825"/>
			<point x="528" y="845" type="curve"/>
			<point x="546" y="825" type="line"/>
			<point x="528" y="811"/>
			<point x="520" y="779"/>
			<point x="520" y="757" type="curve" smooth="yes"/>
			<point x="520" y="706"/>
			<point x="581" y="660"/>
			<point x="629" y="606" type="curve" smooth="yes"/>
			<point x="692" y="534"/>
			<point x="785" y="440"/>
			<point x="785" y="270" type="curve" smooth="yes"/>
			<point x="785" y="129"/>
			<point x="667" y="0"/>
			<point x="496" y="0" type="curve" smooth="yes"/>
			<point x="363" y="0"/>
			<point x="270" y="67"/>
			<point x="270" y="160" type="curve" smooth="yes"/>
			<point x="270" y="250"/>
			<point x="345" y="263"/>
			<point x="406" y="304" type="curve" smooth="yes"/>
			<point x="438" y="326"/>
			<point x="481" y="345"/>
			<point x="481" y="406" type="curve" smooth="yes"/>
			<point x="481" y="425"/>
			<point x="466" y="479"/>
			<point x="387" y="479" type="curve" smooth="yes"/>
			<point x="348" y="479"/>
			<point x="340" y="469"/>
			<point x="324" y="460" type="curve"/>
			<point x="354" y="434"/>
			<point x="370" y="400"/>
			<point x="370" y="363" type="curve" smooth="yes"/>
			<point x="370" y="302"/>
			<point x="334" y="282"/>
			<point x="302" y="282" type="curve" smooth="yes"/>
			<point x="264" y="282"/>
			<point x="233" y="309"/>
			<point x="233" y="363" type="curve" smooth="yes"/>
			<point x="233" y="388"/>
			<point x="240" y="428"/>
			<point x="273" y="459" type="curve"/>
			<point x="252" y="466"/>
			<point x="239" y="470"/>
			<point x="200" y="470" type="curve" smooth="yes"/>
			<point x="108" y="470"/>
			<point x="47" y="401"/>
			<point x="47" y="316" type="curve" smooth="yes"/>
			<point x="47" y="253"/>
			<point x="89" y="219"/>
			<point x="89" y="217" type="curve"/>
			<point x="68" y="198" type="line"/>
			<point x="66" y="200"/>
			<point x="20" y="240"/>
			<point x="20" y="316" type="curve" smooth="yes"/>
			<point x="20" y="417"/>
			<point x="94" y="497"/>
			<point x="200" y="497" type="curve" smooth="yes"/>
			<point x="249" y="497"/>
			<point x="266" y="490"/>
			<point x="296" y="476" type="curve"/>
			<point x="318" y="491"/>
			<point x="346" y="507"/>
			<point x="387" y="507" type="curve" smooth="yes"/>
			<point x="471" y="507"/>
			<point x="508" y="444"/>
			<point x="508" y="406" type="curve" smooth="yes"/>
			<point x="508" y="337"/>
			<point x="469" y="316"/>
			<point x="423" y="283" type="curve" smooth="yes"/>
			<point x="369" y="244"/>
			<point x="297" y="236"/>
			<point x="297" y="160" type="curve" smooth="yes"/>
			<point x="297" y="81"/>
			<point x="380" y="27"/>
		</contour>
		<contour>
			<point x="298" y="444" type="curve"/>
			<point x="268" y="421"/>
			<point x="261" y="386"/>
			<point x="261" y="363" type="curve" smooth="yes"/>
			<point x="261" y="319"/>
			<point x="288" y="309"/>
			<point x="302" y="309" type="curve" smooth="yes"/>
			<point x="326" y="309"/>
			<point x="342" y="326"/>
			<point x="342" y="363" type="curve" smooth="yes"/>
			<point x="342" y="390"/>
			<point x="331" y="426"/>
		</contour>
		<contour>
			<point x="406" y="304" type="curve"/>
			<point x="380" y="260" type="line"/>
			<point x="212" y="174"/>
			<point x="128" y="113"/>
			<point x="109" y="-52" type="curve"/>
			<point x="80" y="-50" type="line"/>
			<point x="106" y="147"/>
			<point x="222" y="211"/>
		</contour>
	</outline>
</glyph>
<glyph name="uni0D94" format="2">
	<advance width="1015"/>
	<unicode hex="0D94"/>
	<outline>
		<contour>
			<point x="570" y="386" type="curve" smooth="yes"/>
			<point x="570" y="346"/>
			<point x="593" y="322"/>
			<point x="631" y="322" type="curve" smooth="yes"/>
			<point x="684" y="322"/>
			<point x="710" y="371"/>
			<point x="710" y="412" type="curve" smooth="yes"/>
			<point x="710" y="450"/>
			<point x="694" y="482"/>
			<point x="653" y="482" type="curve" smooth="yes"/>
			<point x="586" y="482"/>
			<point x="570" y="418"/>
		</contour>
		<contour>
			<point x="68" y="-2" type="curve"/>
			<point x="40" y="1" type="line"/>
			<point x="47" y="397"/>
			<point x="250" y="701"/>
			<point x="596" y="701" type="curve" smooth="yes"/>
			<point x="815" y="701"/>
			<point x="975" y="528"/>
			<point x="975" y="321" type="curve" smooth="yes"/>
			<point x="975" y="156"/>
			<point x="917" y="0"/>
			<point x="764" y="0" type="curve" smooth="yes"/>
			<point x="660" y="0"/>
			<point x="616" y="61"/>
			<point x="608" y="121" type="curve"/>
			<point x="589" y="64"/>
			<point x="541" y="0"/>
			<point x="446" y="0" type="curve" smooth="yes"/>
			<point x="344" y="0"/>
			<point x="292" y="84"/>
			<point x="292" y="194" type="curve" smooth="yes"/>
			<point x="292" y="375"/>
			<point x="374" y="507"/>
			<point x="487" y="507" type="curve" smooth="yes"/>
			<point x="538" y="507"/>
			<point x="559" y="475"/>
			<point x="564" y="452" type="curve"/>
			<point x="579" y="487"/>
			<point x="619" y="510"/>
			<point x="656" y="510" type="curve" smooth="yes"/>
			<point x="695" y="510"/>
			<point x="737" y="483"/>
			<point x="737" y="414" type="curve" smooth="yes"/>
			<point x="737" y="355"/>
			<point x="696" y="295"/>
			<point x="634" y="295" type="curve" smooth="yes"/>
			<point x="583" y="295"/>
			<point x="543" y="323"/>
			<point x="543" y="394" type="curve" smooth="yes"/>
			<point x="543" y="453"/>
			<point x="523" y="480"/>
			<point x="488" y="480" type="curve" smooth="yes"/>
			<point x="378" y="480"/>
			<point x="320" y="332"/>
			<point x="320" y="193" type="curve" smooth="yes"/>
			<point x="320" y="98"/>
			<point x="369" y="25"/>
			<point x="443" y="26" type="curve" smooth="yes"/>
			<point x="546" y="27"/>
			<point x="589" y="108"/>
			<point x="608" y="217" type="curve"/>
			<point x="636" y="213" type="line"/>
			<point x="616" y="106"/>
			<point x="666" y="28"/>
			<point x="764" y="28" type="curve" smooth="yes"/>
			<point x="901" y="28"/>
			<point x="948" y="179"/>
			<point x="948" y="320" type="curve" smooth="yes"/>
			<point x="948" y="505"/>
			<point x="801" y="674"/>
			<point x="596" y="674" type="curve" smooth="yes"/>
			<point x="266" y="674"/>
			<point x="74" y="384"/>
		</contour>
	</outline>
</glyph>
<glyph name="uni0D95" format="2">
	<advance width="995"/>
	<unicode hex="0D95"/>
	<outline>
		<contour>
			<point x="261" y="899" type="line"/>
			<point x="289" y="899" type="line"/>
			<point x="289" y="590" type="line"/>
			<point x="261" y="570" type="line"/>
		</contour>
		<contour>
			<point x="55" y="834" type="line"/>
			<point x="928" y="834" type="line"/>
			<point x="928" y="807" type="line"/>
			<point x="55" y="807" type="line"/>
		</contour>
		<component base="uni0D94"/>
	</outline>
</glyph>
<glyph name="uni0D9A" format="2">
	<advance width="829"/>
	<unicode hex="0D9A"/>
	<outline>
		<contour>
			<point x="415" y="340" type="curve" smooth="yes"/>
			<point x="328" y="277"/>
			<point x="231" y="175"/>
			<point x="184" y="103" type="curve"/>
			<point x="210" y="115" type="line"/>
			<point x="218" y="91"/>
			<point x="250" y="27"/>
			<point x="315" y="27" type="curve" smooth="yes"/>
			<point x="367" y="27"/>
			<point x="381" y="80"/>
			<point x="381" y="111" type="curve"/>
			<point x="407" y="111" type="line"/>
			<point x="407" y="59"/>
			<point x="442" y="27"/>
			<point x="490" y="27" type="curve" smooth="yes"/>
			<point x="549" y="27"/>
			<point x="581" y="84"/>
			<point x="581" y="141" type="curve" smooth="yes"/>
			<point x="581" y="156"/>
			<point x="581" y="263"/>
			<point x="468" y="263" type="curve" smooth="yes"/>
			<point x="424" y="263"/>
			<point x="390" y="244"/>
			<point x="349" y="201" type="curve" smooth="yes"/>
			<point x="317" y="167" type="line"/>
			<point x="300" y="183" type="line"/>
			<point x="334" y="219" type="line" smooth="yes"/>
			<point x="380" y="267"/>
			<point x="404" y="315"/>
			<point x="404" y="368" type="curve" smooth="yes"/>
			<point x="404" y="449"/>
			<point x="361" y="478"/>
			<point x="319" y="478" type="curve" smooth="yes"/>
			<point x="267" y="478"/>
			<point x="213" y="440"/>
			<point x="213" y="360" type="curve" smooth="yes"/>
			<point x="213" y="320"/>
			<point x="230" y="297"/>
			<point x="253" y="297" type="curve" smooth="yes"/>
			<point x="273" y="297"/>
			<point x="280" y="315"/>
			<point x="280" y="338" type="curve" smooth="yes"/>
			<point x="280" y="405"/>
			<point x="197" y="424"/>
			<point x="154" y="424" type="curve" smooth="yes"/>
			<point x="138" y="424"/>
			<point x="122" y="421"/>
			<point x="106" y="415" type="curve"/>
			<point x="40" y="391"/>
			<point x="23" y="338"/>
			<point x="23" y="335" type="curve"/>
			<point x="0" y="343" type="line"/>
			<point x="0" y="346"/>
			<point x="18" y="410"/>
			<point x="99" y="439" type="curve"/>
			<point x="117" y="446"/>
			<point x="138" y="449"/>
			<point x="158" y="449" type="curve" smooth="yes"/>
			<point x="227" y="449"/>
			<point x="306" y="416"/>
			<point x="306" y="338" type="curve" smooth="yes"/>
			<point x="306" y="299"/>
			<point x="287" y="270"/>
			<point x="252" y="270" type="curve" smooth="yes"/>
			<point x="221" y="270"/>
			<point x="185" y="303"/>
			<point x="185" y="359" type="curve" smooth="yes"/>
			<point x="185" y="453"/>
			<point x="249" y="504"/>
			<point x="320" y="504" type="curve" smooth="yes"/>
			<point x="384" y="504"/>
			<point x="430" y="462"/>
			<point x="430" y="366" type="curve" smooth="yes"/>
			<point x="430" y="344"/>
			<point x="424" y="313"/>
			<point x="403" y="272" type="curve"/>
			<point x="419" y="281"/>
			<point x="440" y="291"/>
			<point x="468" y="290" type="curve" smooth="yes"/>
			<point x="578" y="285"/>
			<point x="607" y="203"/>
			<point x="607" y="148" type="curve" smooth="yes"/>
			<point x="607" y="84"/>
			<point x="575" y="0"/>
			<point x="490" y="0" type="curve" smooth="yes"/>
			<point x="442" y="0"/>
			<point x="411" y="22"/>
			<point x="394" y="55" type="curve"/>
			<point x="384" y="27"/>
			<point x="359" y="0"/>
			<point x="315" y="0" type="curve" smooth="yes"/>
			<point x="242" y="0"/>
			<point x="208" y="62"/>
			<point x="197" y="83" type="curve"/>
			<point x="172" y="71" type="line"/>
			<point x="147" y="92" type="line"/>
			<point x="230" y="222"/>
			<point x="333" y="315"/>
			<point x="415" y="372" type="curve" smooth="yes"/>
			<point x="510" y="438"/>
			<point x="697" y="511"/>
			<point x="843" y="511" type="curve"/>
			<point x="849" y="483" type="line"/>
			<point x="779" y="474"/>
			<point x="729" y="437"/>
			<point x="729" y="336" type="curve" smooth="yes"/>
			<point x="729" y="276"/>
			<point x="766" y="128"/>
			<point x="766" y="50" type="curve" smooth="yes"/>
			<point x="766" y="-166"/>
			<point x="651" y="-264"/>
			<point x="433" y="-281" type="curve"/>
			<point x="432" y="-253" type="line"/>
			<point x="639" y="-240"/>
			<point x="740" y="-142"/>
			<point x="740" y="48" type="curve" smooth="yes"/>
			<point x="740" y="115"/>
			<point x="702" y="277"/>
			<point x="702" y="344" type="curve" smooth="yes"/>
			<point x="702" y="404"/>
			<point x="731" y="458"/>
			<point x="759" y="476" type="curve"/>
			<point x="622" y="450"/>
			<point x="510" y="409"/>
		</contour>
	</outline>
</glyph>
<glyph name="uni0D9C" format="2">
	<advance width="752"/>
	<unicode hex="0D9C"/>
	<outline>
		<contour>
			<point x="667" y="489" type="curve"/>
			<point x="475" y="483"/>
			<point x="355" y="399"/>
			<point x="276" y="260" type="curve"/>
			<point x="291" y="273"/>
			<point x="317" y="276"/>
			<point x="325" y="276" type="curve" smooth="yes"/>
			<point x="393" y="276"/>
			<point x="436" y="211"/>
			<point x="436" y="154" type="curve" smooth="yes"/>
			<point x="436" y="41"/>
			<point x="327" y="0"/>
			<point x="244" y="0" type="curve" smooth="yes"/>
			<point x="145" y="0"/>
			<point x="40" y="69"/>
			<point x="40" y="189" type="curve" smooth="yes"/>
			<point x="40" y="353"/>
			<point x="189" y="478"/>
			<point x="351" y="508" type="curve"/>
			<point x="351" y="478" type="line"/>
			<point x="195" y="448"/>
			<point x="70" y="331"/>
			<point x="70" y="189" type="curve" smooth="yes"/>
			<point x="70" y="84"/>
			<point x="158" y="27"/>
			<point x="250" y="27" type="curve" smooth="yes"/>
			<point x="315" y="27"/>
			<point x="409" y="66"/>
			<point x="409" y="154" type="curve" smooth="yes"/>
			<point x="409" y="197"/>
			<point x="380" y="249"/>
			<point x="317" y="249" type="curve" smooth="yes"/>
			<point x="270" y="249"/>
			<point x="260" y="220"/>
			<point x="254" y="211" type="curve"/>
			<point x="229" y="224" type="line"/>
			<point x="336" y="447"/>
			<point x="488" y="517"/>
			<point x="716" y="517" type="curve" smooth="yes"/>
			<point x="747" y="517"/>
			<point x="768" y="516"/>
			<point x="772" y="516" type="curve"/>
			<point x="771" y="488" type="line"/>
			<point x="681" y="488"/>
			<point x="613" y="437"/>
			<point x="613" y="353" type="curve" smooth="yes"/>
			<point x="613" y="258"/>
			<point x="650" y="128"/>
			<point x="650" y="50" type="curve" smooth="yes"/>
			<point x="650" y="-166"/>
			<point x="535" y="-264"/>
			<point x="317" y="-281" type="curve"/>
			<point x="316" y="-253" type="line"/>
			<point x="523" y="-240"/>
			<point x="624" y="-152"/>
			<point x="624" y="48" type="curve" smooth="yes"/>
			<point x="624" y="112"/>
			<point x="585" y="288"/>
			<point x="585" y="352" type="curve" smooth="yes"/>
			<point x="585" y="410"/>
			<point x="614" y="459"/>
		</contour>
	</outline>
</glyph>
<glyph name="uni0D9E" format="2">
	<advance width="983"/>
	<unicode hex="0D9E"/>
	<outline>
		<contour>
			<point x="559" y="479" type="curve" smooth="yes"/>
			<point x="501" y="479"/>
			<point x="441" y="430"/>
			<point x="441" y="364" type="curve" smooth="yes"/>
			<point x="441" y="328"/>
			<point x="463" y="308"/>
			<point x="480" y="308" type="curve" smooth="yes"/>
			<point x="499" y="308"/>
			<point x="513" y="321"/>
			<point x="513" y="349" type="curve" smooth="yes"/>
			<point x="513" y="378"/>
			<point x="481" y="425"/>
			<point x="435" y="425" type="curve" smooth="yes"/>
			<point x="364" y="425"/>
			<point x="318" y="369"/>
			<point x="308" y="294" type="curve"/>
			<point x="278" y="298" type="line"/>
			<point x="290" y="381"/>
			<point x="346" y="453"/>
			<point x="432" y="453" type="curve" smooth="yes"/>
			<point x="494" y="453"/>
			<point x="541" y="398"/>
			<point x="541" y="349" type="curve" smooth="yes"/>
			<point x="541" y="306"/>
			<point x="517" y="281"/>
			<point x="480" y="281" type="curve" smooth="yes"/>
			<point x="441" y="281"/>
			<point x="413" y="311"/>
			<point x="413" y="364" type="curve" smooth="yes"/>
			<point x="413" y="452"/>
			<point x="488" y="507"/>
			<point x="559" y="507" type="curve" smooth="yes"/>
			<point x="629" y="507"/>
			<point x="674" y="460"/>
			<point x="674" y="395" type="curve" smooth="yes"/>
			<point x="674" y="338"/>
			<point x="639" y="286"/>
			<point x="536" y="245" type="curve" smooth="yes"/>
			<point x="441" y="207"/>
			<point x="335" y="171"/>
			<point x="335" y="90" type="curve" smooth="yes"/>
			<point x="335" y="48"/>
			<point x="380" y="28"/>
			<point x="419" y="28" type="curve" smooth="yes"/>
			<point x="512" y="28"/>
			<point x="563" y="96"/>
			<point x="588" y="214" type="curve"/>
			<point x="613" y="213" type="line"/>
			<point x="606" y="100"/>
			<point x="651" y="28"/>
			<point x="751" y="28" type="curve" smooth="yes"/>
			<point x="864" y="28"/>
			<point x="913" y="144"/>
			<point x="913" y="291" type="curve" smooth="yes"/>
			<point x="913" y="433"/>
			<point x="831" y="674"/>
			<point x="549" y="674" type="curve" smooth="yes"/>
			<point x="292" y="674"/>
			<point x="70" y="476"/>
			<point x="70" y="0" type="curve"/>
			<point x="40" y="0" type="line"/>
			<point x="40" y="497"/>
			<point x="280" y="703"/>
			<point x="549" y="703" type="curve" smooth="yes"/>
			<point x="857" y="703"/>
			<point x="943" y="445"/>
			<point x="943" y="291" type="curve" smooth="yes"/>
			<point x="943" y="132"/>
			<point x="886" y="0"/>
			<point x="751" y="0" type="curve" smooth="yes"/>
			<point x="672" y="0"/>
			<point x="609" y="38"/>
			<point x="588" y="120" type="curve"/>
			<point x="549" y="42"/>
			<point x="499" y="0"/>
			<point x="419" y="0" type="curve" smooth="yes"/>
			<point x="354" y="0"/>
			<point x="307" y="39"/>
			<point x="307" y="93" type="curve" smooth="yes"/>
			<point x="307" y="191"/>
			<point x="423" y="226"/>
			<point x="519" y="266" type="curve" smooth="yes"/>
			<point x="591" y="296"/>
			<point x="647" y="333"/>
			<point x="647" y="395" type="curve" smooth="yes"/>
			<point x="647" y="430"/>
			<point x="624" y="479"/>
		</contour>
	</outline>
</glyph>
<glyph name="uni0D9F" format="2">
	<advance width="905"/>
	<unicode hex="0D9F"/>
	<outline>
		<contour>
			<point x="397" y="0" type="curve" smooth="yes"/>
			<point x="298" y="0"/>
			<point x="195" y="79"/>
			<point x="195" y="194" type="curve" smooth="yes"/>
			<point x="195" y="338"/>
			<point x="297" y="437"/>
			<point x="418" y="482" type="curve"/>
			<point x="202" y="471"/>
			<point x="70" y="373"/>
			<point x="70" y="174" type="curve" smooth="yes"/>
			<point x="70" y="125"/>
			<point x="78" y="79"/>
			<point x="105" y="11" type="curve"/>
			<point x="76" y="1" type="line"/>
			<point x="50" y="65"/>
			<point x="40" y="121"/>
			<point x="40" y="169" type="curve" smooth="yes"/>
			<point x="40" y="385"/>
			<point x="176" y="507"/>
			<point x="428" y="507" type="curve" smooth="yes"/>
			<point x="506" y="507" type="line"/>
			<point x="506" y="481" type="line"/>
			<point x="347" y="450"/>
			<point x="225" y="344"/>
			<point x="225" y="194" type="curve" smooth="yes"/>
			<point x="225" y="94"/>
			<point x="311" y="27"/>
			<point x="403" y="27" type="curve" smooth="yes"/>
			<point x="468" y="27"/>
			<point x="562" y="66"/>
			<point x="562" y="154" type="curve" smooth="yes"/>
			<point x="562" y="197"/>
			<point x="533" y="249"/>
			<point x="470" y="249" type="curve" smooth="yes"/>
			<point x="423" y="249"/>
			<point x="413" y="220"/>
			<point x="407" y="211" type="curve"/>
			<point x="382" y="224" type="line"/>
			<point x="489" y="447"/>
			<point x="641" y="517"/>
			<point x="869" y="517" type="curve" smooth="yes"/>
			<point x="900" y="517"/>
			<point x="921" y="516"/>
			<point x="925" y="516" type="curve"/>
			<point x="924" y="488" type="line"/>
			<point x="834" y="488"/>
			<point x="766" y="437"/>
			<point x="766" y="353" type="curve" smooth="yes"/>
			<point x="766" y="258"/>
			<point x="803" y="128"/>
			<point x="803" y="50" type="curve" smooth="yes"/>
			<point x="803" y="-166"/>
			<point x="688" y="-264"/>
			<point x="470" y="-281" type="curve"/>
			<point x="469" y="-253" type="line"/>
			<point x="676" y="-240"/>
			<point x="777" y="-152"/>
			<point x="777" y="48" type="curve" smooth="yes"/>
			<point x="777" y="112"/>
			<point x="738" y="288"/>
			<point x="738" y="352" type="curve" smooth="yes"/>
			<point x="738" y="410"/>
			<point x="767" y="459"/>
			<point x="820" y="489" type="curve"/>
			<point x="628" y="483"/>
			<point x="508" y="399"/>
			<point x="429" y="260" type="curve"/>
			<point x="444" y="273"/>
			<point x="470" y="276"/>
			<point x="478" y="276" type="curve" smooth="yes"/>
			<point x="546" y="276"/>
			<point x="589" y="211"/>
			<point x="589" y="154" type="curve" smooth="yes"/>
			<point x="589" y="41"/>
			<point x="480" y="0"/>
		</contour>
	</outline>
</glyph>
<glyph name="uni0DA0" format="2">
	<advance width="1049"/>
	<unicode hex="0DA0"/>
	<outline>
		<contour>
			<point x="582" y="265" type="curve"/>
			<point x="589" y="243" type="line"/>
			<point x="419" y="142"/>
			<point x="331" y="97"/>
			<point x="308" y="-54" type="curve"/>
			<point x="279" y="-52" type="line"/>
			<point x="305" y="125"/>
			<point x="423" y="176"/>
		</contour>
		<component base="uni0DC0"/>
	</outline>
</glyph>
<glyph name="uni0DA1" format="2">
	<advance width="786"/>
	<unicode hex="0DA1"/>
	<outline>
		<contour>
			<point x="489" y="326" type="curve" smooth="yes"/>
			<point x="515" y="532" type="line"/>
			<point x="534" y="680"/>
			<point x="600" y="845"/>
			<point x="735" y="996" type="curve"/>
			<point x="756" y="978" type="line"/>
			<point x="633" y="840"/>
			<point x="562" y="687"/>
			<point x="543" y="542" type="curve" smooth="yes"/>
			<point x="514" y="323" type="line" smooth="yes"/>
			<point x="504" y="249"/>
			<point x="471" y="178"/>
			<point x="398" y="178" type="curve" smooth="yes"/>
			<point x="366" y="178"/>
			<point x="315" y="194"/>
			<point x="315" y="248" type="curve" smooth="yes"/>
			<point x="315" y="301"/>
			<point x="357" y="327"/>
			<point x="436" y="351" type="curve" smooth="yes"/>
			<point x="468" y="361"/>
			<point x="506" y="369"/>
			<point x="539" y="379" type="curve" smooth="yes"/>
			<point x="586" y="392"/>
			<point x="624" y="408"/>
			<point x="624" y="448" type="curve" smooth="yes"/>
			<point x="624" y="479"/>
			<point x="587" y="511"/>
			<point x="524" y="511" type="curve" smooth="yes"/>
			<point x="464" y="511"/>
			<point x="435" y="477"/>
			<point x="435" y="447" type="curve" smooth="yes"/>
			<point x="435" y="407"/>
			<point x="482" y="387"/>
			<point x="550" y="361" type="curve" smooth="yes"/>
			<point x="620" y="335"/>
			<point x="698" y="313"/>
			<point x="698" y="195" type="curve" smooth="yes"/>
			<point x="698" y="58"/>
			<point x="550" y="0"/>
			<point x="415" y="0" type="curve" smooth="yes"/>
			<point x="250" y="0"/>
			<point x="143" y="71"/>
			<point x="143" y="162" type="curve" smooth="yes"/>
			<point x="143" y="245"/>
			<point x="207" y="283"/>
			<point x="273" y="314" type="curve"/>
			<point x="332" y="342"/>
			<point x="370" y="372"/>
			<point x="370" y="412" type="curve" smooth="yes"/>
			<point x="370" y="452"/>
			<point x="326" y="481"/>
			<point x="284" y="481" type="curve" smooth="yes"/>
			<point x="233" y="481"/>
			<point x="180" y="450"/>
			<point x="180" y="391" type="curve" smooth="yes"/>
			<point x="180" y="368"/>
			<point x="193" y="352"/>
			<point x="213" y="352" type="curve" smooth="yes"/>
			<point x="239" y="352"/>
			<point x="248" y="377"/>
			<point x="248" y="394" type="curve" smooth="yes"/>
			<point x="248" y="453"/>
			<point x="183" y="463"/>
			<point x="154" y="463" type="curve" smooth="yes"/>
			<point x="78" y="463"/>
			<point x="47" y="413"/>
			<point x="47" y="369" type="curve" smooth="yes"/>
			<point x="47" y="349"/>
			<point x="57" y="330"/>
			<point x="57" y="330" type="curve"/>
			<point x="32" y="318" type="line"/>
			<point x="31" y="319"/>
			<point x="20" y="340"/>
			<point x="20" y="369" type="curve" smooth="yes"/>
			<point x="20" y="424"/>
			<point x="57" y="490"/>
			<point x="154" y="490" type="curve" smooth="yes"/>
			<point x="204" y="490"/>
			<point x="277" y="469"/>
			<point x="277" y="399" type="curve" smooth="yes"/>
			<point x="277" y="358"/>
			<point x="257" y="324"/>
			<point x="213" y="324" type="curve" smooth="yes"/>
			<point x="187" y="324"/>
			<point x="153" y="344"/>
			<point x="153" y="390" type="curve" smooth="yes"/>
			<point x="153" y="462"/>
			<point x="210" y="508"/>
			<point x="280" y="508" type="curve" smooth="yes"/>
			<point x="338" y="508"/>
			<point x="398" y="472"/>
			<point x="398" y="417" type="curve" smooth="yes"/>
			<point x="398" y="356"/>
			<point x="345" y="319"/>
			<point x="285" y="290" type="curve"/>
			<point x="220" y="257"/>
			<point x="170" y="230"/>
			<point x="170" y="164" type="curve" smooth="yes"/>
			<point x="170" y="90"/>
			<point x="268" y="27"/>
			<point x="414" y="27" type="curve" smooth="yes"/>
			<point x="525" y="27"/>
			<point x="670" y="78"/>
			<point x="670" y="193" type="curve" smooth="yes"/>
			<point x="670" y="281"/>
			<point x="628" y="301"/>
			<point x="542" y="334" type="curve" smooth="yes"/>
			<point x="496" y="352"/>
			<point x="407" y="375"/>
			<point x="407" y="446" type="curve" smooth="yes"/>
			<point x="407" y="493"/>
			<point x="449" y="539"/>
			<point x="533" y="539" type="curve" smooth="yes"/>
			<point x="590" y="539"/>
			<point x="652" y="503"/>
			<point x="652" y="448" type="curve" smooth="yes"/>
			<point x="652" y="394"/>
			<point x="609" y="367"/>
			<point x="543" y="352" type="curve" smooth="yes"/>
			<point x="526" y="348"/>
			<point x="465" y="335"/>
			<point x="445" y="328" type="curve" smooth="yes"/>
			<point x="407" y="314"/>
			<point x="343" y="301"/>
			<point x="343" y="252" type="curve" smooth="yes"/>
			<point x="343" y="209"/>
			<point x="385" y="205"/>
			<point x="399" y="205" type="curve" smooth="yes"/>
			<point x="448" y="205"/>
			<point x="480" y="253"/>
		</contour>
	</outline>
</glyph>
<glyph name="uni0DA2" format="2">
	<advance width="786"/>
	<unicode hex="0DA2"/>
	<outline>
		<contour>
			<point x="549" y="621" type="curve" smooth="yes"/>
			<point x="633" y="621"/>
			<point x="702" y="558"/>
			<point x="702" y="485" type="curve" smooth="yes"/>
			<point x="702" y="447"/>
			<point x="673" y="400"/>
			<point x="620" y="400" type="curve" smooth="yes"/>
			<point x="576" y="400"/>
			<point x="515" y="432"/>
			<point x="515" y="532" type="curve" smooth="yes"/>
			<point x="515" y="681"/>
			<point x="600" y="845"/>
			<point x="735" y="996" type="curve"/>
			<point x="756" y="978" type="line"/>
			<point x="633" y="840"/>
			<point x="543" y="676"/>
			<point x="543" y="530" type="curve" smooth="yes"/>
			<point x="543" y="453"/>
			<point x="592" y="427"/>
			<point x="621" y="427" type="curve" smooth="yes"/>
			<point x="655" y="427"/>
			<point x="674" y="452"/>
			<point x="674" y="485" type="curve" smooth="yes"/>
			<point x="674" y="538"/>
			<point x="626" y="593"/>
			<point x="544" y="593" type="curve" smooth="yes"/>
			<point x="474" y="593"/>
			<point x="425" y="547"/>
			<point x="425" y="487" type="curve" smooth="yes"/>
			<point x="425" y="437"/>
			<point x="472" y="407"/>
			<point x="534" y="384" type="curve" smooth="yes"/>
			<point x="610" y="355"/>
			<point x="708" y="313"/>
			<point x="708" y="215" type="curve" smooth="yes"/>
			<point x="708" y="58"/>
			<point x="550" y="0"/>
			<point x="415" y="0" type="curve" smooth="yes"/>
			<point x="250" y="0"/>
			<point x="143" y="71"/>
			<point x="143" y="162" type="curve" smooth="yes"/>
			<point x="143" y="245"/>
			<point x="207" y="283"/>
			<point x="273" y="314" type="curve"/>
			<point x="332" y="342"/>
			<point x="370" y="372"/>
			<point x="370" y="412" type="curve" smooth="yes"/>
			<point x="370" y="452"/>
			<point x="326" y="481"/>
			<point x="284" y="481" type="curve" smooth="yes"/>
			<point x="233" y="481"/>
			<point x="180" y="450"/>
			<point x="180" y="391" type="curve" smooth="yes"/>
			<point x="180" y="368"/>
			<point x="193" y="352"/>
			<point x="213" y="352" type="curve" smooth="yes"/>
			<point x="239" y="352"/>
			<point x="248" y="377"/>
			<point x="248" y="394" type="curve" smooth="yes"/>
			<point x="248" y="453"/>
			<point x="183" y="463"/>
			<point x="154" y="463" type="curve" smooth="yes"/>
			<point x="78" y="463"/>
			<point x="47" y="413"/>
			<point x="47" y="369" type="curve" smooth="yes"/>
			<point x="47" y="349"/>
			<point x="57" y="330"/>
			<point x="57" y="330" type="curve"/>
			<point x="32" y="318" type="line"/>
			<point x="31" y="319"/>
			<point x="20" y="340"/>
			<point x="20" y="369" type="curve" smooth="yes"/>
			<point x="20" y="424"/>
			<point x="57" y="490"/>
			<point x="154" y="490" type="curve" smooth="yes"/>
			<point x="204" y="490"/>
			<point x="277" y="469"/>
			<point x="277" y="399" type="curve" smooth="yes"/>
			<point x="277" y="358"/>
			<point x="257" y="324"/>
			<point x="213" y="324" type="curve" smooth="yes"/>
			<point x="187" y="324"/>
			<point x="153" y="344"/>
			<point x="153" y="390" type="curve" smooth="yes"/>
			<point x="153" y="462"/>
			<point x="210" y="508"/>
			<point x="280" y="508" type="curve" smooth="yes"/>
			<point x="338" y="508"/>
			<point x="398" y="472"/>
			<point x="398" y="417" type="curve" smooth="yes"/>
			<point x="398" y="356"/>
			<point x="345" y="319"/>
			<point x="285" y="290" type="curve"/>
			<point x="220" y="257"/>
			<point x="170" y="230"/>
			<point x="170" y="164" type="curve" smooth="yes"/>
			<point x="170" y="90"/>
			<point x="268" y="27"/>
			<point x="414" y="27" type="curve" smooth="yes"/>
			<point x="525" y="27"/>
			<point x="680" y="78"/>
			<point x="680" y="213" type="curve" smooth="yes"/>
			<point x="680" y="281"/>
			<point x="618" y="321"/>
			<point x="526" y="357" type="curve" smooth="yes"/>
			<point x="486" y="372"/>
			<point x="397" y="405"/>
			<point x="397" y="486" type="curve" smooth="yes"/>
			<point x="397" y="567"/>
			<point x="459" y="621"/>
		</contour>
	</outline>
</glyph>
<glyph name="uni0DA3" format="2">
	<advance width="1289"/>
	<unicode hex="0DA3"/>
	<outline>
		<contour>
			<point x="942" y="417" type="curve"/>
			<point x="918" y="395" type="line"/>
			<point x="861" y="446"/>
			<point x="789" y="463"/>
			<point x="735" y="463" type="curve" smooth="yes"/>
			<point x="595" y="463"/>
			<point x="480" y="387"/>
			<point x="415" y="340" type="curve" smooth="yes"/>
			<point x="328" y="277"/>
			<point x="231" y="175"/>
			<point x="184" y="103" type="curve"/>
			<point x="210" y="115" type="line"/>
			<point x="218" y="91"/>
			<point x="250" y="27"/>
			<point x="315" y="27" type="curve" smooth="yes"/>
			<point x="367" y="27"/>
			<point x="381" y="80"/>
			<point x="381" y="111" type="curve"/>
			<point x="407" y="111" type="line"/>
			<point x="407" y="59"/>
			<point x="442" y="27"/>
			<point x="490" y="27" type="curve" smooth="yes"/>
			<point x="549" y="27"/>
			<point x="581" y="84"/>
			<point x="581" y="141" type="curve" smooth="yes"/>
			<point x="581" y="156"/>
			<point x="581" y="263"/>
			<point x="468" y="263" type="curve" smooth="yes"/>
			<point x="424" y="263"/>
			<point x="390" y="244"/>
			<point x="349" y="201" type="curve" smooth="yes"/>
			<point x="317" y="167" type="line"/>
			<point x="300" y="183" type="line"/>
			<point x="334" y="219" type="line" smooth="yes"/>
			<point x="380" y="267"/>
			<point x="404" y="315"/>
			<point x="404" y="368" type="curve" smooth="yes"/>
			<point x="404" y="449"/>
			<point x="361" y="478"/>
			<point x="319" y="478" type="curve" smooth="yes"/>
			<point x="267" y="478"/>
			<point x="213" y="440"/>
			<point x="213" y="360" type="curve" smooth="yes"/>
			<point x="213" y="320"/>
			<point x="230" y="297"/>
			<point x="253" y="297" type="curve" smooth="yes"/>
			<point x="273" y="297"/>
			<point x="280" y="315"/>
			<point x="280" y="338" type="curve" smooth="yes"/>
			<point x="280" y="405"/>
			<point x="197" y="424"/>
			<point x="154" y="424" type="curve" smooth="yes"/>
			<point x="138" y="424"/>
			<point x="122" y="421"/>
			<point x="106" y="415" type="curve"/>
			<point x="40" y="391"/>
			<point x="23" y="338"/>
			<point x="23" y="335" type="curve"/>
			<point x="0" y="343" type="line"/>
			<point x="0" y="346"/>
			<point x="18" y="410"/>
			<point x="99" y="439" type="curve"/>
			<point x="117" y="446"/>
			<point x="138" y="449"/>
			<point x="158" y="449" type="curve" smooth="yes"/>
			<point x="227" y="449"/>
			<point x="306" y="416"/>
			<point x="306" y="338" type="curve" smooth="yes"/>
			<point x="306" y="299"/>
			<point x="287" y="270"/>
			<point x="252" y="270" type="curve" smooth="yes"/>
			<point x="221" y="270"/>
			<point x="185" y="303"/>
			<point x="185" y="359" type="curve" smooth="yes"/>
			<point x="185" y="453"/>
			<point x="249" y="504"/>
			<point x="320" y="504" type="curve" smooth="yes"/>
			<point x="384" y="504"/>
			<point x="430" y="462"/>
			<point x="430" y="366" type="curve" smooth="yes"/>
			<point x="430" y="344"/>
			<point x="424" y="313"/>
			<point x="403" y="272" type="curve"/>
			<point x="419" y="281"/>
			<point x="440" y="291"/>
			<point x="468" y="290" type="curve" smooth="yes"/>
			<point x="578" y="285"/>
			<point x="607" y="203"/>
			<point x="607" y="148" type="curve" smooth="yes"/>
			<point x="607" y="84"/>
			<point x="575" y="0"/>
			<point x="490" y="0" type="curve" smooth="yes"/>
			<point x="442" y="0"/>
			<point x="411" y="22"/>
			<point x="394" y="55" type="curve"/>
			<point x="384" y="27"/>
			<point x="359" y="0"/>
			<point x="315" y="0" type="curve" smooth="yes"/>
			<point x="242" y="0"/>
			<point x="208" y="62"/>
			<point x="197" y="83" type="curve"/>
			<point x="172" y="71" type="line"/>
			<point x="147" y="92" type="line"/>
			<point x="230" y="222"/>
			<point x="333" y="315"/>
			<point x="415" y="372" type="curve" smooth="yes"/>
			<point x="477" y="415"/>
			<point x="593" y="490"/>
			<point x="734" y="490" type="curve" smooth="yes"/>
			<point x="796" y="490"/>
			<point x="877" y="474"/>
		</contour>
		<contour>
			<point x="543" y="542" type="curve"/>
			<point x="522" y="563" type="line"/>
			<point x="613" y="659"/>
			<point x="731" y="703"/>
			<point x="855" y="703" type="curve" smooth="yes"/>
			<point x="1163" y="703"/>
			<point x="1249" y="445"/>
			<point x="1249" y="291" type="curve" smooth="yes"/>
			<point x="1249" y="132"/>
			<point x="1192" y="0"/>
			<point x="1057" y="0" type="curve" smooth="yes"/>
			<point x="978" y="0"/>
			<point x="915" y="38"/>
			<point x="894" y="120" type="curve"/>
			<point x="855" y="42"/>
			<point x="805" y="0"/>
			<point x="725" y="0" type="curve" smooth="yes"/>
			<point x="660" y="0"/>
			<point x="582" y="47"/>
			<point x="582" y="156" type="curve" smooth="yes"/>
			<point x="582" y="311"/>
			<point x="664" y="451"/>
			<point x="942" y="417" type="curve"/>
			<point x="938" y="389" type="line"/>
			<point x="673" y="420"/>
			<point x="610" y="289"/>
			<point x="610" y="161" type="curve" smooth="yes"/>
			<point x="610" y="54"/>
			<point x="686" y="27"/>
			<point x="725" y="27" type="curve" smooth="yes"/>
			<point x="818" y="27"/>
			<point x="869" y="96"/>
			<point x="894" y="214" type="curve"/>
			<point x="919" y="213" type="line"/>
			<point x="912" y="100"/>
			<point x="957" y="27"/>
			<point x="1057" y="27" type="curve" smooth="yes"/>
			<point x="1170" y="27"/>
			<point x="1219" y="144"/>
			<point x="1219" y="291" type="curve" smooth="yes"/>
			<point x="1219" y="433"/>
			<point x="1137" y="674"/>
			<point x="855" y="674" type="curve" smooth="yes"/>
			<point x="738" y="674"/>
			<point x="627" y="633"/>
		</contour>
	</outline>
</glyph>
<glyph name="uni0DA4" format="2">
	<advance width="1142"/>
	<unicode hex="0DA4"/>
	<outline>
		<contour>
			<point x="235" y="424" type="curve" smooth="yes"/>
			<point x="165" y="424"/>
			<point x="74" y="370"/>
			<point x="67" y="205" type="curve" smooth="yes"/>
			<point x="66" y="167"/>
			<point x="76" y="83"/>
			<point x="125" y="15" type="curve"/>
			<point x="99" y="1" type="line"/>
			<point x="54" y="66"/>
			<point x="38" y="142"/>
			<point x="40" y="206" type="curve" smooth="yes"/>
			<point x="46" y="382"/>
			<point x="146" y="451"/>
			<point x="239" y="451" type="curve" smooth="yes"/>
			<point x="310" y="451"/>
			<point x="377" y="416"/>
			<point x="377" y="338" type="curve" smooth="yes"/>
			<point x="377" y="299"/>
			<point x="358" y="270"/>
			<point x="323" y="270" type="curve" smooth="yes"/>
			<point x="292" y="270"/>
			<point x="256" y="303"/>
			<point x="256" y="359" type="curve" smooth="yes"/>
			<point x="256" y="453"/>
			<point x="320" y="504"/>
			<point x="391" y="504" type="curve" smooth="yes"/>
			<point x="455" y="504"/>
			<point x="501" y="462"/>
			<point x="501" y="366" type="curve" smooth="yes"/>
			<point x="501" y="344"/>
			<point x="495" y="313"/>
			<point x="474" y="272" type="curve"/>
			<point x="490" y="281"/>
			<point x="511" y="291"/>
			<point x="539" y="290" type="curve" smooth="yes"/>
			<point x="649" y="285"/>
			<point x="678" y="203"/>
			<point x="678" y="148" type="curve" smooth="yes"/>
			<point x="678" y="84"/>
			<point x="646" y="0"/>
			<point x="561" y="0" type="curve" smooth="yes"/>
			<point x="513" y="0"/>
			<point x="482" y="22"/>
			<point x="465" y="55" type="curve"/>
			<point x="455" y="27"/>
			<point x="430" y="0"/>
			<point x="386" y="0" type="curve" smooth="yes"/>
			<point x="313" y="0"/>
			<point x="279" y="52"/>
			<point x="268" y="73" type="curve"/>
			<point x="243" y="61" type="line"/>
			<point x="222" y="84" type="line"/>
			<point x="288" y="197"/>
			<point x="408" y="329"/>
			<point x="487" y="403" type="curve"/>
			<point x="488" y="401" type="line"/>
			<point x="551" y="454"/>
			<point x="658" y="509"/>
			<point x="765" y="509" type="curve"/>
			<point x="765" y="490" type="line"/>
			<point x="678" y="490"/>
			<point x="558" y="433"/>
			<point x="491" y="374" type="curve"/>
			<point x="487" y="368" type="line"/>
			<point x="404" y="286"/>
			<point x="310" y="179"/>
			<point x="258" y="93" type="curve"/>
			<point x="281" y="105" type="line"/>
			<point x="289" y="81"/>
			<point x="321" y="27"/>
			<point x="386" y="27" type="curve" smooth="yes"/>
			<point x="438" y="27"/>
			<point x="452" y="80"/>
			<point x="452" y="111" type="curve"/>
			<point x="478" y="111" type="line"/>
			<point x="478" y="59"/>
			<point x="513" y="27"/>
			<point x="561" y="27" type="curve" smooth="yes"/>
			<point x="620" y="27"/>
			<point x="652" y="84"/>
			<point x="652" y="141" type="curve" smooth="yes"/>
			<point x="652" y="156"/>
			<point x="652" y="263"/>
			<point x="539" y="263" type="curve" smooth="yes"/>
			<point x="495" y="263"/>
			<point x="461" y="244"/>
			<point x="420" y="201" type="curve" smooth="yes"/>
			<point x="388" y="167" type="line"/>
			<point x="371" y="183" type="line"/>
			<point x="405" y="219" type="line" smooth="yes"/>
			<point x="451" y="267"/>
			<point x="475" y="315"/>
			<point x="475" y="368" type="curve" smooth="yes"/>
			<point x="475" y="449"/>
			<point x="432" y="478"/>
			<point x="390" y="478" type="curve" smooth="yes"/>
			<point x="338" y="478"/>
			<point x="284" y="440"/>
			<point x="284" y="360" type="curve" smooth="yes"/>
			<point x="284" y="320"/>
			<point x="301" y="297"/>
			<point x="324" y="297" type="curve" smooth="yes"/>
			<point x="344" y="297"/>
			<point x="351" y="315"/>
			<point x="351" y="338" type="curve" smooth="yes"/>
			<point x="351" y="405"/>
			<point x="292" y="424"/>
		</contour>
		<component base="uni0DAF" xOffset="620"/>
	</outline>
</glyph>
<glyph name="uni0DA5" format="2">
	<advance width="1104"/>
	<unicode hex="0DA5"/>
	<outline>
		<contour>
			<point x="506" y="481" type="line"/>
			<point x="347" y="450"/>
			<point x="225" y="344"/>
			<point x="225" y="209" type="curve" smooth="yes"/>
			<point x="225" y="84"/>
			<point x="319" y="27"/>
			<point x="411" y="27" type="curve" smooth="yes"/>
			<point x="476" y="27"/>
			<point x="564" y="66"/>
			<point x="564" y="154" type="curve" smooth="yes"/>
			<point x="564" y="197"/>
			<point x="535" y="249"/>
			<point x="472" y="249" type="curve" smooth="yes"/>
			<point x="425" y="249"/>
			<point x="415" y="220"/>
			<point x="409" y="211" type="curve"/>
			<point x="384" y="224" type="line"/>
			<point x="453" y="395"/>
			<point x="549" y="489"/>
			<point x="703" y="507" type="curve"/>
			<point x="703" y="484" type="line"/>
			<point x="572" y="460"/>
			<point x="487" y="378"/>
			<point x="431" y="260" type="curve"/>
			<point x="446" y="273"/>
			<point x="472" y="276"/>
			<point x="480" y="276" type="curve" smooth="yes"/>
			<point x="556" y="276"/>
			<point x="591" y="211"/>
			<point x="591" y="154" type="curve" smooth="yes"/>
			<point x="591" y="41"/>
			<point x="488" y="0"/>
			<point x="405" y="0" type="curve" smooth="yes"/>
			<point x="306" y="0"/>
			<point x="195" y="69"/>
			<point x="195" y="209" type="curve" smooth="yes"/>
			<point x="195" y="340"/>
			<point x="297" y="437"/>
			<point x="418" y="482" type="curve"/>
			<point x="202" y="471"/>
			<point x="70" y="373"/>
			<point x="70" y="174" type="curve" smooth="yes"/>
			<point x="70" y="125"/>
			<point x="78" y="79"/>
			<point x="105" y="11" type="curve"/>
			<point x="76" y="1" type="line"/>
			<point x="50" y="65"/>
			<point x="40" y="121"/>
			<point x="40" y="169" type="curve" smooth="yes"/>
			<point x="40" y="385"/>
			<point x="176" y="507"/>
			<point x="428" y="507" type="curve" smooth="yes"/>
			<point x="506" y="507" type="line"/>
		</contour>
		<component base="uni0DAF" xOffset="582"/>
	</outline>
</glyph>
<glyph name="uni0DA6" format="2">
	<advance width="884"/>
	<unicode hex="0DA6"/>
	<outline>
		<contour>
			<point x="252" y="490" type="curve"/>
			<point x="257" y="467" type="line"/>
			<point x="151" y="467"/>
			<point x="47" y="358"/>
			<point x="47" y="225" type="curve" smooth="yes"/>
			<point x="47" y="160"/>
			<point x="74" y="88"/>
			<point x="134" y="20" type="curve"/>
			<point x="110" y="1" type="line"/>
			<point x="46" y="76"/>
			<point x="20" y="154"/>
			<point x="20" y="226" type="curve" smooth="yes"/>
			<point x="20" y="372"/>
			<point x="130" y="490"/>
		</contour>
		<component base="uni0DA2" xOffset="98"/>
	</outline>
</glyph>
<glyph name="uni0DA7" format="2">
	<advance width="948"/>
	<unicode hex="0DA7"/>
	<outline>
		<contour>
			<point x="324" y="210" type="curve" smooth="yes"/>
			<point x="324" y="82"/>
			<point x="459" y="27"/>
			<point x="579" y="27" type="curve" smooth="yes"/>
			<point x="755" y="27"/>
			<point x="880" y="170"/>
			<point x="880" y="347" type="curve" smooth="yes"/>
			<point x="880" y="499"/>
			<point x="754" y="673"/>
			<point x="558" y="673" type="curve" smooth="yes"/>
			<point x="235" y="673"/>
			<point x="47" y="388"/>
			<point x="47" y="0" type="curve"/>
			<point x="20" y="0" type="line"/>
			<point x="20" y="405"/>
			<point x="223" y="702"/>
			<point x="553" y="702" type="curve" smooth="yes"/>
			<point x="759" y="702"/>
			<point x="908" y="533"/>
			<point x="908" y="348" type="curve" smooth="yes"/>
			<point x="908" y="157"/>
			<point x="778" y="-1"/>
			<point x="579" y="-1" type="curve" smooth="yes"/>
			<point x="431" y="-1"/>
			<point x="294" y="72"/>
			<point x="295" y="210" type="curve" smooth="yes"/>
			<point x="296" y="360"/>
			<point x="451" y="477"/>
			<point x="679" y="423" type="curve"/>
			<point x="673" y="395" type="line"/>
			<point x="458" y="446"/>
			<point x="324" y="338"/>
		</contour>
	</outline>
</glyph>
<glyph name="uni0DA8" format="2">
	<advance width="723"/>
	<unicode hex="0DA8"/>
	<outline>
		<contour>
			<point x="608" y="507" type="curve"/>
			<point x="630" y="491" type="line"/>
			<point x="588" y="428"/>
			<point x="519" y="380"/>
			<point x="448" y="380" type="curve" smooth="yes"/>
			<point x="364" y="380"/>
			<point x="288" y="435"/>
			<point x="288" y="531" type="curve" smooth="yes"/>
			<point x="288" y="630"/>
			<point x="364" y="705"/>
			<point x="422" y="763" type="curve"/>
			<point x="441" y="744" type="line"/>
			<point x="380" y="683"/>
			<point x="314" y="616"/>
			<point x="314" y="531" type="curve" smooth="yes"/>
			<point x="314" y="465"/>
			<point x="363" y="406"/>
			<point x="449" y="406" type="curve" smooth="yes"/>
			<point x="504" y="406"/>
			<point x="560" y="444"/>
		</contour>
		<contour>
			<point x="653" y="214" type="curve" smooth="yes"/>
			<point x="653" y="397"/>
			<point x="531" y="468"/>
			<point x="418" y="537" type="curve" smooth="yes"/>
			<point x="322" y="595"/>
			<point x="233" y="646"/>
			<point x="233" y="757" type="curve" smooth="yes"/>
			<point x="233" y="786"/>
			<point x="245" y="825"/>
			<point x="268" y="845" type="curve"/>
			<point x="286" y="825" type="line"/>
			<point x="268" y="811"/>
			<point x="260" y="779"/>
			<point x="260" y="753" type="curve" smooth="yes"/>
			<point x="260" y="665"/>
			<point x="342" y="615"/>
			<point x="434" y="560" type="curve" smooth="yes"/>
			<point x="551" y="489"/>
			<point x="683" y="410"/>
			<point x="683" y="214" type="curve" smooth="yes"/>
			<point x="683" y="121"/>
			<point x="630" y="0"/>
			<point x="495" y="0" type="curve" smooth="yes"/>
			<point x="416" y="0"/>
			<point x="353" y="38"/>
			<point x="332" y="120" type="curve"/>
			<point x="293" y="42"/>
			<point x="243" y="0"/>
			<point x="163" y="0" type="curve" smooth="yes"/>
			<point x="98" y="0"/>
			<point x="20" y="47"/>
			<point x="20" y="156" type="curve" smooth="yes"/>
			<point x="20" y="277"/>
			<point x="90" y="389"/>
			<point x="254" y="416" type="curve"/>
			<point x="261" y="388" type="line"/>
			<point x="107" y="364"/>
			<point x="48" y="262"/>
			<point x="48" y="161" type="curve" smooth="yes"/>
			<point x="48" y="54"/>
			<point x="124" y="27"/>
			<point x="163" y="27" type="curve" smooth="yes"/>
			<point x="256" y="27"/>
			<point x="307" y="96"/>
			<point x="332" y="214" type="curve"/>
			<point x="357" y="213" type="line"/>
			<point x="350" y="100"/>
			<point x="395" y="27"/>
			<point x="495" y="27" type="curve" smooth="yes"/>
			<point x="608" y="27"/>
			<point x="653" y="133"/>
		</contour>
	</outline>
</glyph>
<glyph name="uni0DA9" format="2">
	<advance width="963"/>
	<unicode hex="0DA9"/>
	<outline>
		<contour>
			<point x="539" y="479" type="curve" smooth="yes"/>
			<point x="481" y="479"/>
			<point x="421" y="430"/>
			<point x="421" y="364" type="curve" smooth="yes"/>
			<point x="421" y="328"/>
			<point x="443" y="308"/>
			<point x="460" y="308" type="curve" smooth="yes"/>
			<point x="479" y="308"/>
			<point x="493" y="321"/>
			<point x="493" y="349" type="curve" smooth="yes"/>
			<point x="493" y="378"/>
			<point x="461" y="425"/>
			<point x="415" y="425" type="curve" smooth="yes"/>
			<point x="344" y="425"/>
			<point x="298" y="369"/>
			<point x="288" y="294" type="curve"/>
			<point x="258" y="298" type="line"/>
			<point x="270" y="381"/>
			<point x="326" y="453"/>
			<point x="412" y="453" type="curve" smooth="yes"/>
			<point x="474" y="453"/>
			<point x="521" y="398"/>
			<point x="521" y="349" type="curve" smooth="yes"/>
			<point x="521" y="306"/>
			<point x="497" y="281"/>
			<point x="460" y="281" type="curve" smooth="yes"/>
			<point x="421" y="281"/>
			<point x="393" y="311"/>
			<point x="393" y="364" type="curve" smooth="yes"/>
			<point x="393" y="452"/>
			<point x="468" y="507"/>
			<point x="539" y="507" type="curve" smooth="yes"/>
			<point x="609" y="507"/>
			<point x="654" y="460"/>
			<point x="654" y="395" type="curve" smooth="yes"/>
			<point x="654" y="338"/>
			<point x="619" y="286"/>
			<point x="516" y="245" type="curve" smooth="yes"/>
			<point x="421" y="207"/>
			<point x="315" y="171"/>
			<point x="315" y="90" type="curve" smooth="yes"/>
			<point x="315" y="48"/>
			<point x="360" y="28"/>
			<point x="399" y="28" type="curve" smooth="yes"/>
			<point x="492" y="28"/>
			<point x="543" y="96"/>
			<point x="568" y="214" type="curve"/>
			<point x="593" y="213" type="line"/>
			<point x="586" y="100"/>
			<point x="631" y="28"/>
			<point x="731" y="28" type="curve" smooth="yes"/>
			<point x="844" y="28"/>
			<point x="893" y="144"/>
			<point x="893" y="291" type="curve" smooth="yes"/>
			<point x="893" y="433"/>
			<point x="809" y="674"/>
			<point x="529" y="674" type="curve" smooth="yes"/>
			<point x="272" y="674"/>
			<point x="50" y="476"/>
			<point x="50" y="0" type="curve"/>
			<point x="20" y="0" type="line"/>
			<point x="20" y="497"/>
			<point x="260" y="703"/>
			<point x="529" y="703" type="curve" smooth="yes"/>
			<point x="835" y="703"/>
			<point x="923" y="445"/>
			<point x="923" y="291" type="curve" smooth="yes"/>
			<point x="923" y="132"/>
			<point x="866" y="0"/>
			<point x="731" y="0" type="curve" smooth="yes"/>
			<point x="652" y="0"/>
			<point x="589" y="38"/>
			<point x="568" y="120" type="curve"/>
			<point x="529" y="42"/>
			<point x="479" y="0"/>
			<point x="399" y="0" type="curve" smooth="yes"/>
			<point x="334" y="0"/>
			<point x="287" y="39"/>
			<point x="287" y="93" type="curve" smooth="yes"/>
			<point x="287" y="191"/>
			<point x="403" y="226"/>
			<point x="499" y="266" type="curve" smooth="yes"/>
			<point x="571" y="296"/>
			<point x="627" y="333"/>
			<point x="627" y="395" type="curve" smooth="yes"/>
			<point x="627" y="430"/>
			<point x="604" y="479"/>
		</contour>
		<contour>
			<point x="464" y="252" type="curve"/>
			<point x="470" y="230" type="line"/>
			<point x="293" y="157"/>
			<point x="192" y="97"/>
			<point x="169" y="-54" type="curve"/>
			<point x="140" y="-52" type="line"/>
			<point x="166" y="125"/>
			<point x="280" y="177"/>
		</contour>
	</outline>
</glyph>
<glyph name="uni0DAA" format="2">
	<advance width="933"/>
	<unicode hex="0DAA"/>
	<outline>
		<contour>
			<point x="818" y="507" type="curve"/>
			<point x="840" y="491" type="line"/>
			<point x="798" y="428"/>
			<point x="729" y="380"/>
			<point x="658" y="380" type="curve" smooth="yes"/>
			<point x="574" y="380"/>
			<point x="498" y="435"/>
			<point x="498" y="531" type="curve" smooth="yes"/>
			<point x="498" y="630"/>
			<point x="574" y="705"/>
			<point x="632" y="763" type="curve"/>
			<point x="651" y="744" type="line"/>
			<point x="590" y="683"/>
			<point x="524" y="616"/>
			<point x="524" y="531" type="curve" smooth="yes"/>
			<point x="524" y="465"/>
			<point x="573" y="406"/>
			<point x="659" y="406" type="curve" smooth="yes"/>
			<point x="714" y="406"/>
			<point x="770" y="444"/>
		</contour>
		<contour>
			<point x="260" y="126" type="curve" smooth="yes"/>
			<point x="260" y="238"/>
			<point x="345" y="263"/>
			<point x="406" y="304" type="curve" smooth="yes"/>
			<point x="438" y="326"/>
			<point x="481" y="345"/>
			<point x="481" y="406" type="curve" smooth="yes"/>
			<point x="481" y="425"/>
			<point x="466" y="479"/>
			<point x="387" y="479" type="curve" smooth="yes"/>
			<point x="348" y="479"/>
			<point x="340" y="469"/>
			<point x="324" y="460" type="curve"/>
			<point x="354" y="434"/>
			<point x="370" y="400"/>
			<point x="370" y="363" type="curve" smooth="yes"/>
			<point x="370" y="302"/>
			<point x="334" y="282"/>
			<point x="302" y="282" type="curve" smooth="yes"/>
			<point x="264" y="282"/>
			<point x="233" y="309"/>
			<point x="233" y="363" type="curve" smooth="yes"/>
			<point x="233" y="388"/>
			<point x="240" y="428"/>
			<point x="273" y="459" type="curve"/>
			<point x="252" y="466"/>
			<point x="239" y="470"/>
			<point x="200" y="470" type="curve" smooth="yes"/>
			<point x="108" y="470"/>
			<point x="47" y="401"/>
			<point x="47" y="316" type="curve" smooth="yes"/>
			<point x="47" y="253"/>
			<point x="89" y="219"/>
			<point x="89" y="217" type="curve"/>
			<point x="68" y="198" type="line"/>
			<point x="66" y="200"/>
			<point x="20" y="240"/>
			<point x="20" y="316" type="curve" smooth="yes"/>
			<point x="20" y="417"/>
			<point x="94" y="497"/>
			<point x="200" y="497" type="curve" smooth="yes"/>
			<point x="249" y="497"/>
			<point x="266" y="490"/>
			<point x="296" y="476" type="curve"/>
			<point x="318" y="491"/>
			<point x="346" y="507"/>
			<point x="387" y="507" type="curve" smooth="yes"/>
			<point x="471" y="507"/>
			<point x="508" y="444"/>
			<point x="508" y="406" type="curve" smooth="yes"/>
			<point x="508" y="337"/>
			<point x="459" y="309"/>
			<point x="406" y="275" type="curve" smooth="yes"/>
			<point x="357" y="243"/>
			<point x="287" y="224"/>
			<point x="287" y="126" type="curve" smooth="yes"/>
			<point x="287" y="69"/>
			<point x="334" y="27"/>
			<point x="387" y="27" type="curve" smooth="yes"/>
			<point x="466" y="27"/>
			<point x="517" y="96"/>
			<point x="542" y="214" type="curve"/>
			<point x="567" y="213" type="line"/>
			<point x="560" y="100"/>
			<point x="605" y="27"/>
			<point x="705" y="27" type="curve" smooth="yes"/>
			<point x="818" y="27"/>
			<point x="863" y="133"/>
			<point x="863" y="214" type="curve" smooth="yes"/>
			<point x="863" y="397"/>
			<point x="741" y="468"/>
			<point x="628" y="537" type="curve" smooth="yes"/>
			<point x="532" y="595"/>
			<point x="443" y="646"/>
			<point x="443" y="757" type="curve" smooth="yes"/>
			<point x="443" y="786"/>
			<point x="455" y="825"/>
			<point x="478" y="845" type="curve"/>
			<point x="496" y="825" type="line"/>
			<point x="478" y="811"/>
			<point x="470" y="779"/>
			<point x="470" y="753" type="curve" smooth="yes"/>
			<point x="470" y="665"/>
			<point x="552" y="615"/>
			<point x="644" y="560" type="curve" smooth="yes"/>
			<point x="761" y="489"/>
			<point x="893" y="410"/>
			<point x="893" y="214" type="curve" smooth="yes"/>
			<point x="893" y="121"/>
			<point x="840" y="0"/>
			<point x="705" y="0" type="curve" smooth="yes"/>
			<point x="626" y="0"/>
			<point x="563" y="38"/>
			<point x="542" y="120" type="curve"/>
			<point x="503" y="42"/>
			<point x="463" y="0"/>
			<point x="387" y="0" type="curve" smooth="yes"/>
			<point x="308" y="0"/>
			<point x="260" y="59"/>
		</contour>
		<contour>
			<point x="298" y="444" type="curve"/>
			<point x="268" y="421"/>
			<point x="261" y="386"/>
			<point x="261" y="363" type="curve" smooth="yes"/>
			<point x="261" y="319"/>
			<point x="288" y="309"/>
			<point x="302" y="309" type="curve" smooth="yes"/>
			<point x="326" y="309"/>
			<point x="342" y="326"/>
			<point x="342" y="363" type="curve" smooth="yes"/>
			<point x="342" y="390"/>
			<point x="331" y="426"/>
		</contour>
		<contour>
			<point x="406" y="304" type="curve"/>
			<point x="380" y="260" type="line"/>
			<point x="212" y="174"/>
			<point x="128" y="113"/>
			<point x="109" y="-52" type="curve"/>
			<point x="80" y="-50" type="line"/>
			<point x="106" y="147"/>
			<point x="222" y="211"/>
		</contour>
	</outline>
</glyph>
<glyph name="uni0DAC" format="2">
	<advance width="950"/>
	<unicode hex="0DAC"/>
	<outline>
		<contour>
			<point x="451" y="252" type="curve"/>
			<point x="457" y="230" type="line"/>
			<point x="280" y="157"/>
			<point x="179" y="97"/>
			<point x="156" y="-54" type="curve"/>
			<point x="127" y="-52" type="line"/>
			<point x="153" y="125"/>
			<point x="267" y="177"/>
		</contour>
		<contour>
			<point x="399" y="453" type="curve"/>
			<point x="372" y="425" type="line"/>
			<point x="289" y="425"/>
			<point x="172" y="383"/>
			<point x="104" y="273" type="curve" smooth="yes"/>
			<point x="63" y="208"/>
			<point x="42" y="119"/>
			<point x="50" y="0" type="curve"/>
			<point x="22" y="0" type="line"/>
			<point x="13" y="125"/>
			<point x="39" y="221"/>
			<point x="85" y="292" type="curve" smooth="yes"/>
			<point x="158" y="404"/>
			<point x="282" y="453"/>
		</contour>
		<contour>
			<point x="150" y="474" type="curve"/>
			<point x="125" y="490" type="line"/>
			<point x="221" y="637"/>
			<point x="364" y="703"/>
			<point x="516" y="703" type="curve" smooth="yes"/>
			<point x="814" y="703"/>
			<point x="910" y="445"/>
			<point x="910" y="291" type="curve" smooth="yes"/>
			<point x="910" y="132"/>
			<point x="853" y="0"/>
			<point x="718" y="0" type="curve" smooth="yes"/>
			<point x="639" y="0"/>
			<point x="576" y="38"/>
			<point x="555" y="120" type="curve"/>
			<point x="516" y="42"/>
			<point x="466" y="0"/>
			<point x="386" y="0" type="curve" smooth="yes"/>
			<point x="321" y="0"/>
			<point x="274" y="39"/>
			<point x="274" y="93" type="curve" smooth="yes"/>
			<point x="274" y="191"/>
			<point x="390" y="226"/>
			<point x="486" y="266" type="curve" smooth="yes"/>
			<point x="558" y="296"/>
			<point x="614" y="333"/>
			<point x="614" y="395" type="curve" smooth="yes"/>
			<point x="614" y="430"/>
			<point x="591" y="479"/>
			<point x="526" y="479" type="curve" smooth="yes"/>
			<point x="468" y="479"/>
			<point x="408" y="430"/>
			<point x="408" y="364" type="curve" smooth="yes"/>
			<point x="408" y="328"/>
			<point x="430" y="308"/>
			<point x="447" y="308" type="curve" smooth="yes"/>
			<point x="466" y="308"/>
			<point x="480" y="321"/>
			<point x="480" y="349" type="curve" smooth="yes"/>
			<point x="480" y="378"/>
			<point x="448" y="425"/>
			<point x="402" y="425" type="curve" smooth="yes"/>
			<point x="331" y="425"/>
			<point x="285" y="369"/>
			<point x="275" y="294" type="curve"/>
			<point x="245" y="298" type="line"/>
			<point x="257" y="381"/>
			<point x="313" y="453"/>
			<point x="399" y="453" type="curve" smooth="yes"/>
			<point x="461" y="453"/>
			<point x="508" y="398"/>
			<point x="508" y="349" type="curve" smooth="yes"/>
			<point x="508" y="306"/>
			<point x="484" y="281"/>
			<point x="447" y="281" type="curve" smooth="yes"/>
			<point x="408" y="281"/>
			<point x="380" y="311"/>
			<point x="380" y="364" type="curve" smooth="yes"/>
			<point x="380" y="452"/>
			<point x="455" y="507"/>
			<point x="526" y="507" type="curve" smooth="yes"/>
			<point x="596" y="507"/>
			<point x="641" y="460"/>
			<point x="641" y="395" type="curve" smooth="yes"/>
			<point x="641" y="338"/>
			<point x="606" y="286"/>
			<point x="503" y="245" type="curve" smooth="yes"/>
			<point x="408" y="207"/>
			<point x="302" y="171"/>
			<point x="302" y="90" type="curve" smooth="yes"/>
			<point x="302" y="48"/>
			<point x="347" y="28"/>
			<point x="386" y="28" type="curve" smooth="yes"/>
			<point x="479" y="28"/>
			<point x="530" y="96"/>
			<point x="555" y="214" type="curve"/>
			<point x="580" y="213" type="line"/>
			<point x="573" y="100"/>
			<point x="618" y="28"/>
			<point x="718" y="28" type="curve" smooth="yes"/>
			<point x="831" y="28"/>
			<point x="880" y="144"/>
			<point x="880" y="291" type="curve" smooth="yes"/>
			<point x="880" y="433"/>
			<point x="788" y="674"/>
			<point x="516" y="674" type="curve" smooth="yes"/>
			<point x="372" y="674"/>
			<point x="239" y="612"/>
		</contour>
	</outline>
</glyph>
<glyph name="uni0DAE" format="2">
	<advance width="615"/>
	<unicode hex="0DAE"/>
	<outline>
		<contour>
			<point x="381" y="410" type="curve" smooth="yes"/>
			<point x="303" y="410"/>
			<point x="214" y="452"/>
			<point x="214" y="551" type="curve" smooth="yes"/>
			<point x="214" y="650"/>
			<point x="290" y="705"/>
			<point x="348" y="763" type="curve"/>
			<point x="366" y="744" type="line"/>
			<point x="305" y="683"/>
			<point x="240" y="636"/>
			<point x="240" y="551" type="curve" smooth="yes"/>
			<point x="240" y="482"/>
			<point x="302" y="436"/>
			<point x="382" y="436" type="curve" smooth="yes"/>
			<point x="456" y="436"/>
			<point x="509" y="479"/>
			<point x="541" y="514" type="curve"/>
			<point x="558" y="494" type="line"/>
			<point x="520" y="456"/>
			<point x="471" y="410"/>
		</contour>
		<contour>
			<point x="375" y="349" type="curve"/>
			<point x="361" y="326" type="line"/>
			<point x="313" y="356"/>
			<point x="261" y="365"/>
			<point x="235" y="365" type="curve" smooth="yes"/>
			<point x="116" y="365"/>
			<point x="67" y="276"/>
			<point x="67" y="204" type="curve" smooth="yes"/>
			<point x="67" y="103"/>
			<point x="170" y="27"/>
			<point x="295" y="27" type="curve" smooth="yes"/>
			<point x="471" y="27"/>
			<point x="549" y="161"/>
			<point x="549" y="260" type="curve" smooth="yes"/>
			<point x="549" y="426"/>
			<point x="422" y="511"/>
			<point x="339" y="588" type="curve" smooth="yes"/>
			<point x="284" y="639"/>
			<point x="219" y="696"/>
			<point x="219" y="757" type="curve" smooth="yes"/>
			<point x="219" y="786"/>
			<point x="235" y="825"/>
			<point x="258" y="845" type="curve"/>
			<point x="276" y="825" type="line"/>
			<point x="258" y="811"/>
			<point x="245" y="779"/>
			<point x="245" y="757" type="curve" smooth="yes"/>
			<point x="245" y="706"/>
			<point x="306" y="656"/>
			<point x="359" y="606" type="curve" smooth="yes"/>
			<point x="445" y="526"/>
			<point x="575" y="436"/>
			<point x="575" y="260" type="curve" smooth="yes"/>
			<point x="575" y="142"/>
			<point x="486" y="0"/>
			<point x="295" y="0" type="curve" smooth="yes"/>
			<point x="164" y="0"/>
			<point x="40" y="74"/>
			<point x="40" y="204" type="curve" smooth="yes"/>
			<point x="40" y="312"/>
			<point x="121" y="392"/>
			<point x="235" y="392" type="curve" smooth="yes"/>
			<point x="276" y="392"/>
			<point x="323" y="381"/>
		</contour>
	</outline>
</glyph>
<glyph name="uni0DAF" format="2">
	<advance width="522"/>
	<unicode hex="0DAF"/>
	<outline>
		<contour>
			<point x="197" y="469" type="curve"/>
			<point x="180" y="459"/>
			<point x="166" y="443"/>
			<point x="165" y="416" type="curve"/>
			<point x="164" y="400"/>
			<point x="169" y="388"/>
			<point x="175" y="379" type="curve"/>
			<point x="182" y="372"/>
			<point x="190" y="369"/>
			<point x="198" y="369" type="curve"/>
			<point x="206" y="369"/>
			<point x="211" y="373"/>
			<point x="215" y="376" type="curve"/>
			<point x="224" y="387"/>
			<point x="227" y="401"/>
			<point x="226" y="420" type="curve"/>
			<point x="224" y="440"/>
			<point x="217" y="455"/>
			<point x="203" y="465" type="curve"/>
			<point x="201" y="466"/>
			<point x="199" y="467"/>
		</contour>
		<contour>
			<point x="408" y="167" type="curve"/>
			<point x="388" y="167"/>
			<point x="359" y="157"/>
			<point x="333" y="132" type="curve"/>
			<point x="313" y="112"/>
			<point x="282" y="78"/>
			<point x="266" y="28" type="curve"/>
			<point x="273" y="30"/>
			<point x="280" y="30"/>
			<point x="288" y="31" type="curve"/>
			<point x="388" y="46"/>
			<point x="448" y="101"/>
			<point x="442" y="141" type="curve"/>
			<point x="441" y="153"/>
			<point x="434" y="161"/>
			<point x="424" y="165" type="curve"/>
			<point x="419" y="166"/>
			<point x="414" y="167"/>
		</contour>
		<contour>
			<point x="485" y="-290" type="curve"/>
			<point x="295" y="-290"/>
			<point x="226" y="-164"/>
			<point x="226" y="-47" type="curve"/>
			<point x="226" y="-30"/>
			<point x="227" y="-14"/>
			<point x="230" y="0" type="curve"/>
			<point x="175" y="0"/>
			<point x="112" y="13"/>
			<point x="74" y="48" type="curve"/>
			<point x="45" y="71"/>
			<point x="32" y="102"/>
			<point x="32" y="137" type="curve"/>
			<point x="32" y="246"/>
			<point x="136" y="280"/>
			<point x="227" y="311" type="curve"/>
			<point x="301" y="335"/>
			<point x="364" y="355"/>
			<point x="364" y="406" type="curve"/>
			<point x="364" y="485"/>
			<point x="271" y="486"/>
			<point x="270" y="486" type="curve"/>
			<point x="266" y="486"/>
			<point x="248" y="486"/>
			<point x="226" y="480" type="curve"/>
			<point x="242" y="466"/>
			<point x="251" y="447"/>
			<point x="252" y="423" type="curve"/>
			<point x="255" y="397"/>
			<point x="250" y="373"/>
			<point x="235" y="357" type="curve"/>
			<point x="226" y="347"/>
			<point x="212" y="341"/>
			<point x="198" y="341" type="curve"/>
			<point x="183" y="341"/>
			<point x="167" y="348"/>
			<point x="156" y="359" type="curve"/>
			<point x="147" y="370"/>
			<point x="135" y="389"/>
			<point x="137" y="418" type="curve"/>
			<point x="139" y="445"/>
			<point x="151" y="465"/>
			<point x="167" y="480" type="curve"/>
			<point x="154" y="482"/>
			<point x="140" y="481"/>
			<point x="129" y="480" type="curve"/>
			<point x="107" y="476"/>
			<point x="36" y="459"/>
			<point x="36" y="367" type="curve"/>
			<point x="10" y="367" type="line"/>
			<point x="10" y="458"/>
			<point x="69" y="498"/>
			<point x="125" y="508" type="curve"/>
			<point x="151" y="511"/>
			<point x="176" y="508"/>
			<point x="197" y="499" type="curve"/>
			<point x="222" y="510"/>
			<point x="250" y="514"/>
			<point x="270" y="514" type="curve"/>
			<point x="319" y="514"/>
			<point x="392" y="485"/>
			<point x="392" y="406" type="curve"/>
			<point x="392" y="335"/>
			<point x="316" y="311"/>
			<point x="236" y="285" type="curve"/>
			<point x="150" y="256"/>
			<point x="60" y="227"/>
			<point x="60" y="137" type="curve"/>
			<point x="60" y="109"/>
			<point x="70" y="87"/>
			<point x="90" y="69" type="curve"/>
			<point x="125" y="39"/>
			<point x="182" y="27"/>
			<point x="236" y="27" type="curve"/>
			<point x="254" y="88"/>
			<point x="291" y="129"/>
			<point x="314" y="152" type="curve"/>
			<point x="350" y="187"/>
			<point x="398" y="203"/>
			<point x="433" y="190" type="curve"/>
			<point x="454" y="183"/>
			<point x="467" y="167"/>
			<point x="470" y="145" type="curve"/>
			<point x="479" y="83"/>
			<point x="401" y="20"/>
			<point x="293" y="4" type="curve"/>
			<point x="281" y="3"/>
			<point x="270" y="2"/>
			<point x="257" y="0" type="curve"/>
			<point x="254" y="-13"/>
			<point x="252" y="-30"/>
			<point x="252" y="-47" type="curve"/>
			<point x="252" y="-98"/>
			<point x="270" y="-262"/>
			<point x="485" y="-262" type="curve"/>
			<point x="548" y="-262"/>
			<point x="603" y="-239"/>
			<point x="642" y="-196" type="curve"/>
			<point x="679" y="-154"/>
			<point x="699" y="-101"/>
			<point x="695" y="-48" type="curve"/>
			<point x="722" y="-46" type="line"/>
			<point x="726" y="-106"/>
			<point x="706" y="-167"/>
			<point x="661" y="-215" type="curve"/>
			<point x="619" y="-263"/>
			<point x="555" y="-290"/>
		</contour>
	</outline>
</glyph>
<glyph name="uni0DB0" format="2">
	<advance width="963"/>
	<unicode hex="0DB0"/>
	<outline>
		<contour>
			<point x="649" y="417" type="curve"/>
			<point x="645" y="389" type="line"/>
			<point x="380" y="420"/>
			<point x="284" y="289"/>
			<point x="284" y="161" type="curve" smooth="yes"/>
			<point x="284" y="54"/>
			<point x="360" y="27"/>
			<point x="399" y="27" type="curve" smooth="yes"/>
			<point x="492" y="27"/>
			<point x="543" y="96"/>
			<point x="568" y="214" type="curve"/>
			<point x="593" y="213" type="line"/>
			<point x="586" y="100"/>
			<point x="631" y="27"/>
			<point x="731" y="27" type="curve" smooth="yes"/>
			<point x="844" y="27"/>
			<point x="893" y="144"/>
			<point x="893" y="291" type="curve" smooth="yes"/>
			<point x="893" y="433"/>
			<point x="811" y="674"/>
			<point x="529" y="674" type="curve" smooth="yes"/>
			<point x="272" y="674"/>
			<point x="50" y="476"/>
			<point x="50" y="0" type="curve"/>
			<point x="20" y="0" type="line"/>
			<point x="20" y="497"/>
			<point x="260" y="703"/>
			<point x="529" y="703" type="curve" smooth="yes"/>
			<point x="837" y="703"/>
			<point x="923" y="445"/>
			<point x="923" y="291" type="curve" smooth="yes"/>
			<point x="923" y="132"/>
			<point x="866" y="0"/>
			<point x="731" y="0" type="curve" smooth="yes"/>
			<point x="652" y="0"/>
			<point x="589" y="38"/>
			<point x="568" y="120" type="curve"/>
			<point x="529" y="42"/>
			<point x="479" y="0"/>
			<point x="399" y="0" type="curve" smooth="yes"/>
			<point x="334" y="0"/>
			<point x="256" y="47"/>
			<point x="256" y="156" type="curve" smooth="yes"/>
			<point x="256" y="311"/>
			<point x="371" y="451"/>
		</contour>
	</outline>
</glyph>
<glyph name="uni0DB1" format="2">
	<advance width="803"/>
	<unicode hex="0DB1"/>
	<outline>
		<contour>
			<point x="227" y="407" type="curve"/>
			<point x="221" y="397"/>
			<point x="216" y="368"/>
			<point x="216" y="357" type="curve" smooth="yes"/>
			<point x="216" y="329"/>
			<point x="224" y="295"/>
			<point x="257" y="295" type="curve" smooth="yes"/>
			<point x="275" y="295"/>
			<point x="283" y="320"/>
			<point x="282" y="335" type="curve" smooth="yes"/>
			<point x="279" y="379"/>
			<point x="243" y="402"/>
		</contour>
		<contour>
			<point x="124" y="267" type="curve"/>
			<point x="119" y="253"/>
			<point x="113" y="232"/>
			<point x="113" y="207" type="curve" smooth="yes"/>
			<point x="113" y="106"/>
			<point x="208" y="27"/>
			<point x="324" y="27" type="curve" smooth="yes"/>
			<point x="443" y="27"/>
			<point x="555" y="79"/>
			<point x="555" y="180" type="curve" smooth="yes"/>
			<point x="555" y="227"/>
			<point x="518" y="268"/>
			<point x="470" y="268" type="curve" smooth="yes"/>
			<point x="410" y="268"/>
			<point x="358" y="217"/>
			<point x="314" y="173" type="curve"/>
			<point x="294" y="190" type="line"/>
			<point x="310" y="207"/>
			<point x="346" y="247"/>
			<point x="366" y="277" type="curve"/>
			<point x="338" y="254"/>
			<point x="305" y="208"/>
			<point x="240" y="208" type="curve" smooth="yes"/>
			<point x="194" y="208"/>
			<point x="155" y="231"/>
		</contour>
		<contour>
			<point x="435" y="375" type="curve"/>
			<point x="526" y="501"/>
			<point x="679" y="544"/>
			<point x="853" y="544" type="curve"/>
			<point x="852" y="518" type="line"/>
			<point x="764" y="518"/>
			<point x="714" y="453"/>
			<point x="714" y="353" type="curve" smooth="yes"/>
			<point x="714" y="277"/>
			<point x="751" y="181"/>
			<point x="751" y="51" type="curve" smooth="yes"/>
			<point x="751" y="-165"/>
			<point x="638" y="-264"/>
			<point x="418" y="-281" type="curve"/>
			<point x="417" y="-253" type="line"/>
			<point x="624" y="-240"/>
			<point x="725" y="-152"/>
			<point x="725" y="48" type="curve" smooth="yes"/>
			<point x="725" y="128"/>
			<point x="685" y="280"/>
			<point x="685" y="361" type="curve" smooth="yes"/>
			<point x="685" y="425"/>
			<point x="704" y="480"/>
			<point x="745" y="508" type="curve"/>
			<point x="610" y="496"/>
			<point x="510" y="432"/>
			<point x="426" y="329" type="curve"/>
			<point x="418" y="312"/>
			<point x="407" y="292"/>
			<point x="394" y="273" type="curve"/>
			<point x="418" y="287"/>
			<point x="443" y="295"/>
			<point x="466" y="295" type="curve" smooth="yes"/>
			<point x="520" y="295"/>
			<point x="581" y="259"/>
			<point x="581" y="178" type="curve" smooth="yes"/>
			<point x="581" y="65"/>
			<point x="461" y="0"/>
			<point x="324" y="0" type="curve" smooth="yes"/>
			<point x="190" y="0"/>
			<point x="86" y="98"/>
			<point x="86" y="207" type="curve" smooth="yes"/>
			<point x="86" y="260"/>
			<point x="111" y="295"/>
			<point x="123" y="315" type="curve"/>
			<point x="147" y="276"/>
			<point x="177" y="242"/>
			<point x="223" y="235" type="curve" smooth="yes"/>
			<point x="257" y="230"/>
			<point x="294" y="246"/>
			<point x="329" y="279" type="curve"/>
			<point x="355" y="305"/>
			<point x="379" y="325"/>
			<point x="401" y="348" type="curve"/>
			<point x="406" y="358"/>
			<point x="409" y="378"/>
			<point x="409" y="389" type="curve" smooth="yes"/>
			<point x="409" y="446"/>
			<point x="370" y="477"/>
			<point x="325" y="477" type="curve" smooth="yes"/>
			<point x="284" y="477"/>
			<point x="270" y="461"/>
			<point x="240" y="431" type="curve"/>
			<point x="268" y="419"/>
			<point x="309" y="386"/>
			<point x="310" y="337" type="curve" smooth="yes"/>
			<point x="311" y="297"/>
			<point x="288" y="268"/>
			<point x="257" y="268" type="curve" smooth="yes"/>
			<point x="214" y="268"/>
			<point x="191" y="302"/>
			<point x="191" y="354" type="curve" smooth="yes"/>
			<point x="191" y="369"/>
			<point x="194" y="404"/>
			<point x="201" y="417" type="curve"/>
			<point x="189" y="420"/>
			<point x="176" y="421"/>
			<point x="164" y="421" type="curve" smooth="yes"/>
			<point x="107" y="421"/>
			<point x="53" y="397"/>
			<point x="28" y="333" type="curve"/>
			<point x="0" y="339" type="line"/>
			<point x="25" y="414"/>
			<point x="94" y="449"/>
			<point x="164" y="449" type="curve" smooth="yes"/>
			<point x="180" y="449"/>
			<point x="198" y="447"/>
			<point x="215" y="442" type="curve"/>
			<point x="239" y="478"/>
			<point x="279" y="503"/>
			<point x="324" y="503" type="curve" smooth="yes"/>
			<point x="387" y="503"/>
			<point x="436" y="456"/>
			<point x="436" y="391" type="curve" smooth="yes"/>
			<point x="436" y="386"/>
			<point x="436" y="380"/>
		</contour>
	</outline>
</glyph>
<glyph name="uni0DB4" format="2">
	<advance width="758"/>
	<unicode hex="0DB4"/>
	<outline>
		<contour>
			<point x="549" y="621" type="curve" smooth="yes"/>
			<point x="633" y="621"/>
			<point x="702" y="561"/>
			<point x="702" y="478" type="curve" smooth="yes"/>
			<point x="702" y="440"/>
			<point x="672" y="390"/>
			<point x="616" y="390" type="curve" smooth="yes"/>
			<point x="564" y="390"/>
			<point x="525" y="429"/>
			<point x="525" y="477" type="curve" smooth="yes"/>
			<point x="525" y="600"/>
			<point x="651" y="647"/>
			<point x="813" y="634" type="curve"/>
			<point x="812" y="607" type="line"/>
			<point x="692" y="618"/>
			<point x="553" y="588"/>
			<point x="553" y="481" type="curve" smooth="yes"/>
			<point x="553" y="442"/>
			<point x="582" y="417"/>
			<point x="617" y="417" type="curve" smooth="yes"/>
			<point x="654" y="417"/>
			<point x="674" y="445"/>
			<point x="674" y="478" type="curve" smooth="yes"/>
			<point x="674" y="541"/>
			<point x="626" y="593"/>
			<point x="544" y="593" type="curve" smooth="yes"/>
			<point x="474" y="593"/>
			<point x="425" y="547"/>
			<point x="425" y="487" type="curve" smooth="yes"/>
			<point x="425" y="437"/>
			<point x="472" y="407"/>
			<point x="534" y="384" type="curve" smooth="yes"/>
			<point x="610" y="355"/>
			<point x="708" y="313"/>
			<point x="708" y="215" type="curve" smooth="yes"/>
			<point x="708" y="58"/>
			<point x="550" y="0"/>
			<point x="415" y="0" type="curve" smooth="yes"/>
			<point x="250" y="0"/>
			<point x="143" y="71"/>
			<point x="143" y="162" type="curve" smooth="yes"/>
			<point x="143" y="245"/>
			<point x="207" y="283"/>
			<point x="273" y="314" type="curve"/>
			<point x="332" y="342"/>
			<point x="370" y="372"/>
			<point x="370" y="412" type="curve" smooth="yes"/>
			<point x="370" y="452"/>
			<point x="326" y="481"/>
			<point x="284" y="481" type="curve" smooth="yes"/>
			<point x="233" y="481"/>
			<point x="180" y="450"/>
			<point x="180" y="391" type="curve" smooth="yes"/>
			<point x="180" y="368"/>
			<point x="193" y="352"/>
			<point x="213" y="352" type="curve" smooth="yes"/>
			<point x="239" y="352"/>
			<point x="248" y="377"/>
			<point x="248" y="394" type="curve" smooth="yes"/>
			<point x="248" y="453"/>
			<point x="183" y="463"/>
			<point x="154" y="463" type="curve" smooth="yes"/>
			<point x="78" y="463"/>
			<point x="47" y="413"/>
			<point x="47" y="369" type="curve" smooth="yes"/>
			<point x="47" y="349"/>
			<point x="57" y="330"/>
			<point x="57" y="330" type="curve"/>
			<point x="32" y="318" type="line"/>
			<point x="31" y="319"/>
			<point x="20" y="340"/>
			<point x="20" y="369" type="curve" smooth="yes"/>
			<point x="20" y="424"/>
			<point x="57" y="490"/>
			<point x="154" y="490" type="curve" smooth="yes"/>
			<point x="204" y="490"/>
			<point x="277" y="469"/>
			<point x="277" y="399" type="curve" smooth="yes"/>
			<point x="277" y="358"/>
			<point x="257" y="324"/>
			<point x="213" y="324" type="curve" smooth="yes"/>
			<point x="187" y="324"/>
			<point x="153" y="344"/>
			<point x="153" y="390" type="curve" smooth="yes"/>
			<point x="153" y="462"/>
			<point x="210" y="508"/>
			<point x="280" y="508" type="curve" smooth="yes"/>
			<point x="338" y="508"/>
			<point x="398" y="472"/>
			<point x="398" y="417" type="curve" smooth="yes"/>
			<point x="398" y="356"/>
			<point x="345" y="319"/>
			<point x="285" y="290" type="curve"/>
			<point x="220" y="257"/>
			<point x="170" y="230"/>
			<point x="170" y="164" type="curve" smooth="yes"/>
			<point x="170" y="90"/>
			<point x="268" y="27"/>
			<point x="414" y="27" type="curve" smooth="yes"/>
			<point x="525" y="27"/>
			<point x="680" y="78"/>
			<point x="680" y="213" type="curve" smooth="yes"/>
			<point x="680" y="281"/>
			<point x="618" y="321"/>
			<point x="526" y="357" type="curve" smooth="yes"/>
			<point x="486" y="372"/>
			<point x="397" y="405"/>
			<point x="397" y="486" type="curve" smooth="yes"/>
			<point x="397" y="567"/>
			<point x="459" y="621"/>
		</contour>
	</outline>
</glyph>
<glyph name="uni0DB5" format="2">
	<advance width="840"/>
	<unicode hex="0DB5"/>
	<outline>
		<contour>
			<point x="496" y="27" type="curve" smooth="yes"/>
			<point x="662" y="27"/>
			<point x="759" y="148"/>
			<point x="759" y="270" type="curve" smooth="yes"/>
			<point x="759" y="430"/>
			<point x="670" y="520"/>
			<point x="609" y="588" type="curve"/>
			<point x="559" y="644"/>
			<point x="513" y="696"/>
			<point x="513" y="757" type="curve" smooth="yes"/>
			<point x="513" y="786"/>
			<point x="525" y="825"/>
			<point x="548" y="845" type="curve"/>
			<point x="566" y="825" type="line"/>
			<point x="548" y="811"/>
			<point x="540" y="779"/>
			<point x="540" y="757" type="curve" smooth="yes"/>
			<point x="540" y="706"/>
			<point x="581" y="660"/>
			<point x="629" y="606" type="curve"/>
			<point x="692" y="534"/>
			<point x="785" y="440"/>
			<point x="785" y="270" type="curve" smooth="yes"/>
			<point x="785" y="129"/>
			<point x="677" y="0"/>
			<point x="496" y="0" type="curve" smooth="yes"/>
			<point x="363" y="0"/>
			<point x="270" y="57"/>
			<point x="270" y="150" type="curve" smooth="yes"/>
			<point x="270" y="240"/>
			<point x="345" y="263"/>
			<point x="406" y="304" type="curve" smooth="yes"/>
			<point x="438" y="326"/>
			<point x="481" y="345"/>
			<point x="481" y="406" type="curve" smooth="yes"/>
			<point x="481" y="425"/>
			<point x="466" y="479"/>
			<point x="387" y="479" type="curve" smooth="yes"/>
			<point x="348" y="479"/>
			<point x="340" y="469"/>
			<point x="324" y="460" type="curve"/>
			<point x="354" y="434"/>
			<point x="370" y="400"/>
			<point x="370" y="363" type="curve" smooth="yes"/>
			<point x="370" y="302"/>
			<point x="334" y="282"/>
			<point x="302" y="282" type="curve" smooth="yes"/>
			<point x="264" y="282"/>
			<point x="233" y="309"/>
			<point x="233" y="363" type="curve" smooth="yes"/>
			<point x="233" y="388"/>
			<point x="240" y="428"/>
			<point x="273" y="459" type="curve"/>
			<point x="252" y="466"/>
			<point x="239" y="470"/>
			<point x="200" y="470" type="curve" smooth="yes"/>
			<point x="108" y="470"/>
			<point x="47" y="401"/>
			<point x="47" y="316" type="curve" smooth="yes"/>
			<point x="47" y="253"/>
			<point x="89" y="219"/>
			<point x="89" y="217" type="curve"/>
			<point x="68" y="198" type="line"/>
			<point x="66" y="200"/>
			<point x="20" y="240"/>
			<point x="20" y="316" type="curve" smooth="yes"/>
			<point x="20" y="417"/>
			<point x="94" y="497"/>
			<point x="200" y="497" type="curve" smooth="yes"/>
			<point x="249" y="497"/>
			<point x="266" y="490"/>
			<point x="296" y="476" type="curve"/>
			<point x="318" y="491"/>
			<point x="346" y="507"/>
			<point x="387" y="507" type="curve" smooth="yes"/>
			<point x="471" y="507"/>
			<point x="508" y="444"/>
			<point x="508" y="406" type="curve" smooth="yes"/>
			<point x="508" y="337"/>
			<point x="469" y="316"/>
			<point x="423" y="283" type="curve" smooth="yes"/>
			<point x="369" y="244"/>
			<point x="297" y="226"/>
			<point x="297" y="150" type="curve" smooth="yes"/>
			<point x="297" y="71"/>
			<point x="380" y="27"/>
		</contour>
		<contour>
			<point x="298" y="444" type="curve"/>
			<point x="268" y="421"/>
			<point x="261" y="386"/>
			<point x="261" y="363" type="curve" smooth="yes"/>
			<point x="261" y="319"/>
			<point x="288" y="309"/>
			<point x="302" y="309" type="curve" smooth="yes"/>
			<point x="326" y="309"/>
			<point x="342" y="326"/>
			<point x="342" y="363" type="curve" smooth="yes"/>
			<point x="342" y="390"/>
			<point x="331" y="426"/>
		</contour>
		<contour>
			<point x="640" y="410" type="curve" smooth="yes"/>
			<point x="573" y="410"/>
			<point x="484" y="452"/>
			<point x="484" y="551" type="curve" smooth="yes"/>
			<point x="484" y="650"/>
			<point x="560" y="705"/>
			<point x="618" y="763" type="curve"/>
			<point x="637" y="744" type="line"/>
			<point x="576" y="683"/>
			<point x="510" y="636"/>
			<point x="510" y="551" type="curve" smooth="yes"/>
			<point x="510" y="482"/>
			<point x="572" y="436"/>
			<point x="641" y="436" type="curve" smooth="yes"/>
			<point x="713" y="436"/>
			<point x="755" y="476"/>
			<point x="783" y="507" type="curve"/>
			<point x="800" y="488" type="line"/>
			<point x="769" y="458"/>
			<point x="726" y="410"/>
		</contour>
	</outline>
</glyph>
<glyph name="uni0DB6" format="2">
	<advance width="1033"/>
	<unicode hex="0DB6"/>
	<outline>
		<contour>
			<point x="369" y="288" type="curve" smooth="yes"/>
			<point x="445" y="288"/>
			<point x="532" y="211"/>
			<point x="532" y="114" type="curve" smooth="yes"/>
			<point x="532" y="35"/>
			<point x="480" y="0"/>
			<point x="437" y="0" type="curve" smooth="yes"/>
			<point x="380" y="0"/>
			<point x="336" y="41"/>
			<point x="336" y="121" type="curve" smooth="yes"/>
			<point x="336" y="256"/>
			<point x="461" y="392"/>
			<point x="600" y="392" type="curve" smooth="yes"/>
			<point x="685" y="392"/>
			<point x="726" y="341"/>
			<point x="726" y="288" type="curve" smooth="yes"/>
			<point x="726" y="210"/>
			<point x="636" y="177"/>
			<point x="636" y="96" type="curve" smooth="yes"/>
			<point x="636" y="50"/>
			<point x="694" y="23"/>
			<point x="756" y="27" type="curve" smooth="yes"/>
			<point x="897" y="35"/>
			<point x="963" y="157"/>
			<point x="963" y="291" type="curve" smooth="yes"/>
			<point x="963" y="433"/>
			<point x="841" y="674"/>
			<point x="549" y="674" type="curve" smooth="yes"/>
			<point x="282" y="674"/>
			<point x="50" y="476"/>
			<point x="50" y="0" type="curve"/>
			<point x="20" y="0" type="line"/>
			<point x="20" y="497"/>
			<point x="270" y="703"/>
			<point x="549" y="703" type="curve" smooth="yes"/>
			<point x="867" y="703"/>
			<point x="993" y="445"/>
			<point x="993" y="291" type="curve" smooth="yes"/>
			<point x="993" y="121"/>
			<point x="891" y="-1"/>
			<point x="744" y="-1" type="curve" smooth="yes"/>
			<point x="669" y="-1"/>
			<point x="608" y="36"/>
			<point x="608" y="96" type="curve" smooth="yes"/>
			<point x="608" y="189"/>
			<point x="698" y="219"/>
			<point x="698" y="291" type="curve" smooth="yes"/>
			<point x="698" y="341"/>
			<point x="644" y="364"/>
			<point x="600" y="364" type="curve" smooth="yes"/>
			<point x="452" y="364"/>
			<point x="363" y="214"/>
			<point x="363" y="122" type="curve" smooth="yes"/>
			<point x="363" y="58"/>
			<point x="397" y="27"/>
			<point x="436" y="27" type="curve" smooth="yes"/>
			<point x="451" y="27"/>
			<point x="504" y="36"/>
			<point x="504" y="114" type="curve" smooth="yes"/>
			<point x="504" y="195"/>
			<point x="428" y="261"/>
			<point x="369" y="261" type="curve" smooth="yes"/>
			<point x="267" y="261"/>
			<point x="206" y="148"/>
			<point x="206" y="58" type="curve"/>
			<point x="179" y="58" type="line"/>
			<point x="179" y="162"/>
			<point x="245" y="288"/>
		</contour>
	</outline>
</glyph>
<glyph name="uni0DB8" format="2">
	<advance width="929"/>
	<unicode hex="0DB8"/>
	<outline>
		<contour>
			<point x="861" y="374" type="curve" smooth="yes"/>
			<point x="861" y="539"/>
			<point x="740" y="673"/>
			<point x="546" y="673" type="curve" smooth="yes"/>
			<point x="221" y="673"/>
			<point x="47" y="368"/>
			<point x="47" y="0" type="curve"/>
			<point x="20" y="0" type="line"/>
			<point x="20" y="385"/>
			<point x="209" y="700"/>
			<point x="539" y="700" type="curve" smooth="yes"/>
			<point x="735" y="700"/>
			<point x="889" y="573"/>
			<point x="889" y="375" type="curve" smooth="yes"/>
			<point x="889" y="169"/>
			<point x="733" y="0"/>
			<point x="546" y="0" type="curve" smooth="yes"/>
			<point x="396" y="0"/>
			<point x="297" y="73"/>
			<point x="297" y="210" type="curve" smooth="yes"/>
			<point x="297" y="395"/>
			<point x="449" y="507"/>
			<point x="570" y="507" type="curve" smooth="yes"/>
			<point x="647" y="507"/>
			<point x="690" y="449"/>
			<point x="690" y="382" type="curve" smooth="yes"/>
			<point x="690" y="287"/>
			<point x="608" y="185"/>
			<point x="502" y="185" type="curve" smooth="yes"/>
			<point x="440" y="185"/>
			<point x="416" y="227"/>
			<point x="416" y="263" type="curve" smooth="yes"/>
			<point x="416" y="334"/>
			<point x="473" y="395"/>
			<point x="527" y="430" type="curve"/>
			<point x="542" y="406" type="line"/>
			<point x="486" y="370"/>
			<point x="446" y="311"/>
			<point x="446" y="263" type="curve" smooth="yes"/>
			<point x="446" y="228"/>
			<point x="468" y="214"/>
			<point x="502" y="214" type="curve" smooth="yes"/>
			<point x="590" y="214"/>
			<point x="660" y="307"/>
			<point x="660" y="385" type="curve" smooth="yes"/>
			<point x="660" y="436"/>
			<point x="629" y="479"/>
			<point x="563" y="479" type="curve" smooth="yes"/>
			<point x="462" y="479"/>
			<point x="325" y="372"/>
			<point x="325" y="210" type="curve" smooth="yes"/>
			<point x="325" y="83"/>
			<point x="426" y="27"/>
			<point x="536" y="27" type="curve" smooth="yes"/>
			<point x="708" y="27"/>
			<point x="861" y="180"/>
		</contour>
	</outline>
</glyph>
<glyph name="uni0DB9" format="2">
	<advance width="995"/>
	<unicode hex="0DB9"/>
	<outline>
		<contour>
			<point x="674" y="473" type="curve" smooth="yes"/>
			<point x="600" y="473"/>
			<point x="554" y="386"/>
			<point x="554" y="328" type="curve" smooth="yes"/>
			<point x="554" y="291"/>
			<point x="583" y="274"/>
			<point x="604" y="274" type="curve" smooth="yes"/>
			<point x="685" y="274"/>
			<point x="732" y="349"/>
			<point x="731" y="424" type="curve" smooth="yes"/>
			<point x="731" y="449"/>
			<point x="715" y="473"/>
		</contour>
		<contour>
			<point x="494" y="480" type="curve" smooth="yes"/>
			<point x="378" y="477"/>
			<point x="277" y="315"/>
			<point x="276" y="199" type="curve" smooth="yes"/>
			<point x="275" y="98"/>
			<point x="324" y="28"/>
			<point x="408" y="28" type="curve" smooth="yes"/>
			<point x="450" y="28"/>
			<point x="481" y="51"/>
			<point x="483" y="91" type="curve" smooth="yes"/>
			<point x="485" y="119"/>
			<point x="475" y="128"/>
			<point x="462" y="139" type="curve"/>
			<point x="449" y="150"/>
			<point x="431" y="164"/>
			<point x="430" y="199" type="curve" smooth="yes"/>
			<point x="428" y="250"/>
			<point x="471" y="275"/>
			<point x="525" y="275" type="curve" smooth="yes"/>
			<point x="532" y="275"/>
			<point x="543" y="275"/>
			<point x="550" y="274" type="curve"/>
			<point x="536" y="286"/>
			<point x="529" y="308"/>
			<point x="529" y="328" type="curve" smooth="yes"/>
			<point x="529" y="352"/>
			<point x="536" y="379"/>
			<point x="557" y="422" type="curve"/>
			<point x="563" y="453"/>
			<point x="528" y="479"/>
		</contour>
		<contour>
			<point x="955" y="321" type="curve" smooth="yes"/>
			<point x="955" y="71"/>
			<point x="811" y="-2"/>
			<point x="727" y="-2" type="curve" smooth="yes"/>
			<point x="633" y="-2"/>
			<point x="581" y="26"/>
			<point x="578" y="76" type="curve" smooth="yes"/>
			<point x="576" y="123"/>
			<point x="602" y="136"/>
			<point x="622" y="144" type="curve"/>
			<point x="637" y="152"/>
			<point x="650" y="158"/>
			<point x="653" y="182" type="curve" smooth="yes"/>
			<point x="658" y="218"/>
			<point x="590" y="250"/>
			<point x="525" y="250" type="curve" smooth="yes"/>
			<point x="491" y="250"/>
			<point x="458" y="236"/>
			<point x="458" y="199" type="curve" smooth="yes"/>
			<point x="458" y="177"/>
			<point x="466" y="170"/>
			<point x="481" y="159" type="curve"/>
			<point x="494" y="146"/>
			<point x="513" y="132"/>
			<point x="510" y="89" type="curve" smooth="yes"/>
			<point x="506" y="32"/>
			<point x="465" y="0"/>
			<point x="408" y="0" type="curve" smooth="yes"/>
			<point x="307" y="0"/>
			<point x="247" y="83"/>
			<point x="249" y="199" type="curve" smooth="yes"/>
			<point x="251" y="341"/>
			<point x="366" y="507"/>
			<point x="494" y="507" type="curve" smooth="yes"/>
			<point x="529" y="507"/>
			<point x="562" y="491"/>
			<point x="578" y="457" type="curve"/>
			<point x="598" y="480"/>
			<point x="638" y="501"/>
			<point x="674" y="501" type="curve" smooth="yes"/>
			<point x="725" y="501"/>
			<point x="760" y="470"/>
			<point x="760" y="418" type="curve" smooth="yes"/>
			<point x="760" y="358"/>
			<point x="725" y="274"/>
			<point x="636" y="248" type="curve"/>
			<point x="664" y="233"/>
			<point x="685" y="211"/>
			<point x="681" y="179" type="curve" smooth="yes"/>
			<point x="677" y="139"/>
			<point x="651" y="128"/>
			<point x="633" y="120" type="curve"/>
			<point x="616" y="111"/>
			<point x="604" y="107"/>
			<point x="605" y="77" type="curve" smooth="yes"/>
			<point x="607" y="30"/>
			<point x="691" y="25"/>
			<point x="727" y="25" type="curve" smooth="yes"/>
			<point x="749" y="25"/>
			<point x="928" y="38"/>
			<point x="928" y="320" type="curve" smooth="yes"/>
			<point x="928" y="505"/>
			<point x="781" y="674"/>
			<point x="576" y="674" type="curve" smooth="yes"/>
			<point x="246" y="674"/>
			<point x="54" y="384"/>
			<point x="48" y="-2" type="curve"/>
			<point x="20" y="1" type="line"/>
			<point x="27" y="397"/>
			<point x="230" y="701"/>
			<point x="576" y="701" type="curve" smooth="yes"/>
			<point x="795" y="701"/>
			<point x="955" y="528"/>
		</contour>
	</outline>
</glyph>
<glyph name="uni0DBA" format="2">
	<advance width="704"/>
	<unicode hex="0DBA"/>
	<outline>
		<contour>
			<point x="781" y="568" type="curve" smooth="yes"/>
			<point x="667" y="568"/>
			<point x="487" y="529"/>
			<point x="487" y="396" type="curve" smooth="yes"/>
			<point x="487" y="350"/>
			<point x="515" y="314"/>
			<point x="562" y="314" type="curve" smooth="yes"/>
			<point x="611" y="314"/>
			<point x="627" y="366"/>
			<point x="627" y="391" type="curve" smooth="yes"/>
			<point x="627" y="482"/>
			<point x="526" y="541"/>
			<point x="457" y="541" type="curve" smooth="yes"/>
			<point x="396" y="541"/>
			<point x="321" y="507"/>
			<point x="321" y="433" type="curve" smooth="yes"/>
			<point x="321" y="354"/>
			<point x="397" y="343"/>
			<point x="464" y="302" type="curve"/>
			<point x="540" y="256"/>
			<point x="619" y="223"/>
			<point x="619" y="136" type="curve" smooth="yes"/>
			<point x="619" y="54"/>
			<point x="563" y="0"/>
			<point x="474" y="0" type="curve" smooth="yes"/>
			<point x="385" y="0"/>
			<point x="331" y="60"/>
			<point x="313" y="120" type="curve"/>
			<point x="299" y="48"/>
			<point x="254" y="0"/>
			<point x="176" y="0" type="curve" smooth="yes"/>
			<point x="98" y="0"/>
			<point x="40" y="59"/>
			<point x="40" y="144" type="curve" smooth="yes"/>
			<point x="40" y="252"/>
			<point x="119" y="316"/>
			<point x="205" y="353" type="curve"/>
			<point x="217" y="326" type="line"/>
			<point x="131" y="288"/>
			<point x="68" y="233"/>
			<point x="68" y="145" type="curve" smooth="yes"/>
			<point x="68" y="79"/>
			<point x="108" y="29"/>
			<point x="176" y="29" type="curve" smooth="yes"/>
			<point x="272" y="29"/>
			<point x="295" y="119"/>
			<point x="295" y="208" type="curve" smooth="yes"/>
			<point x="295" y="219" type="line"/>
			<point x="324" y="221" type="line"/>
			<point x="324" y="219" type="line" smooth="yes"/>
			<point x="324" y="95"/>
			<point x="394" y="27"/>
			<point x="474" y="27" type="curve" smooth="yes"/>
			<point x="545" y="27"/>
			<point x="591" y="65"/>
			<point x="591" y="136" type="curve" smooth="yes"/>
			<point x="591" y="208"/>
			<point x="523" y="234"/>
			<point x="449" y="279" type="curve"/>
			<point x="378" y="322"/>
			<point x="293" y="338"/>
			<point x="292" y="433" type="curve" smooth="yes"/>
			<point x="291" y="508"/>
			<point x="353" y="568"/>
			<point x="454" y="568" type="curve" smooth="yes"/>
			<point x="550" y="568"/>
			<point x="653" y="497"/>
			<point x="653" y="399" type="curve" smooth="yes"/>
			<point x="653" y="306"/>
			<point x="590" y="286"/>
			<point x="562" y="286" type="curve" smooth="yes"/>
			<point x="500" y="286"/>
			<point x="459" y="338"/>
			<point x="459" y="395" type="curve" smooth="yes"/>
			<point x="459" y="550"/>
			<point x="651" y="595"/>
			<point x="782" y="595" type="curve" smooth="yes"/>
			<point x="829" y="595"/>
			<point x="862" y="590"/>
			<point x="864" y="590" type="curve"/>
			<point x="861" y="564" type="line"/>
			<point x="860" y="564"/>
			<point x="832" y="568"/>
		</contour>
	</outline>
</glyph>
<glyph name="uni0DBB" format="2">
	<advance width="680"/>
	<unicode hex="0DBB"/>
	<outline>
		<contour>
			<point x="353" y="0" type="curve" smooth="yes"/>
			<point x="168" y="0"/>
			<point x="30" y="123"/>
			<point x="30" y="300" type="curve" smooth="yes"/>
			<point x="30" y="440"/>
			<point x="108" y="524"/>
			<point x="226" y="648" type="curve" smooth="yes"/>
			<point x="308" y="734"/>
			<point x="397" y="826"/>
			<point x="397" y="914" type="curve" smooth="yes"/>
			<point x="397" y="941"/>
			<point x="391" y="965"/>
			<point x="378" y="994" type="curve"/>
			<point x="400" y="1007" type="line"/>
			<point x="416" y="978"/>
			<point x="424" y="953"/>
			<point x="424" y="914" type="curve" smooth="yes"/>
			<point x="424" y="820"/>
			<point x="328" y="716"/>
			<point x="240" y="626" type="curve" smooth="yes"/>
			<point x="134" y="517"/>
			<point x="57" y="427"/>
			<point x="57" y="309" type="curve" smooth="yes"/>
			<point x="57" y="131"/>
			<point x="176" y="26"/>
			<point x="352" y="26" type="curve" smooth="yes"/>
			<point x="503" y="26"/>
			<point x="621" y="138"/>
			<point x="621" y="271" type="curve" smooth="yes"/>
			<point x="621" y="414"/>
			<point x="523" y="507"/>
			<point x="400" y="507" type="curve" smooth="yes"/>
			<point x="292" y="507"/>
			<point x="193" y="441"/>
			<point x="193" y="322" type="curve" smooth="yes"/>
			<point x="193" y="243"/>
			<point x="250" y="158"/>
			<point x="351" y="158" type="curve" smooth="yes"/>
			<point x="425" y="158"/>
			<point x="481" y="206"/>
			<point x="481" y="276" type="curve" smooth="yes"/>
			<point x="481" y="324"/>
			<point x="439" y="357"/>
			<point x="407" y="357" type="curve" smooth="yes"/>
			<point x="370" y="357"/>
			<point x="347" y="335"/>
			<point x="347" y="335" type="curve"/>
			<point x="331" y="357" type="line"/>
			<point x="333" y="358"/>
			<point x="358" y="384"/>
			<point x="403" y="384" type="curve" smooth="yes"/>
			<point x="443" y="384"/>
			<point x="507" y="351"/>
			<point x="507" y="275" type="curve" smooth="yes"/>
			<point x="507" y="198"/>
			<point x="449" y="132"/>
			<point x="351" y="132" type="curve" smooth="yes"/>
			<point x="244" y="132"/>
			<point x="165" y="214"/>
			<point x="165" y="322" type="curve" smooth="yes"/>
			<point x="165" y="465"/>
			<point x="281" y="534"/>
			<point x="400" y="534" type="curve" smooth="yes"/>
			<point x="508" y="534"/>
			<point x="650" y="460"/>
			<point x="650" y="272" type="curve" smooth="yes"/>
			<point x="650" y="103"/>
			<point x="495" y="0"/>
		</contour>
	</outline>
</glyph>
<glyph name="uni0DBD" format="2">
	<advance width="903"/>
	<unicode hex="0DBD"/>
	<outline>
		<contour>
			<point x="449" y="-298" type="curve" smooth="yes"/>
			<point x="184" y="-298"/>
			<point x="20" y="-112"/>
			<point x="20" y="125" type="curve" smooth="yes"/>
			<point x="20" y="462"/>
			<point x="258" y="594"/>
			<point x="444" y="594" type="curve" smooth="yes"/>
			<point x="606" y="594"/>
			<point x="742" y="476"/>
			<point x="734" y="294" type="curve" smooth="yes"/>
			<point x="725" y="86"/>
			<point x="571" y="0"/>
			<point x="472" y="0" type="curve" smooth="yes"/>
			<point x="308" y="0"/>
			<point x="250" y="105"/>
			<point x="250" y="197" type="curve" smooth="yes"/>
			<point x="250" y="316"/>
			<point x="351" y="410"/>
			<point x="457" y="410" type="curve" smooth="yes"/>
			<point x="519" y="410"/>
			<point x="583" y="375"/>
			<point x="583" y="290" type="curve" smooth="yes"/>
			<point x="583" y="223"/>
			<point x="533" y="161"/>
			<point x="464" y="161" type="curve" smooth="yes"/>
			<point x="411" y="161"/>
			<point x="375" y="192"/>
			<point x="366" y="224" type="curve"/>
			<point x="392" y="235" type="line"/>
			<point x="398" y="214"/>
			<point x="424" y="188"/>
			<point x="464" y="188" type="curve" smooth="yes"/>
			<point x="520" y="188"/>
			<point x="555" y="240"/>
			<point x="555" y="287" type="curve" smooth="yes"/>
			<point x="555" y="360"/>
			<point x="506" y="381"/>
			<point x="457" y="381" type="curve" smooth="yes"/>
			<point x="367" y="381"/>
			<point x="278" y="299"/>
			<point x="278" y="197" type="curve" smooth="yes"/>
			<point x="278" y="121"/>
			<point x="322" y="27"/>
			<point x="472" y="27" type="curve" smooth="yes"/>
			<point x="560" y="27"/>
			<point x="701" y="105"/>
			<point x="708" y="294" type="curve" smooth="yes"/>
			<point x="714" y="455"/>
			<point x="595" y="567"/>
			<point x="444" y="567" type="curve" smooth="yes"/>
			<point x="234" y="567"/>
			<point x="48" y="396"/>
			<point x="48" y="122" type="curve" smooth="yes"/>
			<point x="48" y="-98"/>
			<point x="201" y="-271"/>
			<point x="450" y="-271" type="curve" smooth="yes"/>
			<point x="687" y="-271"/>
			<point x="903" y="-100"/>
			<point x="833" y="219" type="curve"/>
			<point x="860" y="227" type="line"/>
			<point x="930" y="-112"/>
			<point x="708" y="-298"/>
		</contour>
	</outline>
</glyph>
<glyph name="uni0DC0" format="2">
	<advance width="1049"/>
	<unicode hex="0DC0"/>
	<outline>
		<contour>
			<point x="528" y="444" type="curve"/>
			<point x="498" y="421"/>
			<point x="491" y="386"/>
			<point x="491" y="363" type="curve" smooth="yes"/>
			<point x="491" y="319"/>
			<point x="518" y="309"/>
			<point x="532" y="309" type="curve" smooth="yes"/>
			<point x="556" y="309"/>
			<point x="572" y="326"/>
			<point x="572" y="363" type="curve" smooth="yes"/>
			<point x="572" y="390"/>
			<point x="561" y="426"/>
		</contour>
		<contour>
			<point x="658" y="0" type="curve" smooth="yes"/>
			<point x="581" y="0"/>
			<point x="480" y="34"/>
			<point x="480" y="125" type="curve" smooth="yes"/>
			<point x="480" y="225"/>
			<point x="585" y="263"/>
			<point x="646" y="304" type="curve" smooth="yes"/>
			<point x="678" y="326"/>
			<point x="721" y="345"/>
			<point x="721" y="406" type="curve" smooth="yes"/>
			<point x="721" y="425"/>
			<point x="706" y="479"/>
			<point x="627" y="479" type="curve" smooth="yes"/>
			<point x="588" y="479"/>
			<point x="570" y="469"/>
			<point x="554" y="460" type="curve"/>
			<point x="584" y="434"/>
			<point x="600" y="400"/>
			<point x="600" y="363" type="curve" smooth="yes"/>
			<point x="600" y="302"/>
			<point x="564" y="282"/>
			<point x="532" y="282" type="curve" smooth="yes"/>
			<point x="494" y="282"/>
			<point x="463" y="309"/>
			<point x="463" y="363" type="curve" smooth="yes"/>
			<point x="463" y="388"/>
			<point x="470" y="428"/>
			<point x="503" y="459" type="curve"/>
			<point x="482" y="466"/>
			<point x="469" y="470"/>
			<point x="430" y="470" type="curve" smooth="yes"/>
			<point x="338" y="470"/>
			<point x="277" y="401"/>
			<point x="277" y="316" type="curve" smooth="yes"/>
			<point x="277" y="253"/>
			<point x="319" y="219"/>
			<point x="319" y="217" type="curve"/>
			<point x="298" y="198" type="line"/>
			<point x="296" y="200"/>
			<point x="250" y="240"/>
			<point x="250" y="316" type="curve" smooth="yes"/>
			<point x="250" y="417"/>
			<point x="324" y="497"/>
			<point x="430" y="497" type="curve" smooth="yes"/>
			<point x="479" y="497"/>
			<point x="496" y="490"/>
			<point x="526" y="476" type="curve"/>
			<point x="548" y="491"/>
			<point x="586" y="507"/>
			<point x="627" y="507" type="curve" smooth="yes"/>
			<point x="711" y="507"/>
			<point x="748" y="444"/>
			<point x="748" y="406" type="curve" smooth="yes"/>
			<point x="748" y="337"/>
			<point x="709" y="316"/>
			<point x="663" y="283" type="curve" smooth="yes"/>
			<point x="609" y="244"/>
			<point x="507" y="211"/>
			<point x="507" y="125" type="curve" smooth="yes"/>
			<point x="507" y="48"/>
			<point x="600" y="27"/>
			<point x="656" y="27" type="curve" smooth="yes"/>
			<point x="824" y="27"/>
			<point x="981" y="142"/>
			<point x="981" y="341" type="curve" smooth="yes"/>
			<point x="981" y="437"/>
			<point x="920" y="674"/>
			<point x="603" y="674" type="curve" smooth="yes"/>
			<point x="379" y="674"/>
			<point x="48" y="515"/>
			<point x="48" y="0" type="curve"/>
			<point x="20" y="0" type="line"/>
			<point x="20" y="499"/>
			<point x="325" y="699"/>
			<point x="603" y="699" type="curve" smooth="yes"/>
			<point x="934" y="699"/>
			<point x="1009" y="456"/>
			<point x="1009" y="341" type="curve" smooth="yes"/>
			<point x="1009" y="138"/>
			<point x="856" y="0"/>
		</contour>
	</outline>
</glyph>
<glyph name="uni0DC1" format="2">
	<advance width="792"/>
	<unicode hex="0DC1"/>
	<outline>
		<contour>
			<point x="635" y="97" type="curve" smooth="yes"/>
			<point x="635" y="51"/>
			<point x="603" y="-12"/>
			<point x="535" y="-12" type="curve" smooth="yes"/>
			<point x="493" y="-12"/>
			<point x="449" y="15"/>
			<point x="449" y="79" type="curve" smooth="yes"/>
			<point x="449" y="172"/>
			<point x="518" y="228"/>
			<point x="607" y="228" type="curve" smooth="yes"/>
			<point x="685" y="228"/>
			<point x="730" y="151"/>
			<point x="730" y="63" type="curve" smooth="yes"/>
			<point x="730" y="-147"/>
			<point x="523" y="-267"/>
			<point x="297" y="-281" type="curve"/>
			<point x="296" y="-252" type="line"/>
			<point x="474" y="-240"/>
			<point x="702" y="-147"/>
			<point x="702" y="63" type="curve" smooth="yes"/>
			<point x="702" y="127"/>
			<point x="662" y="200"/>
			<point x="613" y="200" type="curve" smooth="yes"/>
			<point x="524" y="200"/>
			<point x="477" y="151"/>
			<point x="477" y="79" type="curve" smooth="yes"/>
			<point x="477" y="47"/>
			<point x="497" y="15"/>
			<point x="535" y="15" type="curve" smooth="yes"/>
			<point x="574" y="15"/>
			<point x="609" y="50"/>
			<point x="609" y="99" type="curve" smooth="yes"/>
			<point x="609" y="181"/>
			<point x="565" y="288"/>
			<point x="565" y="352" type="curve" smooth="yes"/>
			<point x="565" y="409"/>
			<point x="588" y="452"/>
			<point x="633" y="485" type="curve"/>
			<point x="458" y="485"/>
			<point x="333" y="395"/>
			<point x="256" y="260" type="curve"/>
			<point x="271" y="273"/>
			<point x="297" y="276"/>
			<point x="305" y="276" type="curve" smooth="yes"/>
			<point x="373" y="276"/>
			<point x="416" y="211"/>
			<point x="416" y="154" type="curve" smooth="yes"/>
			<point x="416" y="41"/>
			<point x="307" y="0"/>
			<point x="224" y="0" type="curve" smooth="yes"/>
			<point x="125" y="0"/>
			<point x="20" y="69"/>
			<point x="20" y="189" type="curve" smooth="yes"/>
			<point x="20" y="353"/>
			<point x="169" y="478"/>
			<point x="331" y="508" type="curve"/>
			<point x="331" y="478" type="line"/>
			<point x="175" y="448"/>
			<point x="50" y="331"/>
			<point x="50" y="189" type="curve" smooth="yes"/>
			<point x="50" y="84"/>
			<point x="138" y="27"/>
			<point x="230" y="27" type="curve" smooth="yes"/>
			<point x="295" y="27"/>
			<point x="389" y="66"/>
			<point x="389" y="154" type="curve" smooth="yes"/>
			<point x="389" y="197"/>
			<point x="360" y="249"/>
			<point x="297" y="249" type="curve" smooth="yes"/>
			<point x="250" y="249"/>
			<point x="240" y="220"/>
			<point x="234" y="211" type="curve"/>
			<point x="209" y="224" type="line"/>
			<point x="316" y="447"/>
			<point x="468" y="517"/>
			<point x="696" y="517" type="curve" smooth="yes"/>
			<point x="727" y="517"/>
			<point x="748" y="516"/>
			<point x="752" y="516" type="curve"/>
			<point x="751" y="488" type="line"/>
			<point x="661" y="488"/>
			<point x="593" y="437"/>
			<point x="593" y="353" type="curve" smooth="yes"/>
			<point x="593" y="258"/>
			<point x="635" y="192"/>
		</contour>
	</outline>
</glyph>
<glyph name="uni0DC2" format="2">
	<advance width="738"/>
	<unicode hex="0DC2"/>
	<outline>
		<contour>
			<point x="480" y="140" type="curve" smooth="yes"/>
			<point x="420" y="140"/>
			<point x="359" y="169"/>
			<point x="359" y="229" type="curve" smooth="yes"/>
			<point x="359" y="303"/>
			<point x="441" y="344"/>
			<point x="473" y="367" type="curve" smooth="yes"/>
			<point x="510" y="394"/>
			<point x="580" y="440"/>
			<point x="580" y="496" type="curve" smooth="yes"/>
			<point x="580" y="539"/>
			<point x="549" y="575"/>
			<point x="504" y="575" type="curve" smooth="yes"/>
			<point x="467" y="575"/>
			<point x="425" y="547"/>
			<point x="425" y="487" type="curve" smooth="yes"/>
			<point x="425" y="437"/>
			<point x="472" y="407"/>
			<point x="534" y="384" type="curve" smooth="yes"/>
			<point x="610" y="355"/>
			<point x="698" y="313"/>
			<point x="698" y="215" type="curve" smooth="yes"/>
			<point x="698" y="68"/>
			<point x="550" y="0"/>
			<point x="415" y="0" type="curve" smooth="yes"/>
			<point x="250" y="0"/>
			<point x="143" y="71"/>
			<point x="143" y="162" type="curve" smooth="yes"/>
			<point x="143" y="245"/>
			<point x="207" y="283"/>
			<point x="273" y="314" type="curve"/>
			<point x="332" y="342"/>
			<point x="370" y="372"/>
			<point x="370" y="412" type="curve" smooth="yes"/>
			<point x="370" y="452"/>
			<point x="326" y="481"/>
			<point x="284" y="481" type="curve" smooth="yes"/>
			<point x="233" y="481"/>
			<point x="180" y="450"/>
			<point x="180" y="391" type="curve" smooth="yes"/>
			<point x="180" y="368"/>
			<point x="193" y="352"/>
			<point x="213" y="352" type="curve" smooth="yes"/>
			<point x="239" y="352"/>
			<point x="248" y="377"/>
			<point x="248" y="394" type="curve" smooth="yes"/>
			<point x="248" y="453"/>
			<point x="183" y="463"/>
			<point x="154" y="463" type="curve" smooth="yes"/>
			<point x="78" y="463"/>
			<point x="47" y="413"/>
			<point x="47" y="369" type="curve" smooth="yes"/>
			<point x="47" y="349"/>
			<point x="57" y="330"/>
			<point x="57" y="330" type="curve"/>
			<point x="32" y="318" type="line"/>
			<point x="31" y="319"/>
			<point x="20" y="340"/>
			<point x="20" y="369" type="curve" smooth="yes"/>
			<point x="20" y="424"/>
			<point x="57" y="490"/>
			<point x="154" y="490" type="curve" smooth="yes"/>
			<point x="204" y="490"/>
			<point x="277" y="469"/>
			<point x="277" y="399" type="curve" smooth="yes"/>
			<point x="277" y="358"/>
			<point x="257" y="324"/>
			<point x="213" y="324" type="curve" smooth="yes"/>
			<point x="187" y="324"/>
			<point x="153" y="344"/>
			<point x="153" y="390" type="curve" smooth="yes"/>
			<point x="153" y="462"/>
			<point x="210" y="508"/>
			<point x="280" y="508" type="curve" smooth="yes"/>
			<point x="338" y="508"/>
			<point x="398" y="472"/>
			<point x="398" y="417" type="curve" smooth="yes"/>
			<point x="398" y="356"/>
			<point x="345" y="319"/>
			<point x="285" y="290" type="curve"/>
			<point x="220" y="257"/>
			<point x="170" y="230"/>
			<point x="170" y="164" type="curve" smooth="yes"/>
			<point x="170" y="90"/>
			<point x="268" y="27"/>
			<point x="414" y="27" type="curve" smooth="yes"/>
			<point x="525" y="27"/>
			<point x="670" y="88"/>
			<point x="670" y="213" type="curve" smooth="yes"/>
			<point x="670" y="281"/>
			<point x="618" y="321"/>
			<point x="526" y="357" type="curve" smooth="yes"/>
			<point x="486" y="372"/>
			<point x="397" y="405"/>
			<point x="397" y="486" type="curve" smooth="yes"/>
			<point x="397" y="567"/>
			<point x="452" y="601"/>
			<point x="504" y="601" type="curve" smooth="yes"/>
			<point x="565" y="601"/>
			<point x="608" y="552"/>
			<point x="608" y="493" type="curve" smooth="yes"/>
			<point x="608" y="435"/>
			<point x="552" y="389"/>
			<point x="505" y="356" type="curve" smooth="yes"/>
			<point x="466" y="328"/>
			<point x="387" y="290"/>
			<point x="387" y="229" type="curve" smooth="yes"/>
			<point x="387" y="187"/>
			<point x="430" y="167"/>
			<point x="480" y="167" type="curve" smooth="yes"/>
			<point x="504" y="167"/>
			<point x="542" y="181"/>
			<point x="542" y="211" type="curve" smooth="yes"/>
			<point x="542" y="231"/>
			<point x="527" y="248"/>
			<point x="503" y="248" type="curve" smooth="yes"/>
			<point x="443" y="248"/>
			<point x="402" y="165"/>
			<point x="402" y="90" type="curve" smooth="yes"/>
			<point x="402" y="-26"/>
			<point x="490" y="-87"/>
			<point x="615" y="-100" type="curve"/>
			<point x="613" y="-128" type="line"/>
			<point x="473" y="-112"/>
			<point x="375" y="-40"/>
			<point x="375" y="90" type="curve" smooth="yes"/>
			<point x="375" y="183"/>
			<point x="424" y="275"/>
			<point x="503" y="275" type="curve" smooth="yes"/>
			<point x="542" y="275"/>
			<point x="569" y="249"/>
			<point x="569" y="211" type="curve" smooth="yes"/>
			<point x="569" y="163"/>
			<point x="521" y="140"/>
		</contour>
	</outline>
</glyph>
<glyph name="uni0DC3" format="2">
	<advance width="897"/>
	<unicode hex="0DC3"/>
	<outline>
		<contour>
			<point x="391" y="320" type="curve" smooth="yes"/>
			<point x="451" y="349"/>
			<point x="477" y="378"/>
			<point x="477" y="412" type="curve" smooth="yes"/>
			<point x="477" y="465"/>
			<point x="434" y="480"/>
			<point x="395" y="480" type="curve" smooth="yes"/>
			<point x="349" y="480"/>
			<point x="282" y="452"/>
			<point x="282" y="374" type="curve" smooth="yes"/>
			<point x="282" y="357"/>
			<point x="293" y="330"/>
			<point x="320" y="330" type="curve" smooth="yes"/>
			<point x="340" y="330"/>
			<point x="347" y="351"/>
			<point x="347" y="373" type="curve" smooth="yes"/>
			<point x="347" y="420"/>
			<point x="272" y="449"/>
			<point x="230" y="449" type="curve" smooth="yes"/>
			<point x="154" y="449"/>
			<point x="104" y="396"/>
			<point x="104" y="342" type="curve" smooth="yes"/>
			<point x="104" y="334"/>
			<point x="106" y="330"/>
			<point x="106" y="329" type="curve"/>
			<point x="78" y="319" type="line"/>
			<point x="77" y="320"/>
			<point x="75" y="327"/>
			<point x="75" y="339" type="curve" smooth="yes"/>
			<point x="75" y="415"/>
			<point x="141" y="477"/>
			<point x="230" y="477" type="curve" smooth="yes"/>
			<point x="283" y="477"/>
			<point x="375" y="446"/>
			<point x="375" y="367" type="curve" smooth="yes"/>
			<point x="375" y="327"/>
			<point x="347" y="303"/>
			<point x="320" y="303" type="curve" smooth="yes"/>
			<point x="270" y="303"/>
			<point x="254" y="345"/>
			<point x="254" y="377" type="curve" smooth="yes"/>
			<point x="254" y="450"/>
			<point x="316" y="507"/>
			<point x="394" y="507" type="curve" smooth="yes"/>
			<point x="451" y="507"/>
			<point x="503" y="483"/>
			<point x="503" y="412" type="curve" smooth="yes"/>
			<point x="503" y="351"/>
			<point x="452" y="318"/>
			<point x="365" y="276" type="curve"/>
			<point x="322" y="256"/>
			<point x="266" y="230"/>
			<point x="200" y="188" type="curve"/>
			<point x="59" y="101"/>
			<point x="24" y="28"/>
			<point x="24" y="27" type="curve"/>
			<point x="0" y="38" type="line"/>
			<point x="2" y="41"/>
			<point x="37" y="119"/>
			<point x="184" y="212" type="curve"/>
			<point x="247" y="251"/>
			<point x="347" y="300"/>
		</contour>
		<contour>
			<point x="974" y="568" type="curve" smooth="yes"/>
			<point x="860" y="568"/>
			<point x="680" y="529"/>
			<point x="680" y="396" type="curve" smooth="yes"/>
			<point x="680" y="350"/>
			<point x="708" y="314"/>
			<point x="755" y="314" type="curve" smooth="yes"/>
			<point x="804" y="314"/>
			<point x="820" y="366"/>
			<point x="820" y="391" type="curve" smooth="yes"/>
			<point x="820" y="482"/>
			<point x="719" y="541"/>
			<point x="650" y="541" type="curve" smooth="yes"/>
			<point x="589" y="541"/>
			<point x="514" y="507"/>
			<point x="514" y="433" type="curve" smooth="yes"/>
			<point x="514" y="354"/>
			<point x="590" y="343"/>
			<point x="657" y="302" type="curve"/>
			<point x="733" y="256"/>
			<point x="812" y="223"/>
			<point x="812" y="136" type="curve" smooth="yes"/>
			<point x="812" y="54"/>
			<point x="756" y="0"/>
			<point x="667" y="0" type="curve" smooth="yes"/>
			<point x="578" y="0"/>
			<point x="524" y="60"/>
			<point x="506" y="120" type="curve"/>
			<point x="492" y="48"/>
			<point x="447" y="0"/>
			<point x="369" y="0" type="curve" smooth="yes"/>
			<point x="291" y="0"/>
			<point x="233" y="51"/>
			<point x="233" y="119" type="curve" smooth="yes"/>
			<point x="233" y="202"/>
			<point x="293" y="250"/>
			<point x="350" y="288" type="curve"/>
			<point x="385" y="288" type="line"/>
			<point x="327" y="245"/>
			<point x="261" y="193"/>
			<point x="261" y="120" type="curve" smooth="yes"/>
			<point x="261" y="71"/>
			<point x="301" y="29"/>
			<point x="369" y="29" type="curve" smooth="yes"/>
			<point x="465" y="29"/>
			<point x="488" y="119"/>
			<point x="488" y="208" type="curve" smooth="yes"/>
			<point x="488" y="219" type="line"/>
			<point x="517" y="221" type="line"/>
			<point x="517" y="219" type="line" smooth="yes"/>
			<point x="517" y="95"/>
			<point x="587" y="27"/>
			<point x="667" y="27" type="curve" smooth="yes"/>
			<point x="738" y="27"/>
			<point x="784" y="65"/>
			<point x="784" y="136" type="curve" smooth="yes"/>
			<point x="784" y="208"/>
			<point x="716" y="234"/>
			<point x="642" y="279" type="curve"/>
			<point x="571" y="322"/>
			<point x="486" y="338"/>
			<point x="485" y="433" type="curve" smooth="yes"/>
			<point x="484" y="508"/>
			<point x="546" y="568"/>
			<point x="647" y="568" type="curve" smooth="yes"/>
			<point x="743" y="568"/>
			<point x="846" y="497"/>
			<point x="846" y="399" type="curve" smooth="yes"/>
			<point x="846" y="306"/>
			<point x="783" y="286"/>
			<point x="755" y="286" type="curve" smooth="yes"/>
			<point x="693" y="286"/>
			<point x="652" y="338"/>
			<point x="652" y="395" type="curve" smooth="yes"/>
			<point x="652" y="550"/>
			<point x="844" y="595"/>
			<point x="975" y="595" type="curve" smooth="yes"/>
			<point x="1022" y="595"/>
			<point x="1055" y="590"/>
			<point x="1057" y="590" type="curve"/>
			<point x="1054" y="564" type="line"/>
			<point x="1053" y="564"/>
			<point x="1025" y="568"/>
		</contour>
	</outline>
</glyph>
